<svg width="1200" height="1200" viewBox="0 0 1200 1200" fill="none" xmlns="http://www.w3.org/2000/svg">
<g clip-path="url(#clip0)">
<path fill-rule="evenodd" clip-rule="evenodd" d="M621.458 461.692C619.824 459.555 616.541 455.701 613.56 453.51C609.718 450.704 605.766 450.574 603.138 451.865C601.19 452.908 598.486 455.36 598.279 461.232C597.047 460.107 595.707 459.106 594.298 458.32C591.634 456.836 589.62 457.417 588.298 458.005C586.767 458.701 585.477 459.923 584.788 461.926C584.501 462.66 584.332 463.929 584.537 465.435C584.673 466.217 585.229 468.258 585.293 468.587C585.586 472.004 585.647 475.421 585.888 478.763C586.467 486.008 586.764 493.312 588.182 500.258C588.839 503.657 592.228 505.913 595.644 505.188C599.125 504.52 601.342 501.154 600.619 497.698C599.792 493.69 599.408 489.573 599.073 485.399C599.982 486.764 600.832 488.063 601.717 489.32C602.276 490.151 603.582 492.263 604.203 492.888C604.942 493.643 605.713 494.094 606.226 494.307C608.57 495.355 610.572 494.922 612.092 493.971C613.167 493.4 615.703 491.812 615.295 487.589C614.762 482.839 613.375 478.404 612.59 473.811C612.353 472.609 612.13 471.391 611.981 470.222C612.708 471.126 614.384 472.678 617.173 473.75C623.702 476.269 640.346 478.507 656.019 452.223C657.813 449.212 656.798 445.287 653.81 443.508C650.754 441.671 646.87 442.669 645.07 445.688C642.213 450.463 639.366 454.02 636.635 456.637C629.926 463.045 622.838 461.976 621.458 461.692Z" fill="#FDAF52"/>
<path fill-rule="evenodd" clip-rule="evenodd" d="M609.588 812.699C606.801 812.739 603.747 812.783 599.099 812.909C598.681 818.952 588.001 819.446 580.549 819.79C579.499 819.839 578.512 819.884 577.628 819.942C538.025 822.519 516.554 820.906 501.286 812.37C485.54 803.686 473.612 792.264 461.683 775.02C459.028 771.352 455.639 768.319 452.259 765.294C448.959 762.34 445.668 759.394 443.075 755.872C436.872 747.537 429.715 738.872 423.035 730.937C421.605 729.206 419.34 728.102 417.075 726.997C414.807 725.891 412.539 724.785 411.107 723.05C408.721 720.464 405.381 714.795 405.381 714.795C404.109 713.555 404.109 711.941 404.109 710.324C404.109 709.516 404.109 708.707 403.95 707.944C402.449 708.474 402.259 708.018 402.006 707.407C401.777 706.853 401.494 706.171 400.133 705.983C397.747 705.591 394.884 704.551 391.544 701.65C383.131 692.875 332.432 632.824 311.724 608.295C308.946 605.004 306.707 602.352 305.183 600.55V600.445C300.888 598.169 298.026 595.058 296.117 591.374C295.423 590.155 294.954 588.735 294.437 587.171C293.887 585.508 293.283 583.682 292.3 581.765C286.802 572.784 280.13 565.442 273.287 557.912C269.441 553.679 265.54 549.387 261.763 544.71C257.627 539.797 254.04 537.255 250.435 534.7C248.218 533.129 245.994 531.553 243.632 529.418L242.201 528.869C235.044 526.149 231.226 518.262 233.135 510.895C233.606 509.73 232.103 508.286 230.688 506.926C229.235 505.528 227.874 504.219 228.841 503.395C232.181 499.94 245.541 499.84 250.789 501.119C250.789 501.119 251.266 501.324 252.22 501.687V501.61C252.22 501.61 254.606 502.464 255.56 502.746C256.617 502.961 257.414 502.619 258.143 502.306C258.401 502.196 258.651 502.088 258.9 502.011C260.332 501.477 262.24 500.933 264.149 500.518C267.966 499.616 272.26 499.267 276.554 500.007C282.334 500.999 289.195 499.861 296.117 498.712C299.481 498.154 302.86 497.593 306.137 497.273C316.157 496.266 326.177 497.011 335.242 501.348C341.37 504.542 346.883 511.864 351.534 518.042C352.678 519.561 353.769 521.011 354.805 522.313C363.785 533.965 373.412 545.514 382.961 556.969C387.618 562.555 392.257 568.12 396.793 573.663C398.57 575.809 400.511 577.775 402.446 579.735C405.186 582.511 407.915 585.276 410.153 588.526C418.741 601.318 431.147 614.11 442.598 624.488C446.883 628.423 450.218 633.653 453.551 638.879C456.898 644.128 460.243 649.374 464.546 653.302C466.746 655.23 469.035 657.001 471.304 658.757C476.418 662.714 481.428 666.589 485.063 671.996C488.88 677.211 492.697 681.486 497.469 685.957C497.937 686.54 499.21 686.126 500.498 685.706C501.834 685.271 503.186 684.831 503.672 685.494C515.123 685.222 522.757 684.76 533.254 681.348C533.254 681.262 536.594 679.874 541.842 681.172C542.498 681.306 543.378 681.553 544.482 681.862C544.987 682.004 545.538 682.158 546.137 682.321C546.614 681.644 547.091 681.028 547.568 680.461C549.954 677.574 556.634 674.053 560.928 673.456C562.836 673.165 567.131 673.208 571.902 676.038C572.856 676.529 573.811 677.202 574.765 677.96C575.024 678.055 575.292 678.151 575.565 678.25C578.3 679.24 581.575 680.424 582.876 681.305C585.088 682.462 585.207 684.426 585.313 686.168C585.367 687.055 585.417 687.885 585.739 688.519C587.17 690.156 587.648 691.836 588.125 693.534C593.373 698.1 598.622 702.714 603.393 707.739C609.458 713.813 614.886 720.301 620.276 726.745C628.881 737.03 637.39 747.202 648.244 755.395C653.015 759.002 656.355 763.001 658.741 767.028C659.186 767.882 659.538 768.753 659.885 769.61C660.653 771.508 661.391 773.331 663.035 774.719C663.989 775.731 665.898 777.634 667.329 778.598C668.454 779.102 670.242 780.053 671.716 780.837C672.743 781.383 673.618 781.848 674.009 782.024C677.826 785.483 678.781 789.281 678.781 792.426C680.689 793.609 684.029 796.376 684.983 797.345C687.341 799.814 689.698 802.385 692.056 804.955C694.947 808.108 697.838 811.261 700.729 814.226C701.024 814.477 701.32 814.895 701.615 815.312C701.797 815.569 701.979 815.826 702.16 816.044C702.285 816.124 702.409 816.2 702.525 816.271C702.854 816.472 703.115 816.631 703.115 816.712C704.006 817.57 705.521 818.228 706.835 818.798C708.335 819.45 709.572 819.987 709.317 820.577C711.94 823.438 713.491 826.396 714.862 829.013C716.235 831.631 717.428 833.907 719.337 835.402C722.933 837.727 725.525 841.346 728.233 845.129C728.76 845.864 729.291 846.605 729.834 847.344C731.266 849.845 733.174 852.378 735.083 854.024C736.037 854.206 737.469 854.735 738.423 855.613C740.331 857.655 748.443 869.255 748.443 869.646C748.443 871.321 747.966 872.609 747.488 873.615C746.534 874.603 745.58 875.467 743.671 875.801C743.65 875.804 743.626 875.809 743.601 875.813C743.063 875.909 741.655 876.158 739.377 875.047C736.037 873.224 725.063 860.103 722.2 856.238C721.602 855.38 721.004 854.487 720.401 853.587C718.12 850.181 715.777 846.682 713.135 844.625C706.932 840.34 699.298 832.014 691.663 823.378C690.828 822.956 689.993 822.502 689.158 822.049C688.085 821.465 687.011 820.882 685.938 820.367C684.179 819.276 682.724 819.291 681.292 819.306C679.618 819.323 677.976 819.34 675.918 817.585C674.524 818.806 672.153 817.845 669.661 816.834C667.888 816.115 666.053 815.371 664.467 815.371C662.558 815.371 657.31 814.183 650.63 810.333C650.096 810.09 649.712 809.834 649.31 809.566C648.993 809.354 648.665 809.136 648.244 808.911C642.995 812.642 631.544 816.846 626.296 812.742V812.604C626.296 812.545 626.179 812.485 626.061 812.424C625.94 812.362 625.819 812.299 625.819 812.237C617.664 812.583 613.954 812.636 609.588 812.699ZM33.932 551.449C33.3718 552.155 32.8115 552.984 32.8115 553.925V554.048V554.603C32.8115 557.281 34.4923 560.312 37.8538 562.934C38.9466 563.972 40.5129 565.015 42.0909 566.066C42.9402 566.631 43.7929 567.199 44.5769 567.769C45.1457 568.125 45.7145 568.632 46.21 569.073C46.6907 569.502 47.1024 569.869 47.3782 569.976C47.3782 570.965 47.8788 571.956 48.378 572.945C48.6258 573.435 48.8732 573.925 49.059 574.414C49.059 575.041 49.059 575.747 49.6193 576.515C50.7398 578.901 54.1013 584.263 58.5834 589.014C59.9004 590.447 61.4651 592.448 63.161 594.617C65.0723 597.062 67.1503 599.72 69.2283 602.018C72.0296 604.869 74.8309 607.15 77.6322 608.45C79.3857 610.449 81.3587 612.397 83.2764 614.291C84.4223 615.423 85.5485 616.535 86.5963 617.627C89.9579 622.697 95.0002 629.723 100.603 635.689L102.844 638.423C103.964 640.687 105.085 642.939 106.205 645.119C110.127 652.441 114.049 658.929 117.971 662.593C120.212 664.985 122.453 666.386 124.694 666.913V667.002C126.935 669.563 129.176 672.061 131.977 674.527C131.977 675.289 131.977 676.006 132.537 676.499C135.339 683.58 139.821 688.606 145.423 694.18C151.301 700.33 153.591 703.096 156.162 706.2C158.247 708.718 160.516 711.458 165.032 716.406C167.449 719.262 170.281 721.905 173.172 724.602C173.632 725.032 174.095 725.463 174.557 725.897V725.986L175.117 726.547V729.006C175.117 730.194 176.238 732.228 176.798 733.124C177.358 733.679 177.918 734.267 177.918 734.878C178.479 735.673 179.039 736.531 179.039 737.438C182.961 743.825 193.045 756.672 200.889 764.448C201.677 765.203 202.466 765.911 203.197 766.568C204.023 767.311 204.776 767.988 205.371 768.589C210.974 777.687 229.462 797.929 242.908 809.908C242.908 810.245 243.299 810.668 243.754 811.16C243.844 811.257 243.937 811.357 244.029 811.46C244.175 811.612 244.322 811.788 244.489 811.987C244.959 812.55 245.589 813.304 246.83 814.272C246.83 815.141 246.83 816.093 247.951 817.09C250.192 820.536 261.957 835.142 268.68 842.156C273.162 848.454 279.325 856.768 285.488 860.886L287.169 863.11C290.53 866.92 293.332 869.956 295.573 872.371C295.573 872.816 295.989 873.477 296.464 874.229C296.539 874.349 296.616 874.471 296.693 874.595C298.374 876.091 301.175 878.876 302.296 880.282C302.856 881.139 303.416 881.974 304.537 882.803V884.383C306.718 891.318 311.551 896.895 316.456 902.554L316.862 903.023C318.262 904.905 320.098 906.696 321.962 908.513C323.083 909.606 324.214 910.709 325.266 911.847C325.755 912.975 326.669 914.295 328.008 916.229C328.205 916.513 328.412 916.812 328.628 917.125C328.895 917.381 329.162 917.769 329.429 918.157C329.722 918.582 330.016 919.007 330.309 919.259C331.429 919.948 331.989 920.279 332.55 920.425C334.23 921.203 335.351 920.946 336.471 920.441C337.592 921.539 338.712 922.649 339.833 923.769C340.013 924.04 340.194 924.396 340.393 924.788C340.812 925.614 341.315 926.604 342.074 927.31C343.195 928.873 344.315 929.798 345.436 930.19C347.677 930.902 349.918 930.745 352.159 928.795C352.393 928.842 352.529 928.884 352.65 928.921C352.817 928.972 352.954 929.014 353.279 929.047C353.279 929.652 353.839 930.212 354.4 930.722C354.96 931.495 356.08 932.997 358.882 932.997C363.364 932.997 367.846 931.753 372.328 930.291C373.241 930.023 374.123 929.749 374.989 929.479C377.845 928.589 380.524 927.755 383.533 927.428H384.093C384.093 927.422 384.093 927.417 384.654 927.411L385.774 927.377C385.774 928.711 386.334 929.854 387.455 930.806L387.516 930.877C388.057 931.502 388.637 932.17 390.256 932.386C396.419 933.221 403.142 932.022 410.426 929.915C413.97 928.891 417.514 927.658 421.059 926.425L421.061 926.425C423.118 925.709 425.176 924.993 427.233 924.318C433.165 923.738 439.679 922.424 445.748 921.199L445.75 921.198C449.997 920.341 454.027 919.527 457.487 919.041C459.168 918.811 460.849 918.609 462.53 918.413C463.09 918.811 464.771 919.304 466.451 919.035C471.905 918.244 477.358 917.381 482.999 916.487C485.472 916.095 487.981 915.698 490.542 915.298C491.103 915.842 492.223 916.352 493.344 916.699C495.025 917.158 497.826 917.41 501.187 917.371C504.549 917.332 509.591 916.985 515.194 916.508C515.754 916.99 516.875 917.343 517.995 917.427C518.555 917.472 523.598 917.562 525.278 917.399C529.392 917.045 533.506 916.666 537.554 916.293L537.566 916.292C541.784 915.903 545.93 915.521 549.93 915.181C557.773 914.576 561.135 913.864 561.135 913.718C564.497 912.357 565.057 909.567 565.057 908.687C565.057 908.144 565.057 907.6 564.497 907.074C567.298 906.317 570.099 905.634 572.9 905.073C579.119 903.858 585.338 904.216 591.461 904.568C596.371 904.851 601.219 905.13 605.956 904.592C607.47 904.44 608.728 904.273 610.076 904.095C610.723 904.009 611.391 903.921 612.118 903.83C619.402 904.115 626.125 904.244 633.408 903.477C640.131 902.704 646.854 901.37 652.457 899.376C653.017 899.331 655.258 898.95 655.258 898.883C659.74 897.74 659.74 894.21 659.74 893.392C659.74 892.983 659.18 887.728 653.578 887.728C643.001 887.728 632.106 889.398 621.373 891.044C617.893 891.578 614.428 892.109 610.998 892.58C609.366 892.518 607.733 892.449 606.103 892.38L606.091 892.38C596.533 891.974 587.033 891.572 577.943 892.787C574.6 893.222 571.457 893.207 568.276 893.193C566.125 893.183 563.955 893.174 561.695 893.302C561.695 893.307 561.584 893.312 561.461 893.317C561.422 893.318 561.383 893.32 561.346 893.321C561.232 893.325 561.135 893.328 561.135 893.33C561.135 889.829 558.894 888.187 556.653 887.403C555.532 887.095 554.412 886.949 553.291 887.257C551.842 887.518 549.976 888.446 548.771 889.045C548.579 889.14 548.403 889.227 548.249 889.302C547.456 889.647 546.168 890.25 544.565 891.001L544.56 891.003C540.5 892.905 534.419 895.753 529.2 897.756L528.64 897.908C528.08 897 526.399 896.098 524.718 895.969C524.158 895.952 523.598 895.975 523.037 896.031C522.477 894.417 521.917 893.174 521.357 892.434C520.236 891.067 519.116 890.4 517.435 890.182C516.314 889.98 514.634 890.059 512.392 891.487C512.392 891.39 512.228 891.301 512.078 891.22C511.95 891.151 511.832 891.087 511.832 891.028C510.151 890.322 508.471 890.204 506.79 890.512C505.669 890.708 504.549 891.117 503.428 891.627C503.428 891.717 503.428 891.807 502.868 891.896C502.691 891.62 502.514 891.324 502.337 891.028C501.954 890.387 501.571 889.745 501.187 889.308C499.507 887.397 497.266 886.058 493.904 886.058C492.783 886.058 490.542 886.641 488.862 888.288C488.862 888.628 488.452 889.104 487.982 889.648C487.903 889.74 487.822 889.834 487.741 889.93C485.5 889.913 483.259 889.907 480.458 889.958C478.217 890.014 474.855 890.383 471.494 890.876C470.373 888.972 468.132 887.347 464.21 887.089C462.53 886.983 460.288 887.072 457.487 887.291V887.179L457.445 887.158C456.899 886.89 456.339 886.616 455.246 886.495C454.686 886.411 453.005 886.574 452.445 886.647C452.132 886.676 451.831 886.704 451.537 886.731C449.724 886.9 448.211 887.041 446.282 887.162C445.162 886.803 444.041 886.523 442.921 886.602C440.679 886.708 436.197 887.156 431.155 887.722C428.914 887.694 426.113 887.638 423.311 887.577C422.751 886.092 421.631 883.19 417.149 882.753C412.667 882.254 395.859 884.299 384.654 887.1C383.322 887.423 382.189 887.762 381.018 888.112L381.015 888.113C380.216 888.351 379.399 888.595 378.491 888.843C375.129 888.518 371.768 888.288 368.406 888.288C365.605 888.288 360.002 889.549 360.002 889.549C358.882 889.756 358.322 890.165 357.761 890.731L357.322 890.223L357.321 890.222C354.614 887.097 351.482 883.482 349.357 881.447C348.981 881.018 348.351 880.647 347.808 880.327C347.544 880.171 347.3 880.028 347.116 879.895C346.864 879.696 346.726 879.503 346.598 879.325C346.443 879.108 346.304 878.915 345.996 878.764C344.875 877.722 343.755 877.279 343.195 877.094V877.055C341.691 874.819 340.188 872.996 338.347 870.764C337.443 869.668 336.458 868.473 335.351 867.082C334.476 865.878 333.327 864.137 331.99 862.11C329.049 857.651 325.197 851.811 321.344 847.277C317.983 842.84 314.061 838.195 309.579 834.257C310.139 833.097 310.139 831.618 309.579 829.836C308.613 827.609 300.979 818.981 298.538 816.221L298.533 816.216C298.146 815.778 297.89 815.49 297.814 815.398C288.849 806.137 279.325 796.742 269.24 788.349C269.24 788.291 269.093 788.234 268.949 788.178C268.813 788.125 268.68 788.073 268.68 788.024C264.705 783.615 260.926 779.279 257.112 774.902L257.107 774.896C254.471 771.871 251.818 768.827 249.071 765.726L247.951 764.448L247.902 764.291C246.797 760.74 245.677 757.137 243.469 753.731C235.986 740.323 226.162 729.344 215.951 717.932C213.928 715.672 211.891 713.394 209.853 711.078C207.623 708.706 205.532 706.347 203.441 703.99C201.33 701.609 199.219 699.229 196.967 696.836L195.286 693.878C193.088 690.79 190.352 688.311 187.605 685.822L187.443 685.676C186.433 684.235 185.31 682.781 184.176 681.313L184.175 681.312C182.791 679.521 181.391 677.709 180.159 675.871C179.021 674.343 178.074 673.062 177.254 671.954C172.832 665.976 172.122 665.016 165.032 657.17C164.583 656.648 164.133 655.92 163.683 655.193C163.573 655.014 163.462 654.835 163.352 654.66L161.671 652.436C160.55 650.99 158.87 650.211 157.189 650.189L152.147 643.539C150.518 641.471 148.669 638.869 146.651 636.03C143.113 631.055 139.06 625.352 134.779 620.529C133.658 619.162 132.537 617.867 130.857 616.669C130.296 615.122 129.176 613.671 128.055 612.702C127.059 611.332 125.619 610.533 124.918 610.144C124.858 610.111 124.803 610.08 124.754 610.053C124.733 610.041 124.713 610.029 124.694 610.018C124.134 609.805 123.573 609.676 123.013 609.62V609.553C122.316 608.498 121.588 607.386 120.832 606.232C113.691 595.332 104.066 580.637 94.4399 573.904C92.7591 571.618 91.0784 569.461 89.3976 567.517C85.4758 559.886 80.4335 553.141 73.7104 549.421C67.5475 546.3 60.2642 545.107 51.3 547.437C49.0422 548.002 47.5123 547.329 46.4169 546.847C46.1533 546.731 45.9148 546.626 45.6975 546.552C43.4564 545.902 40.6551 545.644 36.1731 547.863C35.0526 548.418 33.932 549.964 33.932 551.449ZM66.427 558.85C66.7229 559.036 66.8625 559.235 67.0109 559.446C67.1435 559.635 67.2831 559.834 67.5475 560.043C68.8414 563 70.6955 566.688 72.6785 570.633C74.1302 573.521 75.6512 576.547 77.0719 579.523C77.6342 580.097 78.0554 580.673 78.4771 581.25C78.8958 581.823 79.315 582.397 79.8732 582.969C80.4335 581.977 81.554 581.215 82.6745 580.969C78.1924 574.761 73.7104 569.164 72.0296 567.069C71.4693 566.396 71.4693 565.993 71.4693 565.92C69.7886 564.127 69.7886 562.503 70.3488 561.141C69.2283 560.211 68.1078 559.432 66.427 558.85ZM59.7039 557.617C58.0231 557.64 55.7821 557.903 53.5411 558.43C52.9808 558.631 52.4206 558.771 51.3 558.867C52.4206 559.421 52.9808 559.981 53.5411 560.542C53.7741 560.285 54.0071 560.067 54.1997 559.886C54.4704 559.632 54.6616 559.453 54.6616 559.348C54.795 559.312 54.9918 559.216 55.2446 559.093C56.0538 558.698 57.4361 558.024 59.1437 558.144C59.1437 557.948 59.1437 557.768 59.7039 557.617ZM1093.68 637.059C1093.11 637.437 1092.48 637.846 1091.8 638.284C1087.23 641.263 1080.64 645.55 1075.75 650.191C1072.39 652.197 1068.47 654.629 1065.11 657.166C1063.49 658.431 1060.97 660.101 1058.11 662C1055.01 664.056 1055.04 670.397 1051.84 672.768C1047.92 675.872 1044.55 679.132 1042.31 682.04C1041.75 682.337 1041.19 682.74 1040.63 683.267L1038.95 684.785C1038.39 683.951 1037.27 683.379 1035.03 683.278C1034.47 683.245 1033.35 683.318 1032.23 683.867C1030.55 684.595 1026.63 686.595 1025.51 687.721C1023.77 689.021 1022.34 690.467 1020.89 691.923C1019.54 693.292 1018.17 694.67 1016.54 695.94C1014.71 697.521 1012.21 699.303 1009.49 701.252C1005.55 704.063 1001.13 707.222 997.492 710.63C994.131 713.146 991.89 715.818 989.648 718.575C984.606 721.723 980.124 725.41 977.323 729.461C976.202 731.214 976.202 732.559 976.202 733.125V733.803C975.082 734.301 973.961 734.856 972.841 735.467C968.359 736.951 963.316 739.439 958.274 742.498C952.352 746.341 946.623 751.068 941.427 755.356C937.776 758.369 934.388 761.165 931.382 763.283C926.9 766.454 922.418 769.766 918.496 773.323C914.574 775.475 909.532 778.349 906.17 781.486C903.929 783.766 902.248 786.26 901.688 788.758C900.952 789.3 899.973 789.889 898.912 790.529C898.358 790.863 897.782 791.21 897.206 791.571L894.405 793.644C894.179 793.781 893.863 793.927 893.53 794.081C893.034 794.309 892.498 794.556 892.164 794.82C880.958 800.989 856.307 817.32 844.542 826.492C843.833 827.314 842.9 828.1 842.027 828.836L842.026 828.837C841.518 829.265 841.031 829.675 840.62 830.066C839.877 830.525 839.135 830.981 838.397 831.434L838.384 831.442C831.89 835.433 825.766 839.197 823.252 841.927C822.131 842.667 822.131 843.328 822.131 843.72C821.011 845.933 821.571 847.642 822.131 848.846C822.692 849.933 823.812 850.908 825.493 851.401C825.493 851.474 828.294 851.995 831.095 850.432V850.258C831.656 850.505 832.216 850.701 832.776 850.841C835.578 851.704 838.939 849.956 839.499 846.947C839.499 846.696 839.619 846.371 839.747 846.022C839.897 845.613 840.06 845.171 840.06 844.773C841.407 844.158 842.034 843.6 842.519 843.169C842.639 843.063 842.75 842.964 842.861 842.874C843.981 842.829 844.542 842.588 845.662 842.095C846.222 841.804 847.343 841.171 847.903 840.017C848.313 839.721 848.724 839.18 849.134 838.638C849.246 838.489 849.359 838.34 849.472 838.197C849.509 838.149 849.547 838.102 849.584 838.056C853.207 835.728 857.197 833.37 860.961 831.146L860.963 831.145C861.854 830.618 862.733 830.099 863.59 829.59C865.271 828.313 866.952 827.075 868.633 825.92C869.193 825.926 870.314 825.724 871.434 825.209C871.434 825.035 873.675 823.399 874.796 822.71V822.436C875.916 823.198 878.157 823.876 880.398 822.464C880.958 822.262 883.199 820.374 883.76 819.707C885.898 818.186 887.936 816.648 889.959 815.122L889.961 815.12C892.706 813.048 895.424 810.998 898.326 809.04L898.887 808.81C899.74 808.35 900.737 807.869 901.732 807.389L901.734 807.388C902.699 806.923 903.662 806.458 904.489 806.014C905.61 805.056 906.73 803.953 907.291 803.045V802.855C907.493 802.917 907.678 802.978 907.85 803.034C908.632 803.289 909.174 803.465 910.092 803.465C910.652 803.46 911.773 803.376 912.893 802.877C914.574 802.233 918.496 800.322 924.659 796.854C931.382 792.916 938.105 788.758 942.587 782.416C943.307 781.793 943.564 781.203 943.805 780.651C943.939 780.344 944.067 780.049 944.268 779.766C944.828 779.778 945.388 779.721 945.948 779.553C948.189 779.144 951.551 777.783 952.672 776.987C954.913 775.884 957.154 774.763 958.834 773.564C959.955 773.525 961.075 773.323 962.756 772.92C970.039 770.561 985.166 760.146 994.131 753.031C995.251 752.532 996.372 752.011 996.932 751.462C997.492 751.793 998.052 752.05 999.173 752.224C1000.29 752.498 1001.41 752.549 1003.65 751.989C1005.24 751.423 1007.94 749.927 1010.18 748.687L1010.18 748.686C1011.11 748.17 1011.96 747.698 1012.62 747.355C1015.08 746.084 1017.87 744.868 1020.8 743.593C1024.52 741.969 1028.46 740.25 1032.23 738.201C1036.15 735.623 1040.07 732.525 1042.87 728.693C1043.29 728.461 1043.69 728.235 1044.08 728.018L1044.77 727.633C1046.68 726.572 1048.18 725.735 1049.04 725.236C1050.16 724.172 1051.84 723.102 1053.52 722.048C1054.08 722.048 1055.2 721.931 1055.76 721.656C1056.21 721.53 1057.03 721.011 1058.2 720.26L1058.56 720.037C1058.74 719.922 1058.92 719.802 1059.12 719.678C1060.14 719.32 1060.95 718.938 1061.8 718.537C1062.36 718.274 1062.94 718.003 1063.6 717.723C1064.43 717.272 1065.32 716.8 1066.23 716.309L1066.24 716.303C1068.41 715.143 1070.77 713.879 1073.13 712.546C1080.97 709.134 1088.81 704.529 1095.54 699.705L1095.67 699.62C1097.01 698.774 1106.41 692.813 1111.22 688.321C1113.47 687.671 1115.71 686.802 1117.95 685.732C1121.31 684.051 1125.23 681.923 1128.59 679.665C1129.71 679.866 1130.27 679.934 1131.39 679.816C1133.07 679.631 1135.32 678.813 1138.12 677.407C1142.6 675.323 1147.64 671.922 1152.12 668.807C1158.85 665.815 1164.45 662.537 1164.45 662.537C1167.25 661.148 1174.56 657.859 1174 655.215C1173.44 655.125 1178.31 652.285 1172 652C1173.12 651.003 1167.81 653.019 1167.81 651.657C1167.81 649.629 1167.25 648.29 1166.13 647.349C1165.57 646.486 1166.72 638.934 1165.6 638.632C1164.48 638.407 1163.36 638.357 1161.68 638.805C1161.12 638.951 1160.56 639.203 1160 639.5C1164.68 637.021 1159.15 638.649 1158.72 638.02C1158.59 637.824 1158.45 637.628 1158.32 637.444C1157.82 636.897 1157.37 636.342 1156.93 635.794C1155.88 634.489 1156.08 636.03 1154.5 635C1153.75 634.337 1157.19 624.302 1151 630.62C1146.38 626.645 1140.8 624.77 1138 620C1138 619.098 1134.76 619.851 1134.2 618.949C1133.63 616.932 1132.18 613.307 1130.5 612.5C1128.26 611.492 1125.79 613.616 1121.87 615.963C1118.06 618.516 1108.91 620.891 1105 625.345C1103.15 627.45 1101.68 629.122 1100.96 629.753C1100.27 630.655 1098.73 631.96 1097.25 633.208C1091.8 632.922 1095.44 634.735 1094.8 635.356C1094.53 635.644 1094.39 635.928 1094.25 636.207C1094.1 636.497 1093.96 636.782 1093.68 637.059ZM1125.79 629.359C1125.79 630.16 1125.79 631.18 1125.23 632.401C1125.23 632.715 1125.23 633.347 1124.67 634.137C1124.69 634.121 1125.23 634.116 1125.23 634.121V634.127C1125.23 632.732 1125.79 631.74 1126.91 631.001L1126.35 630.62C1126.35 630.502 1126.21 630.386 1126.07 630.269C1125.93 630.153 1125.79 630.037 1125.79 629.919V629.359Z" fill="#FFEAD1"/>
<path fill-rule="evenodd" clip-rule="evenodd" d="M22.7863 593.176C18.3042 593.417 14.3824 593.781 11.5811 594.347C16.0632 600.767 25.5876 612.942 38.4735 629.128C114.669 723.167 308.518 951.54 328.687 975.267L332.206 974.651L332.226 974.648L332.231 974.647L332.243 974.645C344.354 972.524 373.326 967.451 409.925 961.104C421.13 959.143 432.895 957.093 445.221 954.969L448.622 954.393L448.623 954.393L448.626 954.393C506.692 944.56 573.94 933.173 623.943 923.942C661.481 917.129 689.493 911.571 697.897 908.843C699.018 908.529 700.138 909.045 700.138 909.992C700.699 910.933 700.138 911.958 699.018 912.277C685.572 916.933 621.702 930.049 551.11 943.803C505.729 952.599 457.547 961.771 417.208 969.043C365.664 978.399 328.127 984.753 328.127 984.753C326.446 985.027 324.765 984.439 323.645 983.206C323.645 983.206 111.867 734.188 31.7504 634.893C17.744 617.805 7.65932 605.115 3.17726 598.84C2.08409 597.31 1.46492 596.071 1.01145 595.163L1.01131 595.163C0.767628 594.675 0.571804 594.284 0.375958 593.994C-0.662594 591.21 0.705255 589.472 1.35703 588.643L1.35717 588.643L1.3573 588.643C1.40866 588.578 1.45556 588.518 1.49648 588.464L1.5541 588.424C2.65571 587.664 3.77593 586.891 5.97853 586.301C8.21956 585.416 12.7016 584.772 17.744 584.357C26.1245 583.631 36.6814 583.558 43.4462 583.605C31.8507 568.704 23.5914 557.801 20.4298 552.512C18.749 549.739 18.749 547.722 18.749 546.853C18.749 545.492 18.749 544.058 20.4298 542.831C21.5503 541.99 23.7914 540.881 27.7132 540.36C36.9624 539.154 55.49 539.029 66.1549 539.069C58.4405 529.261 52.1261 521.095 47.5728 515.005C43.0907 508.758 40.2894 504.522 39.1689 502.769C38.3279 500.91 38.7494 499.455 39.012 498.549C39.0992 498.248 39.1689 498.007 39.1689 497.833C39.2834 497.699 39.3979 497.542 39.522 497.372C40.005 496.712 40.6329 495.852 41.9702 495.362C43.0907 495.121 46.4523 494.785 52.0549 494.673C94.5554 493.833 283.088 496.973 326.961 497.725C256.832 417.491 186.201 335.699 161.38 306.849C157.764 302.297 155.012 299.047 153.538 297.306L153.538 297.306C152.957 296.619 152.574 296.167 152.416 295.963C149.931 292.996 151.855 290.297 152.321 289.644L152.321 289.644C152.38 289.561 152.416 289.511 152.416 289.498C152.416 289.492 155.217 287.284 158.579 288.831C163.621 290.859 189.393 300.96 224.689 299.991C235.914 299.68 245.394 298.751 254.339 297.874C276.648 295.687 295.626 293.827 330.018 302.697C335.62 304.221 344.024 308.927 353.549 316.468C374.838 332.957 405.653 363.25 439.828 400.25C456.758 418.615 474.651 438.641 492.865 459.442C523.695 434.934 742.905 260.749 792.357 223.561C796.839 219.864 800.201 217.477 801.881 216.648C803.002 215.819 804.122 215.679 804.683 215.645C805.243 215.595 806.364 215.566 808.044 216.519C808.347 216.834 809.142 217.495 810.34 218.492C811.357 219.337 812.664 220.424 814.207 221.746C845.582 250.588 993.49 400.94 1084.81 497.814C1119.55 534.858 1146.44 564.127 1155.4 575.875C1157.65 578.839 1158.77 580.996 1159.33 582.094C1159.89 583.394 1159.89 584.43 1159.33 585.142C1159.33 585.652 1159.33 586.436 1158.77 587.355C1158.31 587.711 1157.85 588.202 1157.27 588.818C1156.44 589.702 1155.38 590.842 1153.72 592.207C1149.9 595.574 1143.79 600.641 1135.82 607.087C1146.03 616.75 1174.38 643.776 1180.33 651.515C1181.45 653.42 1182.01 654.988 1182.01 655.756C1182.01 657.168 1182.01 658.244 1181.45 659.067C1181.15 659.2 1180.85 659.459 1180.46 659.793C1180.12 660.08 1179.73 660.422 1179.21 660.787L1178.87 660.996L1178.65 661.136L1178.65 661.137L1178.64 661.137C1176.73 662.327 1173 664.647 1167.44 667.914C1162.95 670.468 1157.36 673.618 1150.82 677.278C1156.7 682.797 1184.04 708.549 1194.51 720.159C1196.75 722.893 1198.43 725.044 1198.99 726.159C1200.12 728.663 1199.56 730.484 1198.43 731.425C1198.43 731.773 1197.87 732.378 1196.75 733.039C1196.06 733.503 1194.93 734.177 1193.49 735.03L1193.49 735.033L1193.49 735.035C1192.62 735.551 1191.65 736.132 1190.59 736.77C1178.83 742.715 1154.17 754.251 1126.16 765.797C1110.47 772.268 1094.23 778.745 1077.98 784.247C1079.1 793.894 1077.98 804.31 1074.06 813.464C1074.06 814.165 1072.94 814.512 1072.38 814.237C1071.82 813.969 1071.26 813.179 1071.82 812.484C1074.62 803.957 1075.18 794.472 1074.06 785.743C1071.83 786.45 1069.7 787.139 1067.63 787.807L1067.6 787.815L1067.6 787.817L1067.59 787.818C1062.38 789.5 1057.57 791.051 1052.77 792.432C1046.04 794.354 1040.44 792.936 1037.08 789.9C1031.48 785.513 1029.24 777.081 1030.36 768.957C1032.04 757.153 1041.56 746.278 1057.25 750.917C1065.65 753.466 1072.38 761.797 1075.74 772.89C1076.3 773.624 1076.3 774.375 1076.3 775.131C1091.99 769.786 1107.67 763.556 1122.8 757.338C1150.25 745.914 1174.9 734.513 1186.11 728.635C1186.39 728.423 1186.82 728.205 1187.24 727.988C1187.66 727.775 1188.07 727.563 1188.35 727.358C1188.35 727.179 1188.21 726.998 1188.07 726.817C1187.93 726.637 1187.79 726.456 1187.79 726.277C1176.02 713.408 1142.97 682.935 1142.97 682.935C1142.7 682.662 1142.48 682.359 1142.3 682.035C1038.8 739.7 757.894 892.774 757.894 892.774C757.536 892.975 757.163 893.123 756.786 893.219C756.037 893.994 755.029 894.53 753.808 894.674L753.225 894.748L751.51 894.968C750.753 895.687 749.718 896.121 748.456 896.121L742.468 896.122C684.199 903.547 418.765 937.189 356.024 941.87C349.301 942.369 344.819 942.52 342.578 942.341C341.458 942.206 340.337 941.78 339.777 941.5C339.217 941.226 336.415 938.363 331.933 933.063C295.517 891.435 124.638 687.4 52.3645 595.024C51.7802 594.278 51.2016 593.539 50.629 592.807C50.328 592.855 50.0112 592.876 49.6787 592.868C49.6787 592.868 35.112 592.464 22.7863 593.176ZM819.413 848.404C921.785 792.53 1112.3 688.352 1162.4 659.627C1164.36 658.551 1166.14 657.53 1167.72 656.619C1168.84 655.97 1169.87 655.377 1170.8 654.86C1161.99 644.974 1136.66 621.124 1128.21 613.211C1113.45 625.023 1094.08 640.248 1071.93 657.488C996.051 716.192 887.265 798.325 819.413 848.404ZM673.75 674.784L673.743 674.777L673.737 674.769C631.258 623.005 563.711 540.693 499.236 466.734C530.791 441.611 748.622 268.257 797.96 231.181C799.173 230.305 800.28 229.484 801.283 228.741L801.289 228.737C802.6 227.765 803.731 226.927 804.683 226.273C805.991 227.56 808.153 229.564 810.886 232.095L810.894 232.103L810.911 232.119L810.916 232.123C814.031 235.008 817.883 238.577 822.051 242.549C871.354 290.199 996.851 418.381 1078.09 504.364C1114.51 543.369 1142.52 573.567 1149.24 583.394C1148.76 583.845 1148.27 584.351 1147.79 584.856L1147.56 585.091C1136.36 594.89 1105.54 619.183 1065.76 649.941C972.76 721.907 830.455 829.118 774.989 869.121C770.621 872.172 766.563 874.948 763.157 877.268C767.473 837.366 755.606 765.928 709.313 717.883C701.906 709.095 689.575 694.07 673.772 674.812L673.756 674.792L673.755 674.791L673.75 674.784ZM754.146 871.047C756.945 834.665 745.988 775.869 709.313 732.736C708.822 731.833 707.472 730.346 705.639 728.327L705.638 728.326L705.636 728.323L705.634 728.321L705.598 728.282L705.571 728.253C705.332 727.989 705.085 727.717 704.831 727.436C678.712 699.243 640.886 678.903 587.718 678.112C591.987 683.59 603.492 697.807 605.463 700.093C613.524 707.971 621.214 716.112 628.853 724.199C634.487 730.163 640.094 736.099 645.801 741.877C663.239 759.5 730.743 837.33 754.146 871.047ZM576.664 678.225C574.041 678.316 571.382 678.453 568.688 678.637C564.466 678.927 557.014 680.418 548.437 682.133L548.436 682.134C538.801 684.061 527.749 686.271 518.265 687.383C509.861 688.391 502.577 688.408 498.655 686.979C497.535 686.75 496.414 685.909 494.173 684.139C489.131 679.707 477.926 667.869 462.799 650.921C431.987 617.257 384.291 563.254 335.441 507.423C332.947 507.379 285.972 506.552 230.407 505.731C261.505 542.086 458.332 771.913 498.551 812.05C500.232 813.557 502.473 814.415 505.835 815.115C512.558 816.465 520.962 816.751 531.046 816.482C545.287 816.107 562.171 814.637 579.429 813.136L579.431 813.136C612.417 810.265 646.767 807.276 666.629 811.58C677.274 813.893 690.72 823.636 704.727 835.76C713.593 843.512 722.459 852.209 730.652 860.247L730.654 860.249L730.655 860.251L730.659 860.254C735.319 864.826 739.762 869.184 743.862 873.032C719.963 838.735 656.097 765.536 639.078 748.629C631.986 741.735 625.324 734.617 618.657 727.493C612.158 720.548 605.654 713.598 598.74 706.844C595.938 703.701 579.131 683.807 577.45 680.07C577.032 679.405 576.787 678.788 576.664 678.225ZM52.0549 504.214C76.9274 503.722 151.666 504.594 218.158 505.552C218.321 506.1 218.591 506.622 218.983 507.09C218.983 507.09 448.128 775.112 491.828 818.796C494.63 821.323 498.551 823.283 504.154 824.454C510.877 825.917 520.402 826.314 531.607 826.023C545.574 825.651 562.227 824.15 579.266 822.614L579.267 822.614C611.437 819.715 644.976 816.692 664.388 820.908C673.912 822.975 686.238 832.079 698.564 842.926C707.206 850.561 715.956 859.097 724.097 867.038L724.097 867.039C731.58 874.339 738.547 881.135 744.439 886.265L742.008 886.575C737.069 886.575 731.798 886.576 726.234 886.577L724.288 886.577L723.933 886.577H723.933H723.919C631.811 886.592 463.156 886.619 392.692 885.348C378.125 885.09 365.799 884.451 362.438 884.272C361.317 882.899 358.516 879.807 355.155 876.103C309.774 823.4 99.1165 568.431 55.4164 509.318C54.7456 508.248 53.8741 507.19 53.0422 506.181L53.0418 506.18C52.4841 505.503 51.9443 504.848 51.4946 504.225L52.0549 504.214ZM341.858 929.963L341.858 929.963L341.858 929.962C341.087 929.018 340.206 927.94 339.217 926.782C302.8 885.211 131.921 681.405 59.6479 589.136C45.0812 570.575 34.4363 556.658 29.9542 549.643C41.9051 548.147 69.7587 548.597 73.7381 548.671C145.635 639.379 308.609 836.674 347.871 882.339C353.474 888.883 357.396 892.496 357.956 892.849C357.956 893.062 358.516 893.421 360.197 893.623C361.317 893.858 364.679 894.093 369.161 894.289C407.664 895.86 557.411 896.097 666.463 896.124C581.379 906.797 454.579 922.425 387.399 929.365C366.669 931.511 348.181 932.57 344.259 932.794C343.633 932.137 342.833 931.157 341.858 929.963ZM469.522 644.489C394.447 561.935 217.406 356.975 170.904 302.972C183.23 306.462 202.279 310.149 224.689 309.532C235.943 309.223 245.392 308.27 254.281 307.374C275.927 305.191 294.252 303.344 327.216 311.93C334.5 313.718 344.584 320.85 357.47 331.724C377.64 348.913 403.972 375.397 432.545 406.726C510.063 490.241 606.677 608.003 663.336 677.064L663.337 677.065L663.338 677.066L663.452 677.205C667.357 681.965 671.072 686.493 674.577 690.761C647.124 674.951 611.828 666.121 568.128 669.113C563.661 669.419 555.562 671.02 546.416 672.829L546.415 672.829C539.499 674.197 531.983 675.683 524.988 676.816C515.463 678.363 506.499 679.427 502.017 678.049C498.095 675.253 486.33 662.978 469.522 644.489ZM1071.82 776.807C1068.45 767.204 1062.85 759.668 1055.57 758.038C1045.48 755.696 1040.44 762.895 1039.32 770.308C1038.76 775.804 1039.88 781.815 1044.36 783.647C1045.48 784.303 1047.73 784.292 1049.97 783.625C1056.69 781.664 1063.97 779.356 1071.82 776.807ZM732.849 464.466C748.609 452.02 760.035 443.693 760.353 443.541C761.523 442.925 762.974 443.374 763.591 444.544C764.208 445.715 763.759 447.166 762.588 447.782C762.508 447.829 761.716 448.554 760.312 449.84C756.838 453.022 749.615 459.638 740.13 467.917C732.436 474.632 723.246 482.373 713.589 490.509C711.56 492.218 709.511 493.945 707.45 495.683C700.192 501.804 692.753 508.015 685.526 514.031C683.558 515.669 681.611 517.299 679.688 518.908L679.678 518.917C674.438 523.302 669.375 527.539 664.554 531.394C650.702 542.465 639.372 550.99 634.607 554.575L634.606 554.575C633.315 555.547 632.505 556.156 632.259 556.354C631.173 557.297 629.526 557.181 628.583 556.095C627.64 555.009 627.756 553.362 628.842 552.418C628.889 552.374 628.958 552.309 629.047 552.225L629.088 552.188L629.088 552.187C631.221 550.188 643.677 538.517 660.556 523.931C668.612 516.969 677.761 509.452 687.075 501.798L687.086 501.789C689.139 500.102 691.2 498.409 693.259 496.713L696.47 494.068C709.369 483.443 722.101 472.955 732.849 464.466ZM742.14 532.812C741.814 532.958 734.814 537.588 725.321 544.777C718.894 549.644 711.368 555.767 703.736 561.976L703.55 562.127C702.946 562.619 702.342 563.11 701.738 563.602C700.522 564.591 699.304 565.578 698.09 566.561L698.066 566.581L698.063 566.584C692.531 571.067 687.094 575.472 682.375 579.637C673.372 587.581 666.692 594.259 664.572 596.377L664.572 596.378L664.552 596.397C664.299 596.65 664.113 596.836 663.998 596.949C662.912 597.893 662.796 599.54 663.739 600.626C664.682 601.712 666.33 601.828 667.416 600.885C667.69 600.676 668.355 600.21 669.346 599.517L669.349 599.515C672.536 597.285 679.091 592.697 686.891 586.665C689.779 584.431 692.773 581.928 695.872 579.338L695.872 579.337C697.009 578.387 698.159 577.426 699.323 576.461C703.602 572.918 708.002 569.256 712.281 565.631C713.496 564.602 714.705 563.58 715.902 562.569L715.904 562.567C721.601 557.752 727.022 553.17 731.513 549.142C736.954 544.261 741.029 540.288 743.023 538.343C743.831 537.556 744.297 537.101 744.375 537.053C745.546 536.436 745.995 534.985 745.378 533.814C744.762 532.644 743.31 532.194 742.14 532.812ZM584.173 681.369C583.963 681.592 583.674 681.776 583.336 681.914C583.674 681.772 583.963 681.586 584.173 681.369ZM583.336 681.914C582.772 682.143 582.072 682.248 581.372 682.199C582.072 682.265 582.772 682.15 583.336 681.914Z" fill="#232221"/>
</g>
<defs>
<clipPath id="clip0">
<rect width="1200" height="1200" fill="white"/>
</clipPath>
</defs>
</svg>
