<svg width="160" height="160" viewBox="0 0 160 160" fill="none" xmlns="http://www.w3.org/2000/svg">
<path d="M131.568 96.5258C131.499 96.5726 131.363 96.7775 131.285 96.9004C131.119 97.0799 131.06 97.3219 131.099 97.5541C131.031 97.6761 130.973 97.7873 130.963 97.8204C130.817 98.1834 130.709 98.5609 130.631 98.9414C130.543 99.1004 130.465 99.2536 130.407 99.436C130.27 99.8506 130.163 100.27 130.163 100.708C130.163 100.844 130.19 100.922 130.201 100.953L130.202 100.957C130.174 101.002 130.135 101.057 130.094 101.114C130.023 101.214 129.946 101.323 129.909 101.404C129.831 101.592 129.812 101.762 129.831 101.889C129.851 102.073 129.919 102.226 130.036 102.352C130.153 102.48 130.319 102.606 130.612 102.626C130.924 102.649 131.178 102.53 131.373 102.292C131.38 102.294 131.385 102.297 131.391 102.299C131.4 102.304 131.409 102.307 131.421 102.311L131.46 102.328C131.451 102.591 131.578 102.775 131.695 102.888C131.743 102.939 131.802 102.981 131.851 103.015C131.948 103.314 132.241 103.477 132.26 103.487C132.299 103.51 132.612 103.657 132.924 103.517C133.002 103.552 133.09 103.575 133.178 103.586C133.178 103.587 133.314 103.618 133.49 103.575C133.47 103.642 133.47 103.697 133.47 103.737L133.47 103.737C133.47 104.118 133.685 104.307 133.851 104.408C133.987 104.497 134.173 104.549 134.387 104.511L134.391 104.51C134.471 104.498 134.634 104.471 134.807 104.295C134.943 104.438 135.129 104.505 135.333 104.511C135.49 104.516 135.626 104.49 135.753 104.435C135.812 104.52 135.87 104.577 135.899 104.604C135.919 104.627 136.124 104.808 136.407 104.822C136.483 104.91 136.56 104.965 136.585 104.983C136.588 104.985 136.591 104.987 136.592 104.988C136.641 105.019 136.904 105.173 137.197 105.093C137.275 105.24 137.392 105.363 137.568 105.453C137.626 105.482 137.695 105.505 137.763 105.52L137.763 105.521C137.783 105.553 137.802 105.585 137.831 105.618C138.085 105.963 138.582 106.032 138.924 105.775C139.265 105.516 139.334 105.026 139.08 104.682C139.042 104.63 139.021 104.582 139 104.535C138.988 104.509 138.977 104.483 138.963 104.457L138.959 104.449C138.921 104.378 138.882 104.304 138.817 104.227C138.826 104.184 138.836 104.141 138.845 104.098C138.872 103.969 138.899 103.84 138.943 103.711C138.998 103.536 139.064 103.363 139.131 103.191C139.232 102.93 139.333 102.668 139.392 102.395C139.421 102.278 139.451 102.059 139.441 101.931C139.431 101.755 139.373 101.617 139.304 101.516C139.217 101.392 139.119 101.29 138.992 101.225C138.943 101.178 138.885 101.137 138.817 101.101C138.573 100.958 138.29 100.936 137.997 101.057C137.929 101.003 137.851 100.958 137.763 100.924C137.757 100.922 137.75 100.919 137.744 100.917C137.731 100.912 137.717 100.907 137.704 100.903C137.704 100.889 137.702 100.875 137.699 100.862C137.697 100.85 137.695 100.839 137.695 100.827C137.636 100.619 137.519 100.469 137.353 100.364C137.207 100.267 137.002 100.177 136.69 100.251C136.641 100.262 136.582 100.283 136.524 100.31C136.426 100.23 136.319 100.173 136.192 100.143C136.085 99.9287 135.89 99.7941 135.617 99.7356L135.587 99.7297C135.509 99.5853 135.402 99.4819 135.265 99.4078C135.138 99.3443 134.963 99.2789 134.729 99.3277C134.729 99.2029 134.709 99.0946 134.69 99.0097C134.582 98.6634 134.348 98.4878 134.007 98.4487C133.948 98.4409 133.851 98.4399 133.753 98.4614L133.755 98.4445C133.774 98.2953 133.792 98.1498 133.792 98.0107C133.792 97.8029 133.724 97.6536 133.646 97.5424C133.529 97.3746 133.363 97.2624 133.148 97.2195C133.07 97.2038 132.973 97.197 132.865 97.2136C132.856 96.9551 132.748 96.757 132.612 96.6214C132.456 96.4644 132.29 96.4087 132.153 96.3872C131.948 96.3589 131.753 96.397 131.568 96.5258Z" fill="#FFEAD1"/>
<path fill-rule="evenodd" clip-rule="evenodd" d="M92.7418 95.24C92.732 95.002 92.8202 94.7639 93.0055 94.6C93.0055 94.6 93.4932 94.2342 93.8054 94.1981C94.1079 94.163 94.3515 94.2586 94.5467 94.4478L94.5566 94.4654L94.576 94.4683C94.9077 94.5386 95.2005 94.684 95.3858 94.8693C95.6102 95.0918 95.5613 95.4586 95.4735 95.7464C95.4735 95.84 95.4445 95.9513 95.3958 96.0752C95.3372 96.2118 95.1811 96.4352 94.9567 96.6986C94.9129 96.7532 94.8641 96.811 94.8131 96.8714L94.8127 96.8717L94.8125 96.8721C94.7389 96.9592 94.6607 97.0517 94.5859 97.1483C94.5859 97.2157 94.5858 97.2878 94.576 97.3649C94.5272 97.6751 94.0394 98.4917 93.7955 98.7425C93.7467 98.7951 93.698 98.8381 93.6492 98.8751C93.5224 99.0946 93.3665 99.3259 93.2494 99.4781C93.1811 99.5639 93.1127 99.6332 93.0444 99.6888C92.8883 100.077 92.7031 100.452 92.5665 100.613C92.3324 100.89 92.0589 100.955 91.8638 100.952C91.8363 100.988 91.8175 101.023 91.7991 101.057L91.7955 101.063C91.5711 101.402 91.3566 101.652 91.2883 101.701C91.22 101.76 91.1516 101.802 91.0833 101.831C90.9759 102.05 90.8395 102.281 90.7029 102.483C90.42 102.887 90.0884 103.163 89.9323 103.224C89.7567 103.295 89.6006 103.309 89.464 103.286C89.3372 103.451 89.2199 103.588 89.132 103.678L89.1049 103.71C88.9826 103.853 88.7773 104.092 88.6054 104.264C88.5817 104.31 88.5558 104.356 88.5297 104.403L88.5295 104.403C88.5019 104.452 88.4742 104.501 88.4491 104.55C88.3711 104.692 88.1665 105.048 88.1275 105.091C87.8641 105.354 87.5907 105.35 87.4053 105.304L87.3903 105.33C87.3097 105.465 87.247 105.57 87.2102 105.624C86.9663 105.982 86.625 105.997 86.3714 105.934C86.3633 105.936 86.356 105.938 86.3492 105.94L86.3386 105.943C86.3254 105.946 86.314 105.949 86.3028 105.952C86.1857 105.979 86.0686 105.988 85.9613 105.971C85.9498 105.986 85.9368 106.001 85.9241 106.015L85.9183 106.021C85.9008 106.041 85.8843 106.059 85.8737 106.076C85.7468 106.218 85.6296 106.3 85.5711 106.328C85.3174 106.47 85.1029 106.449 84.9468 106.394C84.8688 106.417 84.8003 106.425 84.7418 106.427C84.7028 106.429 84.6638 106.428 84.6248 106.425C84.5934 106.517 84.5557 106.606 84.5371 106.651L84.537 106.651C84.5325 106.661 84.5292 106.669 84.5273 106.674C84.3809 107.02 84.1078 107.118 83.9225 107.14C83.9061 107.174 83.8967 107.205 83.8884 107.232C83.8867 107.238 83.8852 107.243 83.8836 107.248C83.8055 107.433 83.7077 107.55 83.6492 107.607C83.4931 107.754 83.3371 107.824 83.1907 107.842C83.1664 107.889 83.1352 107.929 83.1086 107.963C83.1032 107.97 83.0981 107.976 83.0932 107.982C82.8786 108.218 82.6247 108.318 82.3028 108.225C82.1662 108.302 82.0297 108.335 81.8931 108.33C81.8556 108.429 81.8182 108.504 81.794 108.553C81.7867 108.567 81.7806 108.58 81.7761 108.589C81.5225 108.968 81.1909 108.968 81.0055 108.942C80.9568 108.936 80.8395 108.916 80.7029 108.846C80.6639 108.879 80.6346 108.903 80.6054 108.922C80.3127 109.1 80.0491 109.077 79.815 108.961L79.7956 108.947C79.6882 108.986 79.5908 108.996 79.5128 108.996C79.4542 108.996 79.4053 108.993 79.3565 108.986L79.347 108.99C79.2299 109.137 79.1029 109.205 79.0151 109.238C78.9077 109.281 78.8104 109.3 78.7129 109.301C78.625 109.419 78.5273 109.516 78.4297 109.59C78.059 109.868 77.7372 109.798 77.5616 109.725C77.5538 109.719 77.5398 109.714 77.5245 109.708C77.5206 109.707 77.5167 109.705 77.5128 109.703C77.464 109.692 77.4151 109.675 77.3565 109.652C77.2199 109.71 77.0833 109.707 76.9857 109.697C76.8589 109.683 76.7419 109.644 76.6248 109.568C76.4785 109.587 76.3419 109.554 76.2346 109.509C76.176 109.489 76.1177 109.459 76.0494 109.416C75.903 109.523 75.7469 109.55 75.6298 109.547C75.5122 109.64 75.4114 109.676 75.3895 109.684C75.3878 109.685 75.3866 109.686 75.3859 109.686C75.1127 109.79 74.8199 109.777 74.5467 109.505C74.5423 109.5 74.5358 109.493 74.5279 109.485C74.5011 109.457 74.4578 109.412 74.4202 109.345C74.3324 109.335 74.1272 109.295 73.9613 109.152C73.6979 109.476 73.3372 109.424 73.2201 109.404C73.1908 109.398 73.0443 109.364 72.8882 109.258C72.7126 109.372 72.537 109.388 72.3809 109.368C72.2346 109.349 72.0199 109.295 71.8638 109.078L71.8443 109.074C71.659 109.027 71.4933 108.923 71.3664 108.74C71.3177 108.665 71.269 108.558 71.2495 108.418L71.2296 108.395L71.2102 108.37C71.1322 108.38 71.0738 108.378 71.025 108.375L71.0199 108.374C71.0052 108.373 70.971 108.37 70.9369 108.363C70.8101 108.556 70.6541 108.626 70.5761 108.659C70.2639 108.784 69.981 108.738 69.7274 108.487C69.62 108.383 69.5225 108.235 69.4835 108.029L69.4787 108.027C69.4405 108.006 69.394 107.98 69.3565 107.948C69.1907 108.019 69.0443 108.017 68.9663 108.012C68.898 108.008 68.2346 107.946 68.2346 107.184C68.2346 107.113 68.2347 107.04 68.2445 106.964C68.0884 106.86 67.9324 106.674 67.9324 106.337V106.336C67.9324 106.323 67.9324 106.297 67.9419 106.262C67.8541 106.181 67.7665 106.062 67.7079 105.885C67.7027 105.872 67.7003 105.857 67.6977 105.841C67.6954 105.827 67.693 105.812 67.6885 105.797C67.6202 105.786 67.4933 105.759 67.3665 105.682C67.1323 105.757 66.9078 105.687 66.8493 105.665C66.6835 105.606 66.3617 105.45 66.3226 104.983C66.3226 104.92 66.3712 104.635 66.4297 104.37C66.3224 104.275 66.2153 104.13 66.1763 103.903L66.1763 103.693C66.1665 103.715 66.1664 103.739 66.1664 103.763C66.1664 103.731 66.1665 103.694 66.1763 103.655L66.1763 103.649C66.1763 103.57 66.1763 103.493 66.1858 103.447L66.1957 103.441V103.365L66.2152 103.23C65.981 103.274 65.7467 103.224 65.5223 103.021C65.3955 102.899 65.2882 102.731 65.2296 102.509C65.1809 102.295 65.1809 101.979 65.259 101.618C65.2772 101.525 65.3039 101.427 65.3311 101.327L65.3371 101.305V101.292C65.3664 101.102 65.415 100.915 65.4735 100.731C65.3857 100.698 65.3178 100.652 65.2495 100.598C65.0934 100.467 64.947 100.256 64.908 99.9415C64.8982 99.7766 64.9175 99.5415 64.9663 99.283C64.9175 99.203 64.8787 99.1054 64.8592 98.9854C64.8307 98.9576 64.8073 98.9267 64.7816 98.8927L64.7815 98.8926C64.7721 98.8801 64.7622 98.8671 64.7517 98.8537C64.2639 98.121 64.6639 97.4186 65.1908 97.1025C65.1945 97.0879 65.1968 97.0749 65.1987 97.0638C65.2019 97.046 65.2042 97.033 65.2102 97.0264C65.4346 96.564 65.8348 96.5698 66.0006 96.5864C66.0006 96.5873 66.0104 96.5883 66.0297 96.5902L66.0299 96.5903C66.0885 96.5161 66.1568 96.4605 66.2251 96.4195C66.3812 96.322 66.547 96.281 66.7129 96.2878C66.8982 96.2937 67.1128 96.3503 67.3177 96.5561C67.425 96.6703 67.5909 96.9288 67.5909 97.3249C67.6002 97.4665 67.583 97.6466 67.5646 97.8404L67.5616 97.8722C67.5666 97.8977 67.569 97.924 67.5715 97.951L67.5715 97.9512C67.5738 97.9769 67.5763 98.0032 67.581 98.0303C67.6005 98.2615 67.5617 98.72 67.4446 99.1825C67.4934 99.2469 67.5224 99.3249 67.5517 99.4186C67.6005 99.4908 67.6592 99.5903 67.6885 99.7181C67.8251 99.7776 67.9518 99.88 68.0494 100.04C68.0884 100.117 68.1372 100.225 68.1469 100.376L68.1565 100.442C68.215 100.492 68.2737 100.552 68.3127 100.623C68.3908 100.738 68.4687 100.91 68.4785 101.137C68.4785 101.26 68.4591 101.434 68.4396 101.604C68.6152 101.685 68.7809 101.843 68.8687 102.132C68.8739 102.141 68.8764 102.152 68.8789 102.163C68.8812 102.173 68.8836 102.183 68.8882 102.194C68.9272 102.212 68.9665 102.233 69.0056 102.259C69.2104 102.386 69.3956 102.624 69.4834 102.985C69.503 103.092 69.5126 103.22 69.5223 103.358L69.5322 103.358C69.5908 103.358 69.7274 103.381 69.8543 103.448C70.0689 103.372 70.2641 103.397 70.4202 103.459C70.6641 103.551 70.9567 103.817 71.025 104.339C71.025 104.367 71.0271 104.397 71.0294 104.428L71.0294 104.428L71.0294 104.429C71.0319 104.463 71.0345 104.5 71.0345 104.539C71.1028 104.596 71.1812 104.672 71.2495 104.772C71.3373 104.896 71.3958 105.049 71.4446 105.223C71.6202 105.103 71.8055 105.063 71.9518 105.064C72.1762 105.065 72.3812 105.137 72.5665 105.323C72.7226 105.477 72.8297 105.711 72.8687 106.008C73.0639 105.873 73.2786 105.803 73.4834 105.795C73.5615 105.792 73.6396 105.797 73.7079 105.812C74.0494 105.416 74.4687 105.379 74.7224 105.452C74.9858 105.53 75.2396 105.737 75.3664 106.126C75.3714 106.134 75.3738 106.143 75.3763 106.152C75.3786 106.16 75.3811 106.169 75.3859 106.178C75.4639 106.195 75.5419 106.225 75.6004 106.255C75.6687 106.289 75.7273 106.332 75.7956 106.384C75.9126 106.414 76.0297 106.47 76.137 106.564C76.3029 106.52 76.4784 106.534 76.6443 106.588C76.693 106.605 76.7418 106.624 76.7906 106.649C76.8491 106.61 76.9078 106.578 76.9663 106.553C77.1907 106.466 77.3858 106.48 77.5517 106.54C77.5712 106.528 77.5906 106.517 77.6199 106.508C77.6296 106.475 77.6491 106.444 77.6687 106.413C77.8345 106.135 78.0298 105.925 78.2151 105.813C78.4786 105.659 78.6931 105.67 78.8687 105.714C78.937 105.733 79.0053 105.759 79.0638 105.795C79.1809 105.669 79.3272 105.563 79.4735 105.503C79.6296 105.443 79.7665 105.422 79.8836 105.431C79.8965 105.421 79.9084 105.411 79.9195 105.401C79.9308 105.391 79.9413 105.382 79.9515 105.373C79.9592 105.366 79.9667 105.359 79.9741 105.352C79.9765 105.35 79.9788 105.348 79.9811 105.346C80.3421 105.043 80.7321 105.002 81.0833 105.157C81.1808 105.196 81.2689 105.254 81.347 105.332L81.376 105.266C81.3998 105.219 81.4127 105.157 81.4258 105.094C81.4342 105.054 81.4427 105.014 81.4541 104.977C81.4931 104.849 81.5518 104.735 81.6103 104.641C81.8055 104.344 82.0784 104.187 82.4491 104.202C82.4521 104.202 82.4561 104.203 82.4607 104.203L82.4656 104.203L82.466 104.203C82.4754 104.204 82.4866 104.205 82.4979 104.206C82.7321 104.066 82.9763 104.099 83.1519 104.158C83.308 103.82 83.5713 103.318 83.7567 103.14C83.9811 102.913 84.2247 102.86 84.4003 102.862C84.4491 102.862 84.4979 102.867 84.5467 102.876C84.615 102.812 84.6835 102.767 84.7323 102.738C84.8786 102.659 85.0052 102.626 85.132 102.625C85.2101 102.463 85.2979 102.325 85.376 102.219C85.5906 101.922 85.8446 101.784 86.0299 101.739C86.0982 101.72 86.1762 101.711 86.2445 101.711C86.264 101.687 86.2833 101.666 86.3028 101.648C86.4589 101.525 86.6249 101.467 86.8005 101.461L86.8488 101.416C87.4864 100.811 88.1245 100.207 88.7906 99.6186C90.0421 98.5006 91.115 97.1886 92.1715 95.8966L92.3127 95.7239C92.3257 95.7083 92.3718 95.6566 92.4371 95.5835L92.438 95.5825C92.5188 95.4919 92.6288 95.3686 92.7418 95.24ZM95.464 95.7815C95.4152 95.9327 95.3567 96.0576 95.3176 96.123C95.3664 96.0459 95.4347 95.8947 95.464 95.7815Z" fill="#FFEAD1"/>
<path fill-rule="evenodd" clip-rule="evenodd" d="M132.413 128.802C132.447 128.789 132.478 128.777 132.505 128.766C132.59 128.732 132.647 128.71 132.677 128.701C132.862 128.637 133.35 128.558 133.428 128.566C133.769 128.608 133.935 128.797 134.023 128.96C134.15 128.955 134.335 128.949 134.452 128.952C134.511 128.927 134.579 128.901 134.628 128.883C134.872 128.794 135.135 128.751 135.477 128.835C135.623 128.872 135.74 128.937 135.838 129.022C135.925 129.032 136.013 129.045 136.091 129.066C136.472 129.162 136.593 129.392 136.644 129.49L136.647 129.497C136.755 129.712 136.755 129.924 136.677 130.135C136.628 130.257 136.53 130.412 136.335 130.529C136.277 130.563 136.15 130.62 135.974 130.647C135.906 130.659 135.808 130.668 135.711 130.675C135.69 130.71 135.668 130.749 135.644 130.791L135.644 130.792C135.588 130.891 135.522 131.007 135.447 131.129C135.486 131.16 135.526 131.192 135.555 131.225C135.887 131.586 135.896 131.972 135.662 132.373C135.584 132.511 135.447 132.661 135.282 132.799C135.236 132.84 135.184 132.879 135.134 132.918L135.134 132.918C135.068 132.968 135.004 133.017 134.96 133.064C134.725 133.311 133.174 134.448 132.608 134.7L132.608 134.7C132.588 134.722 132.569 134.743 132.54 134.763C132.345 134.937 131.047 135.504 130.911 135.541C130.296 135.711 129.701 135.825 129.096 135.896C128.93 135.941 128.755 135.966 128.569 135.966C128.53 135.966 128.481 135.963 128.442 135.959C127.594 136.02 126.745 136.009 125.867 135.965C125.707 135.957 125.545 135.955 125.383 135.952L125.383 135.952C125.15 135.948 124.916 135.944 124.686 135.924C124.625 135.919 124.523 135.913 124.422 135.906L124.422 135.906C124.283 135.897 124.145 135.888 124.111 135.883C123.477 135.794 123.437 135.198 123.437 135.131C123.437 135.119 123.438 134.959 123.516 134.785C123.447 134.597 123.438 134.332 123.662 134.053C123.681 134.031 123.76 133.947 123.857 133.855C123.876 133.783 123.913 133.694 123.933 133.646L123.933 133.646L123.935 133.64C124.134 133.247 124.171 133.212 124.411 132.987C124.454 132.948 124.502 132.902 124.559 132.847C124.725 132.688 124.891 132.529 125.057 132.371C125.291 132.083 125.545 131.792 125.808 131.529C125.877 131.461 125.945 131.395 126.013 131.33C126.017 131.322 126.02 131.313 126.023 131.305C126.026 131.298 126.028 131.291 126.031 131.284C126.041 131.254 126.052 131.223 126.072 131.193C126.13 131.069 126.238 130.931 126.404 130.815C126.478 130.764 126.588 130.715 126.696 130.668C126.8 130.621 126.902 130.576 126.97 130.53C127.21 130.367 127.441 130.185 127.671 130.004C128.038 129.714 128.406 129.425 128.813 129.209C128.833 129.2 129.34 129 129.594 128.927C129.779 128.878 129.916 128.875 129.974 128.879C130.072 128.885 130.16 128.907 130.228 128.936C130.433 128.866 130.637 128.808 130.852 128.764C130.901 128.744 131.116 128.656 131.203 128.636C131.399 128.587 131.565 128.609 131.672 128.642C131.799 128.681 131.906 128.745 131.994 128.827C132.043 128.842 132.091 128.861 132.13 128.883C132.168 128.871 132.197 128.86 132.217 128.852L132.218 128.851C132.286 128.831 132.345 128.816 132.413 128.802ZM124.696 135.767C124.521 135.854 124.364 135.889 124.247 135.889C124.452 135.889 124.599 135.843 124.696 135.767Z" fill="#FFEAD1"/>
<path d="M36.8006 134.556L36.8005 134.556C36.7778 134.575 36.7549 134.594 36.7316 134.614C36.719 134.624 36.7063 134.635 36.6934 134.645C36.6544 134.65 36.6059 134.658 36.5669 134.671C36.5083 134.661 36.4497 134.656 36.3912 134.657C36.2936 134.658 36.1373 134.681 35.9617 134.783C35.9032 134.821 35.8057 134.897 35.7277 134.966C35.6594 134.949 35.5813 134.94 35.5032 134.942C35.3959 134.945 35.2303 134.971 35.0547 135.08C35.0106 135.109 34.95 135.159 34.889 135.209C34.8556 135.237 34.822 135.265 34.791 135.289C34.7887 135.291 34.7858 135.292 34.7827 135.293C34.78 135.294 34.7772 135.295 34.7743 135.296C34.7661 135.299 34.7576 135.302 34.7521 135.305C34.7033 135.326 34.6352 135.363 34.5669 135.404C34.44 135.361 34.2937 135.346 34.1279 135.366C33.8352 135.404 33.1324 135.87 33.1324 135.87C33.1324 135.87 33.152 135.857 33.1618 135.854C33.2008 135.828 33.2497 135.806 33.2887 135.79C33.212 135.825 33.1473 135.864 33.1089 135.887L33.1087 135.887C33.0983 135.893 33.0899 135.898 33.0836 135.902C32.791 136.125 32.7814 136.393 32.7814 136.437C32.7424 136.726 32.8497 136.938 33.0253 137.098L33.0303 137.103L33.0345 137.107C33.0512 137.124 33.0689 137.142 33.0936 137.16C33.0936 137.257 33.1086 137.332 33.1189 137.383L33.1201 137.389C33.1211 137.394 33.122 137.399 33.1229 137.403C33.1522 137.527 33.2105 137.627 33.2788 137.709C33.2983 137.886 33.3765 138.033 33.4838 138.155C33.5911 138.271 33.7568 138.405 34.0593 138.408C34.0105 138.73 34.2154 138.978 34.2544 139.017C34.2641 139.033 34.4984 139.275 34.8203 139.289C34.8691 139.336 34.9178 139.365 34.9373 139.376C34.9373 139.381 35.0252 139.437 35.1618 139.47C35.2301 139.522 35.3083 139.567 35.4156 139.593C35.4546 139.692 35.5132 139.774 35.5913 139.842C35.6108 139.917 35.6301 139.978 35.6496 140.026C35.5423 140.587 35.9619 140.824 36.1473 140.893L36.1862 140.907C36.2252 140.984 36.2839 141.049 36.3424 141.105C36.44 141.196 36.5766 141.295 36.7814 141.317L36.791 141.332L36.8108 141.348C36.762 141.668 36.869 141.923 37.0349 142.103C37.1812 142.256 37.3568 142.344 37.5714 142.364C37.7178 142.379 37.9617 142.293 38.108 142.234L38.1568 142.246C38.2934 142.287 38.5472 142.343 38.8496 142.11L38.8596 142.106C38.8912 142.146 38.9228 142.176 38.9437 142.196C38.9497 142.201 38.9547 142.206 38.9587 142.21C38.9623 142.214 38.965 142.217 38.9666 142.219C39.0252 142.264 39.1326 142.345 39.2887 142.384C39.5033 142.603 39.7473 142.641 40.0009 142.589C40.0887 142.571 40.2838 142.427 40.4106 142.326C40.4399 142.328 40.4692 142.328 40.5082 142.326C40.5765 142.323 40.6741 142.309 40.7814 142.262C40.7838 142.261 40.7867 142.26 40.79 142.258L40.7901 142.258C40.7939 142.256 40.7982 142.254 40.8023 142.252C40.8064 142.25 40.8104 142.248 40.8139 142.246C40.8163 142.244 40.8185 142.242 40.8203 142.241C40.9862 142.298 41.2301 142.325 41.4838 142.156C41.6204 142.206 41.7862 142.214 41.9716 142.159C42.0348 142.137 42.3735 141.85 42.4238 141.807L42.4007 141.832C42.4105 141.824 42.4301 141.802 42.4301 141.802L42.4238 141.807C42.5039 141.721 42.5833 141.635 42.6545 141.546C42.8009 141.627 42.9862 141.672 43.2105 141.62C43.2148 141.619 43.2196 141.618 43.2249 141.616L43.2253 141.616C43.2693 141.605 43.3495 141.584 43.4449 141.522C43.6205 141.603 43.8448 141.652 44.1179 141.523C44.3033 141.593 44.6739 141.662 44.9861 141.298C45.0053 141.281 45.0816 141.175 45.1399 141.095L45.1423 141.091C45.1669 141.063 45.1903 141.035 45.2133 141.008L45.2135 141.008C45.2542 140.96 45.2938 140.913 45.3374 140.867C45.474 140.93 45.6495 140.965 45.8641 140.907C45.8836 140.902 45.962 140.864 46.0303 140.822C46.1278 140.868 46.2446 140.894 46.3519 140.894C46.7909 140.894 47.1324 140.544 47.1324 140.114C47.1324 139.766 46.996 139.524 46.7521 139.371C46.6935 139.175 46.5765 139.027 46.4594 138.931C46.3521 138.835 46.2154 138.759 46.0398 138.725L46.0465 138.691C46.0512 138.666 46.0559 138.642 46.0606 138.618C46.0634 138.603 46.0663 138.587 46.0691 138.572C46.1179 138.281 46.0105 138.087 45.9129 137.954C45.8446 137.866 45.757 137.793 45.6595 137.739C45.6595 137.418 45.513 137.16 45.2105 136.98C44.9666 136.836 44.6154 136.779 44.2349 137.038C44.1569 137.093 44.0592 137.191 43.9617 137.299C43.9324 137.305 43.9033 137.312 43.874 137.32L43.8352 137.3C43.7961 137.278 43.7082 137.239 43.5813 137.224C43.5911 137.041 43.5325 136.891 43.4544 136.773C43.4583 136.767 43.4621 136.76 43.4659 136.754C43.4719 136.745 43.4778 136.735 43.4838 136.726C43.5716 136.537 43.5812 136.367 43.5714 136.248C43.5519 136.034 43.4546 135.865 43.318 135.734C43.1912 135.618 43.0056 135.495 42.6934 135.515C42.4885 135.527 42.2839 135.597 42.0791 135.712C42.0498 135.684 42.0203 135.66 41.991 135.641C41.8642 135.56 41.6887 135.486 41.4644 135.49C41.3375 135.404 41.2009 135.366 41.0448 135.357L41.0369 135.356C41.0118 135.356 40.9932 135.355 40.9666 135.357L40.9278 135.336L40.9083 135.327V135.326C40.9278 135.214 40.9179 135.116 40.8984 135.034C40.8496 134.841 40.7423 134.696 40.6057 134.59C40.4692 134.491 40.2839 134.396 40.0009 134.442C39.7375 134.483 39.5131 134.598 39.318 134.767C39.2205 134.658 39.1032 134.572 38.9373 134.524C38.8397 134.498 38.6937 134.473 38.5181 134.517C38.4498 134.535 38.3324 134.586 38.2544 134.637C38.2251 134.586 38.196 134.543 38.1667 134.505C38.0399 134.34 37.8643 134.223 37.6301 134.196C37.5423 134.187 37.4446 134.188 37.3275 134.219C37.2397 134.243 37.0253 134.363 36.9472 134.434C36.8965 134.474 36.8489 134.515 36.8009 134.555L36.8006 134.556Z" fill="#FFEAD1"/>
<path d="M21.7696 104.41C21.7988 104.287 21.8768 104.141 22.0329 104.005C22.1771 103.879 22.7424 103.573 23.063 103.399L23.0631 103.399C23.1762 103.338 23.2589 103.294 23.2818 103.279C23.3544 103.231 23.4433 103.169 23.5443 103.098L23.5444 103.098C23.9587 102.809 24.5786 102.376 25.1354 102.164C25.6037 101.986 26.0525 101.956 26.4037 102.073C26.55 102.122 26.7939 102.282 27.0378 102.548C27.3793 102.93 27.7792 103.546 27.8572 103.747C27.9255 103.928 27.945 104.126 27.906 104.337C27.8962 104.39 27.867 104.466 27.8378 104.541L27.8402 104.544C27.8491 104.554 27.8572 104.563 27.8572 104.571C27.9743 104.863 27.9547 105.155 27.6815 105.428C27.3303 105.783 26.5791 106.181 26.1205 106.414C25.9157 106.512 25.7596 106.522 25.6327 106.5C25.2802 106.685 24.9357 106.904 24.5923 107.122C24.28 107.32 23.9685 107.518 23.6526 107.689C23.5276 107.758 23.3081 107.939 23.0682 108.137C22.8024 108.356 22.5116 108.596 22.2962 108.727C22.0328 108.89 21.789 108.943 21.6427 108.943C21.4963 108.943 21.3793 108.915 21.2818 108.873C21.2232 108.898 21.1548 108.917 21.1061 108.927C20.9207 108.965 20.7549 108.934 20.6476 108.894C20.4622 108.825 20.3257 108.704 20.2379 108.552C20.1501 108.406 20.072 108.2 20.1598 107.914L20.1693 107.866C19.9937 107.842 19.8573 107.765 19.7402 107.653C19.6231 107.54 19.4963 107.369 19.4963 107.079C19.4963 106.972 19.5158 106.871 19.5451 106.778C19.4573 106.709 19.3888 106.625 19.3401 106.527C19.2815 106.406 19.2328 106.243 19.2718 106.034C19.2816 105.973 19.3013 105.886 19.3599 105.785C19.3952 105.708 19.5506 105.517 19.6375 105.41C19.6465 105.399 19.6548 105.389 19.6621 105.38C19.9255 105.031 20.2475 104.716 20.6183 104.472C20.6963 104.42 20.7451 104.401 20.7646 104.395C21.1451 104.245 21.3891 104.408 21.4769 104.47C21.4873 104.475 21.4949 104.481 21.5027 104.487C21.5095 104.491 21.5165 104.496 21.5257 104.501C21.5373 104.496 21.5474 104.492 21.5571 104.487C21.572 104.48 21.5861 104.473 21.6038 104.466C21.6623 104.443 21.711 104.424 21.7696 104.41Z" fill="#FFEAD1"/>
<path fill-rule="evenodd" clip-rule="evenodd" d="M63.5202 73.2327C63.5202 73.2327 63.6916 73.2136 63.9621 73.1493C63.834 73.0828 63.7411 72.9606 63.7132 72.8172L63.7124 72.8117L63.7116 72.8066C63.7098 72.795 63.7081 72.7836 63.7069 72.772C63.689 72.7326 63.6761 72.6905 63.6675 72.6472C63.6631 72.6246 63.6604 72.6017 63.6585 72.579C63.6449 72.5687 63.6308 72.5575 63.6177 72.5456C63.537 72.4725 63.4677 72.3673 63.4549 72.2146C63.4534 72.1961 63.453 72.1739 63.454 72.1495C63.4411 72.0952 63.4368 72.0365 63.4424 71.9749C63.4522 71.8621 63.5389 71.6966 63.6127 71.5776C63.6119 71.2986 63.6643 71.0048 63.7333 70.7254C63.6575 70.6258 63.6217 70.497 63.6414 70.3664L63.6245 70.3412C63.5754 70.2637 63.52 70.1377 63.5563 69.9559C63.5649 69.9119 63.5775 69.8687 63.5901 69.8256C63.5951 69.8084 63.6001 69.7913 63.6048 69.7741L63.7367 69.2965C63.7781 69.1464 63.8561 69.0829 63.8917 69.054L63.8919 69.0538L63.8955 69.0508L63.8977 69.049C63.9092 69.0399 63.9206 69.0315 63.9315 69.0247L63.9409 69.0142L63.9646 68.9937C63.9856 68.8732 64.0124 68.7494 64.0471 68.618L64.0645 68.5548L64.0706 68.4761L64.0783 68.4069C64.0618 68.3597 64.048 68.2969 64.0481 68.2223C64.048 68.1454 64.0712 68.0071 64.0775 67.9701L64.0786 67.9634L64.0827 67.9424C64.0871 67.8641 64.1026 67.7725 64.1311 67.6663L64.3326 66.9365L64.3291 66.9314C64.3026 66.8848 64.2853 66.8406 64.2751 66.8001L64.2691 66.7952L64.2746 66.7992L64.2737 66.7964L64.2723 66.7895L64.2426 66.7665C64.23 66.7557 64.1937 66.721 64.1937 66.721C64.1937 66.721 64.2158 66.7329 64.2476 66.7482C64.2402 66.7371 64.2351 66.7267 64.2308 66.7179L64.2307 66.7178L64.2286 66.7135L64.2268 66.7081C64.1209 66.578 63.9907 66.3813 64.0302 66.2381C64.0374 66.2122 64.0454 66.189 64.0555 66.1672C64.0564 66.1256 64.0627 66.0847 64.0746 66.0446C64.2933 65.3103 64.6052 65.6889 64.7229 65.8319C64.769 65.8878 64.7853 65.9076 64.7549 65.811C64.7549 65.811 64.8493 65.7929 64.9227 65.8007L65.0223 65.608L65.1992 65.7C65.1992 65.7 66.526 66.3495 67.3434 67.5879C67.8389 68.3389 68.1418 69.2987 67.8969 70.4556C67.6562 71.5916 67.0316 72.3903 66.3375 72.9524C65.1132 73.9463 63.6508 74.1747 63.6508 74.1747L63.1794 74.2399L63.0488 73.2979L63.5202 73.2327ZM64.2596 65.9448C64.3241 65.8503 64.2461 65.9287 64.1785 66.0007C64.1985 65.9838 64.219 65.9692 64.2392 65.9564L64.2596 65.9448ZM64.1013 66.0847C64.1247 66.0514 64.1511 66.0239 64.1785 66.0007C64.138 66.0439 64.1013 66.0847 64.1013 66.0847Z" fill="#FDAF52"/>
<path d="M83.0041 70.0137C81.9531 69.7235 80.8771 69.9037 79.9977 70.4007C79.1183 70.8977 78.4272 71.7329 78.1395 72.7751C77.8456 73.8394 78.0101 74.9112 78.5099 75.789C79.0097 76.6668 79.8469 77.3514 80.898 77.6416C81.949 77.9318 83.0187 77.7737 83.8981 77.2768C84.0387 77.1973 84.1745 77.1092 84.3046 77.0129C84.3714 76.9799 84.4214 76.9515 84.446 76.9338C84.5903 76.8293 84.7182 76.6972 84.8307 76.5453C85.2573 76.0916 85.5837 75.5282 85.7627 74.88C86.0505 73.8378 85.8857 72.7662 85.3859 71.8884C84.8861 71.0106 84.0552 70.3039 83.0041 70.0137Z" fill="#FDAF52"/>
<path d="M68.145 60.0102C68.0947 59.8816 68.1088 59.6023 68.4718 59.5132C68.7152 59.4536 69.0348 59.3797 69.5817 59.4066C69.9271 59.4232 70.3634 59.4715 70.9297 59.5751C71.1288 59.6115 71.2574 59.6892 71.3246 59.7546C71.3968 59.8243 71.4291 59.8992 71.4405 59.9632C71.469 60.1208 71.3511 60.4537 70.8742 60.3615L70.8604 60.3589C70.3821 60.2663 70.0085 60.1939 69.708 60.1672C69.2857 60.1299 68.8562 60.1997 68.6561 60.233C68.3408 60.2854 68.1849 60.111 68.145 60.0102Z" fill="#232221"/>
<path d="M68.6727 61.995C68.8909 61.8419 69.1476 61.7766 69.4048 61.8214C69.662 61.8663 69.8815 62.0147 70.0341 62.2324C70.215 62.4892 70.3023 62.8469 70.237 63.2212C70.1717 63.5956 69.9686 63.9026 69.7114 64.0831C69.4941 64.2363 69.2373 64.3017 68.9801 64.2569C68.7229 64.2121 68.5035 64.0636 68.35 63.8457C68.1699 63.589 68.0827 63.2314 68.148 62.8569C68.2133 62.4826 68.4164 62.1756 68.6727 61.995Z" fill="#232221"/>
<path d="M79.0919 64.6359C79.3239 64.5046 79.5857 64.4644 79.8374 64.5339C80.089 64.6033 80.2931 64.7722 80.424 65.0037C80.5793 65.2768 80.6315 65.6412 80.5304 66.0075C80.4292 66.3739 80.1974 66.6598 79.924 66.8146C79.6929 66.9461 79.431 66.9864 79.1794 66.9169C78.9277 66.8475 78.7236 66.6785 78.5919 66.4468C78.4375 66.1739 78.3852 65.8095 78.4864 65.4431C78.5875 65.0768 78.8193 64.7909 79.0919 64.6359Z" fill="#232221"/>
<path d="M71.2937 74.8466C72.1505 74.8491 72.7441 75.0588 73.2084 75.3437L73.1933 75.3342C73.4958 75.5023 73.5811 75.8757 73.3351 76.1752C73.1434 76.4087 72.7916 76.4693 72.5546 76.3414L72.5651 76.3466L72.5496 76.3387C72.5512 76.3396 72.5529 76.3405 72.5546 76.3414C72.2281 76.1799 71.8195 76.0754 71.2512 76.1199C70.8213 76.1527 70.3135 76.2756 69.6928 76.5019C69.6882 76.5042 69.6821 76.506 69.6775 76.5083C69.2337 76.6488 68.8299 76.407 68.7442 76.0351C68.6647 75.6941 68.8908 75.2855 69.2984 75.1552L69.3142 75.1499C70.1129 74.9302 70.7585 74.8458 71.2937 74.8466Z" fill="#232221"/>
<path d="M82.0915 60.4696C82.589 60.7635 82.8266 61.0296 83.0065 61.2359C83.2356 61.5004 83.1282 61.7413 83.0237 61.832C82.9277 61.9159 82.6859 61.9972 82.4355 61.7525C82.2803 61.6001 81.9456 61.2758 81.5546 61.0685C81.276 60.9204 80.9063 60.7772 80.4336 60.5942L80.4185 60.5884C79.9742 60.4163 80.0229 60.0802 80.1345 59.9406C80.2144 59.8399 80.4557 59.7135 80.8043 59.8532C81.3644 60.0775 81.7776 60.284 82.0915 60.4696Z" fill="#232221"/>
<path fill-rule="evenodd" clip-rule="evenodd" d="M71.1343 69.059C71.1207 69.6454 71.272 70.2078 71.7101 70.7099C71.8722 70.9022 72.1598 70.9365 72.3619 70.7792C72.5621 70.6254 72.6043 70.3379 72.4593 70.1339C72.2437 69.812 72.2094 69.4788 72.2508 69.1419C72.2797 68.908 72.3481 68.6768 72.4276 68.4365C72.539 68.1018 72.6745 67.7613 72.8068 67.4292L72.8068 67.429L72.8069 67.4289L72.807 67.4286L72.8071 67.4283L72.8072 67.4282L72.8073 67.4279L72.8073 67.4278L72.8075 67.4273C72.8263 67.3801 72.845 67.3331 72.8636 67.2863L74.6905 62.6305C74.811 62.3277 74.6619 61.9832 74.3579 61.8623C74.054 61.7415 73.7087 61.8921 73.5882 62.1949L71.7612 66.8508C71.7243 66.9436 71.6861 67.0372 71.6477 67.1313L71.6476 67.1315L71.6476 67.1316C71.5194 67.4456 71.3886 67.766 71.2953 68.087C71.2007 68.4133 71.1409 68.7411 71.1343 69.059ZM71.8185 70.58C71.8216 70.5849 71.8251 70.59 71.8297 70.5913L71.8185 70.58Z" fill="#232221"/>
<path fill-rule="evenodd" clip-rule="evenodd" d="M61.9827 98.6578C62.3267 98.5431 62.6958 98.4201 63.0813 98.2831C64.1555 104.343 66.8758 107.932 70.2943 109.664C73.6441 111.363 77.7403 111.28 81.7863 109.852C87.6686 107.773 93.4601 102.841 96.598 96.7188C96.6822 96.56 96.768 96.4036 96.8535 96.2478L96.8542 96.2466C96.9247 96.118 96.995 95.9899 97.064 95.861C97.4309 95.981 97.8066 96.1012 98.1899 96.2238L98.1915 96.2243L98.1922 96.2245C100.545 96.9773 103.188 97.8227 105.869 99.2901C112.212 102.761 116.893 107.287 120.187 110.472C121.577 111.817 122.721 112.922 123.637 113.608C123.743 113.688 123.859 113.745 123.978 113.78C123.513 115.095 123.24 115.881 123.24 115.881C123.149 116.124 123.271 116.394 123.523 116.483C123.765 116.573 124.027 116.448 124.118 116.205C124.118 116.205 126.902 108.968 129.877 101.706C132.268 104.092 135.194 105.336 138.807 106.073C138.697 107.541 138.598 109.049 138.499 110.569C138.141 116.025 137.772 121.634 136.861 126.116C136.756 126.631 136.645 127.131 136.527 127.613C133.178 126.668 125.534 126.441 122.196 134.33C122.151 134.436 122.127 134.546 122.122 134.654C121.679 134.501 121.238 134.331 120.799 134.144C115.088 131.721 109.761 126.597 106.35 121.483C106.179 121.207 105.805 121.13 105.523 121.311C105.251 121.492 105.17 121.863 105.352 122.138C106.427 123.8 107.698 125.464 109.115 127.045L109.115 127.047C109.095 127.107 109.085 127.167 109.075 127.227L109.074 127.233C109.069 127.247 109.067 127.261 109.064 127.275L109.064 127.275C109.063 127.283 109.061 127.29 109.06 127.298C109.059 127.301 109.058 127.304 109.057 127.308C109.057 127.31 109.056 127.312 109.056 127.313C109.055 127.315 109.055 127.316 109.054 127.317C109.025 127.447 108.981 127.636 108.925 127.879L108.924 127.881L108.924 127.882L108.924 127.882C108.842 128.232 108.735 128.693 108.61 129.245C107.692 133.304 105.805 142.297 105.785 148.921V149.151C104.806 149.27 103.747 149.487 102.627 149.824C102.456 149.873 102.345 150.054 102.395 150.228C102.446 150.403 102.627 150.505 102.799 150.456C103.878 150.18 104.877 150.01 105.805 149.929C105.876 152.372 106.249 154.43 107.006 155.735C107.682 156.902 108.651 157.549 109.932 157.528C112.505 157.474 114.038 156.52 114.664 155.333C115.239 154.238 115.108 152.902 114.23 151.723C113.151 150.267 110.85 149.016 107.45 149.043V148.935C107.53 142.43 109.377 133.608 110.285 129.624L110.336 129.401L110.336 129.399L110.337 129.397L110.338 129.392C110.41 129.074 110.474 128.791 110.53 128.547C113.398 131.441 116.741 133.94 120.224 135.471C124.683 137.431 129.375 137.808 133.653 135.538C136.054 134.261 137.598 130.908 138.536 126.462C139.476 121.942 139.848 116.276 140.21 110.765C140.376 108.233 140.54 105.733 140.756 103.393C140.998 100.676 141.462 98.2339 141.997 96.1807C142.623 93.736 143.339 91.8492 143.894 90.7171C144.076 90.3478 144.308 89.9856 144.399 89.8535C144.957 89.6403 145.604 89.4007 146.311 89.1391C150.149 87.718 155.736 85.65 158.292 83.6705C159.594 82.6666 160.149 81.5809 159.937 80.6577C159.836 80.1835 159.533 79.7032 158.958 79.2654C158.534 78.9445 157.828 78.7094 156.899 78.6176C155.194 78.4501 152.612 78.7023 149.847 79.2139C144.974 80.1149 139.535 81.818 137.356 83.2699C136.68 83.7199 136.074 84.4081 135.54 85.19C134.964 86.0563 134.474 87.0383 134.057 87.8735L134.056 87.8756C133.976 88.0357 133.899 88.1905 133.824 88.338C132.906 90.2147 131.655 93.1921 130.344 96.5217C129.924 97.5949 129.497 98.7041 129.072 99.8234C129.001 99.9348 128.955 100.059 128.935 100.186C127.344 104.388 125.789 108.692 124.706 111.728C123.825 111.033 122.747 109.994 121.457 108.751C118.114 105.529 113.347 100.936 106.899 97.4074C104.141 95.898 101.428 95.0244 99.0133 94.2469C98.1676 93.9746 97.3584 93.7141 96.5968 93.4421C94.0643 92.5361 92.0766 91.5544 91.3198 89.1752C90.6958 87.211 90.8583 84.4151 91.9885 80.2122C92.1431 79.8988 92.6739 78.9181 93.4602 78.4718C93.9103 78.2161 94.401 78.0706 94.9104 77.9195C95.1471 77.8493 95.3879 77.7779 95.6306 77.6937C96.6076 77.3542 97.6108 76.863 98.5776 75.8031C99.4196 74.8798 99.7498 73.6604 99.9703 72.4268C99.9998 72.2614 100.026 72.0957 100.053 71.9313C100.168 71.2118 100.279 70.5172 100.617 69.982C100.895 69.5414 101.296 69.195 101.725 68.824L101.725 68.8239C101.926 68.6506 102.133 68.4719 102.336 68.2757C103.161 67.4812 103.961 66.4824 104.404 64.8459C104.791 63.4163 104.43 62.2136 103.949 61.1214C103.873 60.9471 103.789 60.7782 103.708 60.6129C103.456 60.1032 103.221 59.6273 103.257 59.1308C103.315 58.3579 103.608 57.752 103.897 57.1532C103.976 56.9906 104.054 56.8285 104.127 56.6637C104.601 55.6002 104.946 54.4659 104.594 52.8353C104.321 51.5717 103.626 50.7616 102.831 50.0634C102.683 49.9329 102.53 49.8084 102.378 49.6843C101.955 49.3404 101.536 48.9996 101.238 48.5425C100.889 48.0072 100.851 47.4214 100.812 46.8094C100.802 46.6523 100.792 46.4935 100.777 46.3333C100.664 45.1758 100.418 43.9642 99.3181 42.7202C98.3171 41.5886 97.1716 41.1965 96.0324 40.9639C95.8375 40.924 95.6428 40.892 95.4505 40.8604C94.8563 40.7629 94.2841 40.6689 93.7958 40.3544C93.3802 40.0869 93.1988 39.7232 93.009 39.3426C92.9385 39.2013 92.8668 39.0575 92.7816 38.9156C92.2861 38.0926 91.5863 37.2354 89.8209 36.587C88.6183 36.1457 87.5998 36.3564 86.5778 36.7826C86.3572 36.8744 86.1372 36.982 85.9128 37.0917C85.1155 37.4815 84.2632 37.8982 83.1372 37.7303C82.4281 37.6252 81.9107 37.3824 81.4501 37.1662C81.2994 37.0954 81.1547 37.0275 81.0115 36.9683C80.1159 36.5975 79.2621 36.4245 77.9832 36.9772C76.718 37.5235 75.9469 38.2832 75.1739 39.1294C75.1127 39.1966 75.0514 39.2644 74.9897 39.3327C74.4296 39.9524 73.8327 40.6129 72.8873 41.2125C72.3771 41.5366 71.8836 41.5979 71.404 41.6574C71.298 41.6706 71.1927 41.6836 71.0881 41.6994C70.1647 41.8382 69.2685 42.0776 68.3461 43.0333C67.6996 43.7039 67.2835 44.7459 67.0015 45.9301C66.8865 46.4142 66.7928 46.9251 66.6997 47.433L66.6997 47.4332C66.523 48.3969 66.3483 49.3504 66.0329 50.0924C65.7355 50.7908 65.2482 51.4267 64.7663 52.0556L64.7653 52.057L64.7652 52.0572L64.7651 52.0573L64.7644 52.0581C64.5451 52.3443 64.3269 52.6291 64.1283 52.9176C63.5763 53.7176 63.1551 54.5455 63.0366 55.4399C62.659 58.2998 63.7178 59.8952 64.3297 60.5571C63.6772 64.0936 62.5615 70.5821 62.354 72.6823C61.9489 76.7895 63.4871 79.9307 65.8539 82.1511C66.3071 82.5763 66.7832 82.9797 67.2996 83.3224C67.6428 83.5505 68.0007 83.753 68.3688 83.9358C68.8276 84.1631 69.2963 84.3603 69.7702 84.5322C69.9452 87.4835 69.4107 90.0959 68.5088 91.7015C67.1669 94.0796 64.9674 95.252 63.0604 96.0047C62.3653 96.2773 61.7035 96.4987 61.1141 96.6958L61.1139 96.6959C60.4885 96.9051 59.9446 97.087 59.529 97.274C56.9561 98.4434 54.4236 100.8 51.7095 103.821C50.5789 105.077 49.4098 106.448 48.1804 107.891L48.1803 107.891C45.2643 111.313 42.0088 115.133 38.1214 118.743C37.8493 118.273 37.5635 117.777 37.2654 117.26L37.2606 117.252C34.381 112.258 30.3587 105.282 26.5296 99.9232C24.6932 97.3422 22.8973 95.1316 21.2829 93.6757C20.0722 92.5799 18.9422 91.9059 17.9837 91.7142C16.4904 91.4156 10.5273 90.7103 6.09796 90.7557C4.32217 90.7739 2.78862 90.9192 1.84019 91.2309C1.21463 91.4347 0.790549 91.7334 0.558486 92.0522C0.0842714 92.705 -0.0467368 93.2943 0.0138013 93.8099C0.0642497 94.2498 0.255796 94.6574 0.608935 95.0246C1.15378 95.5957 2.15281 96.0921 3.44429 96.5129C4.51809 96.8636 5.81336 97.1818 7.18211 97.5181L7.1824 97.5182L7.18271 97.5182C8.03874 97.7285 8.9235 97.9459 9.80079 98.1827C11.6371 98.6771 13.4329 99.2552 14.8354 100.054C15.8544 100.64 16.6618 101.331 17.0149 102.242C17.1413 102.569 17.4015 103.354 17.7774 104.487C19.5316 109.775 23.8052 122.658 28.7493 132.125C31.5542 137.495 34.6316 141.751 37.4769 143.125C39.0004 143.856 41.3511 143.574 43.8936 142.69C48.656 141.04 54.1955 137.445 55.8704 136.322C56.2235 137.156 56.8791 139.429 56.8388 144.91C56.8085 148.328 56.506 152.95 55.6887 159.175C55.6685 159.373 55.7995 159.555 56.0013 159.583C56.2031 159.611 56.3847 159.472 56.4048 159.275C57.5652 151.418 57.8679 146.093 57.7973 142.51C57.6863 136.395 56.4655 135.135 56.4655 135.135C56.2738 134.928 55.961 134.892 55.7289 135.05C55.7289 135.05 52.2458 137.388 48.208 139.375C46.4859 136.587 40.623 130.925 32.6911 134.985C32.58 135.042 32.4854 135.117 32.4093 135.206C31.0001 132.873 29.6129 130.138 28.285 127.256C25.5686 121.319 23.1376 114.757 21.3825 109.737C22.5144 109.292 25.9842 107.529 27.5903 106.696C27.9595 106.501 28.4896 106.217 28.8288 106.035C31.5226 110.107 34.1288 114.423 36.1845 117.827L36.1846 117.827C36.6413 118.584 37.0709 119.295 37.4682 119.949C37.4934 120.166 37.5853 120.378 37.7456 120.551C37.8036 120.615 37.8679 120.671 37.9369 120.717C38.5993 121.799 39.1518 122.68 39.5653 123.287C39.7268 123.538 40.0698 123.606 40.3221 123.438C40.5743 123.272 40.6348 122.932 40.4734 122.681C40.1433 122.175 39.7233 121.483 39.2286 120.643C39.2389 120.635 39.249 120.626 39.259 120.616C43.331 116.882 46.7177 112.91 49.7432 109.361C50.9833 107.907 52.1627 106.524 53.3038 105.257C55.7858 102.496 58.056 100.298 60.417 99.2293C60.8249 99.0437 61.3634 98.8642 61.9827 98.6578ZM70.1556 51.6538C69.58 52.6325 68.6876 54.1937 68.2414 55.1949C68.0288 55.6722 67.839 55.9607 67.6502 56.2477C67.2086 56.9189 66.7724 57.582 66.062 60.6328C65.424 64.0682 64.2726 70.7278 64.0631 72.8507C63.7183 76.3422 65.0311 79.0035 67.0322 80.9021C67.4262 81.276 67.8533 81.6114 68.2842 81.9396C68.3142 81.9624 68.3441 81.9852 68.374 82.008C68.6355 82.2076 68.8956 82.4061 69.1644 82.5946C69.6887 82.9617 70.2247 83.3035 70.7719 83.609C71.2342 83.6914 71.6971 83.886 71.8059 84.1341C72.0719 84.2554 72.3404 84.3669 72.6111 84.4675C73.4808 84.7903 74.3503 85.0082 75.1839 85.1475L75.1412 85.5868C74.2609 85.5612 73.3379 85.4366 72.39 85.2481C72.2257 85.2155 72.061 85.1809 71.8961 85.1441C72.067 88.4482 71.4202 90.901 70.3754 92.7548C69.8184 93.7459 69.1431 94.5703 68.4019 95.2623C69.2152 100.178 70.839 103.095 73.0519 104.412C75.1001 105.63 77.6021 105.399 80.2254 104.256C84.2997 102.481 88.6314 98.5195 92.2024 93.7081C90.839 92.7735 89.8289 91.5606 89.272 89.827C88.5698 87.6103 88.6421 84.4353 89.9137 79.6628C89.9142 79.6602 89.9146 79.6575 89.9152 79.6548C89.9152 79.6548 91.0116 74.0065 91.2855 73.0144C91.4055 72.58 91.7846 72.2666 92.2346 72.231C93.4398 72.1347 94.2695 71.0298 94.7957 69.8452C95.3521 68.5941 95.5911 67.1804 95.2648 66.392C94.9847 65.7125 94.628 65.3235 94.2203 65.1523C93.2426 64.7437 92.1679 65.4306 92.1679 65.4306C91.8713 65.6078 91.507 65.6317 91.1899 65.4946C90.8731 65.3565 90.6417 65.075 90.5681 64.7369C90.5681 64.7369 89.899 61.6627 88.0206 58.8324C86.825 57.0307 85.1346 55.31 82.7578 54.6568C81.6716 54.3589 80.612 54.3497 79.5198 54.3457C79.4696 54.3456 79.4194 54.3455 79.3691 54.3454L79.3588 54.3453C78.1582 54.3426 76.9216 54.3398 75.5871 54.0857C74.1572 53.8133 71.5477 52.4319 70.1556 51.6538ZM93.8231 94.6278C90.0155 99.8087 85.333 104.052 80.962 105.957C77.7232 107.366 74.6357 107.509 72.1032 106.006C69.7025 104.58 67.7498 101.603 66.7475 96.545C66.166 96.9204 65.5695 97.2398 64.9774 97.5161C64.9484 97.5297 64.9193 97.5432 64.8903 97.5566C64.8745 97.5638 64.8588 97.5711 64.843 97.5783C65.7352 103.122 68.0551 106.453 71.1314 108.009C74.0574 109.493 77.6294 109.352 81.1608 108.104C86.6395 106.17 92.0273 101.571 94.9533 95.8732C95.0563 95.6709 95.1645 95.4723 95.2725 95.2739L95.2885 95.2445C94.8955 95.0964 94.5171 94.9431 94.1552 94.7811C94.0431 94.7308 93.9324 94.6797 93.8231 94.6278ZM130.65 99.8303C132.831 102.284 135.559 103.492 138.955 104.211C138.983 103.883 139.011 103.558 139.041 103.235C139.091 102.694 139.149 102.163 139.214 101.644C136.204 100.865 133.751 99.6099 131.721 97.2714C131.369 98.1026 131.012 98.9547 130.656 99.816L130.65 99.8303ZM132.583 95.3898C132.571 95.3741 132.558 95.3588 132.546 95.344C133.018 94.2501 133.473 93.2142 133.895 92.2679C134.44 91.0339 134.934 89.9523 135.358 89.1058C135.429 88.9653 135.502 88.8178 135.578 88.665L135.579 88.6633L135.58 88.6607C135.968 87.8782 136.425 86.9586 136.972 86.1495C137.366 85.5643 137.8 85.0356 138.304 84.6986C140.06 83.5262 144.086 82.2176 148.091 81.3247C151.209 80.6305 154.306 80.1906 156.345 80.2975C157.061 80.3359 157.616 80.4075 157.919 80.6355C158.1 80.7717 158.231 80.8898 158.262 81.0371C158.321 81.2824 158.115 81.5 157.867 81.7622L157.858 81.7716C157.384 82.2711 156.647 82.7725 155.759 83.279C152.991 84.8568 148.799 86.3974 145.721 87.5288L145.72 87.5289L145.72 87.5289L145.72 87.529C144.938 87.8163 144.228 88.0772 143.632 88.3057C143.47 88.3713 143.147 88.5983 142.835 89.0937C142.32 89.9049 141.493 91.72 140.736 94.2848C140.272 95.8564 139.826 97.7151 139.482 99.7967C136.677 99.0414 134.418 97.8096 132.583 95.3898ZM27.7927 104.488C27.296 103.756 26.7983 103.037 26.3025 102.339C26.1328 102.428 25.8631 102.57 25.5296 102.745C23.9697 103.552 21.0366 105.051 19.9306 105.499C20.1813 106.244 20.4623 107.074 20.7708 107.972C21.5669 107.592 25.2691 105.814 26.7333 105.052C27.046 104.889 27.4686 104.662 27.7927 104.488ZM19.4635 103.661L19.3354 103.723C18.9832 102.669 18.7387 101.938 18.619 101.625C18.0943 100.262 16.8937 99.1866 15.2894 98.3492C13.1916 97.2504 10.3642 96.5554 7.79517 95.9239C5.74305 95.4194 3.85583 94.9555 2.63712 94.3587C2.37479 94.2296 2.14257 94.0954 1.97104 93.9471C1.83988 93.8442 1.73898 93.7483 1.7188 93.6222C1.67844 93.4517 1.78951 93.2791 1.95094 93.0602C1.99456 93 2.07594 92.9707 2.18195 92.9326L2.18224 92.9325C2.19876 92.9266 2.21587 92.9204 2.23353 92.9139C2.49586 92.811 2.8289 92.7323 3.2224 92.6697C4.40289 92.479 6.02733 92.4427 7.76275 92.4881C11.7684 92.592 16.3792 93.1449 17.6404 93.3982C18.5888 93.5859 19.6787 94.4576 20.9298 95.7067C22.2616 97.0405 23.7126 98.8106 25.204 100.822C25.0573 100.899 24.8777 100.994 24.6726 101.101C23.3255 101.797 20.4558 103.182 19.4643 103.661L19.4635 103.661ZM46.5181 140.168C44.9399 137.768 40.0664 133.29 33.5398 136.636C33.4799 136.666 33.4184 136.69 33.356 136.706C33.3777 136.739 33.3993 136.772 33.4209 136.804C35.005 139.179 36.5786 140.981 38.1425 141.768C38.8488 142.121 39.7872 142.148 40.8466 141.997C42.1987 141.806 43.7323 141.32 45.2861 140.692C45.6964 140.526 46.108 140.351 46.5181 140.168ZM123.907 135.051C126.728 128.372 133.221 128.591 136.027 129.395C135.299 131.646 134.321 133.337 132.886 134.12C130.018 135.688 126.923 135.882 123.853 135.158C123.873 135.124 123.891 135.088 123.907 135.051ZM108.035 154.233C107.642 153.098 107.48 151.593 107.45 149.878C109.417 149.936 110.961 150.435 112.051 151.156C113.524 152.133 114.14 153.513 113.625 154.595C113.181 155.527 111.94 156.111 109.932 156.07C108.963 156.055 108.408 155.319 108.035 154.233ZM19.8787 104.046C20.006 104.165 20.1007 104.32 20.1418 104.498C20.1017 104.322 20.0146 104.168 19.8787 104.046ZM21.3236 108.209C21.4639 108.319 21.5749 108.471 21.6363 108.653C21.5785 108.476 21.4789 108.324 21.3236 108.209ZM21.6682 108.771C21.6594 108.731 21.6488 108.691 21.6363 108.653C21.6492 108.691 21.6599 108.73 21.6682 108.771Z" fill="#232221"/>
<path d="M71.6721 124.984C72.2608 124.404 73.2117 124.41 73.7922 124.999C74.3727 125.588 74.3642 126.539 73.7756 127.119C73.187 127.699 72.2364 127.693 71.6559 127.104C71.0753 126.515 71.0835 125.564 71.6721 124.984Z" fill="#232221"/>
<path d="M72.3362 117.171C72.9248 116.591 73.8757 116.597 74.4562 117.186C75.0367 117.775 75.0283 118.726 74.4397 119.306C73.851 119.886 72.9004 119.881 72.3199 119.291C71.7394 118.702 71.7476 117.751 72.3362 117.171Z" fill="#232221"/>
<path d="M70.8128 132.484C71.4014 131.904 72.3523 131.91 72.9328 132.499C73.5133 133.088 73.5049 134.039 72.9162 134.619C72.3276 135.199 71.377 135.193 70.7965 134.604C70.216 134.015 70.2241 133.064 70.8128 132.484Z" fill="#232221"/>
<path d="M21.9152 50.5559C21.5688 50.5559 21.1821 50.3423 20.755 49.9152C20.3279 49.4881 20.1143 49.1244 20.1143 48.8243C20.1143 48.5126 20.247 48.2067 20.5126 47.9065C20.7781 47.5949 21.0436 47.439 21.3091 47.439C21.5746 47.439 21.8805 47.7507 22.2268 48.3741C22.5847 48.9974 22.7636 49.465 22.7636 49.7767C22.7636 49.9267 22.6655 50.0941 22.4693 50.2788C22.2846 50.4635 22.0999 50.5559 21.9152 50.5559Z" fill="#232221"/>
<path d="M21.032 39.3178C21.032 38.6367 21.3495 38.0306 21.9844 37.4996C22.6309 36.957 23.3524 36.6858 24.1489 36.6858C24.957 36.6858 25.6266 36.9282 26.1576 37.413C26.7001 37.8979 26.9714 38.5617 26.9714 39.4044C26.9714 39.9123 26.8271 40.4202 26.5385 40.9282C26.2499 41.4246 25.9209 41.8402 25.5515 42.1749C24.4779 43.1446 23.8084 43.9065 23.5429 44.4607C23.2196 45.1764 23.0061 45.6266 22.9022 45.8113C22.7175 46.1461 22.5097 46.3135 22.2788 46.3135C21.8632 46.3135 21.6554 45.7651 21.6554 44.6684C21.6554 44.2529 21.7593 43.843 21.9671 43.439C22.1749 43.035 22.4289 42.6829 22.729 42.3827C23.0292 42.071 23.3293 41.7709 23.6294 41.4823C24.3452 40.7897 24.703 40.1951 24.703 39.6987C24.703 39.514 24.6338 39.3697 24.4952 39.2658C24.3567 39.1504 24.172 39.0927 23.9411 39.0927C23.7102 39.0927 23.5082 39.1677 23.3351 39.3178C23.1734 39.4563 23.0926 39.6641 23.0926 39.9412C23.0926 40.2182 23.0061 40.3972 22.8329 40.478C22.5558 40.6165 22.3481 40.6858 22.2095 40.6858C22.0825 40.6858 21.8517 40.5126 21.5169 40.1663C21.1937 39.8084 21.032 39.5256 21.032 39.3178Z" fill="#232221"/>
<path d="M40.5849 56.7824C37.7131 54.4434 34.9324 52.1792 32.0801 50.1444C31.9108 50.0347 31.8391 49.7569 31.9173 49.5244C32.0019 49.2918 32.2038 49.1921 32.3731 49.3017C35.1407 50.9094 37.8889 52.6478 40.65 54.5871C40.6941 54.6177 40.7381 54.6482 40.7822 54.6787C40.9723 54.8103 41.1617 54.9413 41.3467 55.081C42.1718 55.6955 42.9809 56.3649 43.7982 57.041C43.884 57.112 43.9698 57.1831 44.0558 57.2541C44.1884 57.3643 44.3214 57.4744 44.4547 57.5846C45.0611 58.0863 45.673 58.5925 46.2763 59.1392C47.8396 60.5631 49.359 62.1533 50.9203 63.7875C51.0564 63.93 51.1929 64.0728 51.3297 64.2159C52.4172 65.3499 53.5178 66.5097 54.6183 67.7257C54.755 67.8613 54.7811 68.1182 54.6834 68.3002C54.5857 68.4822 54.3969 68.5197 54.2601 68.3841C52.046 66.3018 49.8776 64.3851 47.7351 62.608C47.3013 62.2504 46.8675 61.9059 46.4364 61.5635C46.0326 61.2429 45.6312 60.9241 45.2344 60.5982C44.7565 60.2046 44.2834 59.8076 43.8128 59.4128C43.0457 58.7691 42.2854 58.1312 41.5225 57.523C41.3974 57.4231 41.2713 57.3251 41.1454 57.2271C40.9567 57.0803 40.7685 56.9339 40.5849 56.7824Z" fill="#232221"/>
<path d="M26.094 128.87C25.7702 129.608 26.1061 130.469 26.8442 130.793C27.0329 130.876 27.237 130.918 27.4431 130.916L29.8867 130.895C30.6927 130.888 31.3405 130.229 31.3335 129.423C31.3318 129.215 31.2853 129.009 31.1975 128.82L29.9445 126.127C29.6046 125.396 28.7365 125.079 28.0055 125.419C27.6834 125.569 27.4273 125.831 27.2846 126.156L26.094 128.87Z" fill="#FDAF52"/>
<path d="M59.9301 129.156C59.5997 129.024 59.3289 128.776 59.168 128.459C58.8039 127.74 59.0913 126.862 59.8105 126.497L62.4577 125.156C62.6425 125.063 62.845 125.009 63.0517 125C63.857 124.964 64.5392 125.587 64.5754 126.393L64.6851 128.832C64.6944 129.039 64.6598 129.245 64.583 129.438C64.2849 130.187 63.4357 130.552 62.687 130.254L59.9301 129.156Z" fill="#FDAF52"/>
<path d="M29.5401 114.571C29.3341 114.573 29.13 114.531 28.9413 114.448C28.2031 114.124 27.8673 113.263 28.1911 112.525L29.3816 109.811C29.5243 109.486 29.7808 109.224 30.1025 109.074C30.8336 108.734 31.7017 109.051 32.0418 109.782L33.2946 112.475C33.3824 112.664 33.4288 112.869 33.4308 113.078C33.4376 113.884 32.7897 114.543 31.9838 114.55L29.5401 114.571Z" fill="#FDAF52"/>
<path d="M89.1789 155.391C88.9177 155.15 88.7536 154.821 88.7174 154.467C88.6352 153.665 89.2187 152.949 90.0207 152.867L92.9722 152.565C93.1777 152.544 93.3855 152.567 93.5814 152.632C94.3463 152.886 94.7601 153.712 94.5057 154.477L93.7355 156.794C93.67 156.991 93.5632 157.172 93.4225 157.324C92.8755 157.916 91.952 157.953 91.3599 157.406L89.1789 155.391Z" fill="#FDAF52"/>
<path d="M70.1093 152.768C69.766 152.862 69.4001 152.828 69.0805 152.671C68.3569 152.316 68.058 151.442 68.4129 150.718L69.7208 148.052C69.8119 147.865 69.9419 147.701 70.1018 147.569C70.7237 147.055 71.6436 147.143 72.1567 147.765L73.7104 149.647C73.8417 149.807 73.9376 149.991 73.9924 150.191C74.2056 150.968 73.7479 151.771 72.9706 151.984L70.1093 152.768Z" fill="#FDAF52"/>
<path d="M54.8748 144.795C54.551 145.534 54.8868 146.394 55.625 146.718C55.8137 146.801 56.0178 146.843 56.2239 146.841L58.6675 146.82C59.4735 146.813 60.1213 146.154 60.1142 145.348C60.1125 145.14 60.0661 144.934 59.9783 144.745L58.7252 142.052C58.3854 141.321 57.5173 141.004 56.7862 141.344C56.4642 141.494 56.2081 141.756 56.0654 142.081L54.8748 144.795Z" fill="#FDAF52"/>
<path d="M102.948 138.878C102.194 139.162 101.812 140.004 102.096 140.758C102.168 140.951 102.281 141.127 102.426 141.273L104.518 143.38C105.086 143.952 106.01 143.955 106.582 143.387C106.835 143.136 106.987 142.801 107.01 142.445L107.201 139.48C107.252 138.676 106.642 137.982 105.838 137.93C105.631 137.917 105.424 137.948 105.231 138.02L102.948 138.878Z" fill="#FDAF52"/>
<path d="M81.2828 136.058C80.5636 136.422 80.2761 137.3 80.6403 138.019C80.8012 138.336 81.0719 138.584 81.4023 138.716L84.1593 139.814C84.908 140.112 85.7572 139.747 86.0553 138.998C86.1321 138.806 86.1667 138.599 86.1574 138.392L86.0477 135.953C86.0115 135.147 85.3292 134.524 84.524 134.56C84.317 134.569 84.1148 134.623 83.93 134.716L81.2828 136.058Z" fill="#FDAF52"/>
<path d="M42.4673 131.758C42.1124 132.482 42.4114 133.356 43.135 133.711C43.4545 133.868 43.8205 133.902 44.1638 133.808L47.0251 133.024C47.8024 132.811 48.26 132.008 48.0468 131.23C47.9924 131.031 47.8962 130.846 47.7649 130.687L46.2112 128.805C45.6981 128.183 44.7782 128.095 44.1566 128.608C43.9966 128.74 43.8664 128.905 43.7752 129.091L42.4673 131.758Z" fill="#FDAF52"/>
<path d="M119.978 125.48C119.224 125.764 118.842 126.605 119.125 127.36C119.198 127.553 119.31 127.729 119.456 127.875L121.548 129.982C122.116 130.554 123.04 130.557 123.612 129.989C123.865 129.738 124.017 129.403 124.04 129.047L124.231 126.082C124.282 125.278 123.672 124.584 122.868 124.532C122.661 124.519 122.454 124.55 122.26 124.622L119.978 125.48Z" fill="#FDAF52"/>
<path d="M94.8105 128.098C94.6633 127.954 94.5486 127.78 94.4735 127.588C94.1801 126.837 94.551 125.99 95.302 125.697L98.0655 124.617C98.3973 124.488 98.7647 124.484 99.0989 124.606C99.8559 124.884 100.245 125.723 99.967 126.479L98.9448 129.268C98.8734 129.463 98.7612 129.64 98.6161 129.788C98.0514 130.363 97.1273 130.372 96.5519 129.807L94.8105 128.098Z" fill="#FDAF52"/>
<path d="M132.951 120.12C132.627 120.858 132.963 121.719 133.701 122.043C133.89 122.125 134.094 122.167 134.3 122.166L136.743 122.145C137.55 122.138 138.198 121.478 138.19 120.673C138.189 120.464 138.142 120.258 138.054 120.069L136.801 117.376C136.462 116.646 135.593 116.329 134.862 116.669C134.54 116.819 134.284 117.081 134.142 117.406L132.951 120.12Z" fill="#FDAF52"/>
<path d="M81.3548 118.861C81.0244 118.729 80.7536 118.482 80.5928 118.165C80.2286 117.446 80.516 116.567 81.2352 116.203L83.8825 114.862C84.0672 114.768 84.2698 114.715 84.4764 114.706C85.2817 114.669 85.9639 115.293 86.0001 116.098L86.1099 118.538C86.1192 118.744 86.0845 118.951 86.0077 119.143C85.7096 119.892 84.8605 120.257 84.1118 119.959L81.3548 118.861Z" fill="#FDAF52"/>
<path d="M112.045 118.386C111.838 118.387 111.634 118.345 111.446 118.263C110.708 117.939 110.372 117.078 110.696 116.34L111.886 113.626C112.029 113.3 112.285 113.039 112.607 112.889C113.338 112.549 114.206 112.865 114.546 113.596L115.799 116.289C115.887 116.478 115.933 116.684 115.935 116.892C115.942 117.699 115.294 118.358 114.488 118.364L112.045 118.386Z" fill="#FDAF52"/>
<path d="M96.5887 112.711C96.4433 112.565 96.3306 112.39 96.2583 112.196C95.9746 111.442 96.3564 110.6 97.1109 110.317L99.3934 109.459C99.587 109.386 99.794 109.355 100 109.368C100.805 109.42 101.415 110.114 101.363 110.918L101.173 113.883C101.15 114.239 100.998 114.574 100.745 114.825C100.173 115.393 99.2485 115.39 98.6804 114.818L96.5887 112.711Z" fill="#FDAF52"/>
<path d="M54.6787 112.963C54.4726 112.964 54.2685 112.923 54.0798 112.84C53.3416 112.516 53.0058 111.655 53.3296 110.917L54.5202 108.203C54.6628 107.878 54.919 107.616 55.241 107.466C55.9721 107.126 56.8402 107.443 57.18 108.174L58.4331 110.867C58.5209 111.056 58.5673 111.261 58.5693 111.47C58.5761 112.276 57.9282 112.935 57.1223 112.942L54.6787 112.963Z" fill="#FDAF52"/>
<path d="M126.13 105.179C125.983 105.035 125.868 104.861 125.793 104.668C125.5 103.918 125.87 103.071 126.621 102.778L129.385 101.698C129.716 101.568 130.084 101.565 130.418 101.687C131.175 101.965 131.564 102.803 131.286 103.56L130.264 106.349C130.193 106.544 130.081 106.721 129.936 106.869C129.371 107.444 128.447 107.453 127.871 106.888L126.13 105.179Z" fill="#FDAF52"/>
<path d="M101.028 101.125C100.822 101.127 100.618 101.085 100.429 101.002C99.6913 100.678 99.3554 99.8173 99.6792 99.0792L100.87 96.3653C101.012 96.04 101.269 95.778 101.591 95.6283C102.322 95.2882 103.19 95.605 103.53 96.336L104.783 99.0287C104.871 99.218 104.917 99.4237 104.919 99.6319C104.926 100.438 104.278 101.097 103.472 101.104L101.028 101.125Z" fill="#FDAF52"/>
</svg>
