<svg width="151" height="40" viewBox="0 0 151 40" fill="none" xmlns="http://www.w3.org/2000/svg">
<path fill-rule="evenodd" clip-rule="evenodd" d="M56.7466 22.9238C56.8442 23.6145 57.0361 24.1308 57.3221 24.4728C57.8452 25.0951 58.7415 25.4062 60.0111 25.4062C60.7714 25.4062 61.3887 25.3242 61.8631 25.16C62.7629 24.8455 63.2128 24.2608 63.2128 23.4059C63.2128 22.9067 62.9896 22.5203 62.5432 22.2468C62.0967 21.9801 61.3957 21.7441 60.4401 21.539L58.8078 21.1799C57.2035 20.8243 56.0944 20.4379 55.4805 20.0208C54.4412 19.3232 53.9215 18.2325 53.9215 16.7485C53.9215 15.3944 54.4238 14.2695 55.4282 13.3736C56.4327 12.4777 57.908 12.0298 59.8541 12.0298C61.4794 12.0298 62.8658 12.4521 64.0132 13.2966C65.1607 14.1412 65.7623 15.367 65.8181 16.9741H62.721C62.6652 16.0646 62.2607 15.4183 61.5073 15.0354C61.0051 14.7824 60.3808 14.6558 59.6344 14.6558C58.8043 14.6558 58.1417 14.82 57.6464 15.1482C57.1512 15.4765 56.9035 15.9347 56.9035 16.5228C56.9035 17.0631 57.1477 17.4665 57.6359 17.7332C57.9498 17.911 58.6195 18.1196 59.6449 18.359L62.3025 18.9847C63.4674 19.2583 64.3463 19.6241 64.9392 20.0823C65.86 20.7935 66.3204 21.8228 66.3204 23.17C66.3204 24.5514 65.7815 25.6986 64.7038 26.6115C63.6261 27.5245 62.1037 27.981 60.1366 27.981C58.1277 27.981 56.5478 27.5314 55.3968 26.6321C54.2459 25.7328 53.6704 24.4967 53.6704 22.9238H56.7466ZM71.0815 27.5912H68.0995V12.4709H71.0815V27.5912ZM76.4548 19.1591C76.0746 19.5831 75.8357 20.1575 75.7381 20.8824H80.3733C80.3244 20.1097 80.0855 19.5233 79.6565 19.1232C79.2275 18.7231 78.6957 18.5231 78.0609 18.5231C77.3703 18.5231 76.835 18.7351 76.4548 19.1591ZM80.6244 16.6356C81.3847 16.9844 82.0125 17.5349 82.5077 18.2872C82.9542 18.9505 83.2436 19.7199 83.3762 20.5952C83.4529 21.1081 83.4843 21.8467 83.4703 22.811H75.6648C75.7067 23.9325 76.0659 24.7189 76.7425 25.1703C77.1541 25.4507 77.6493 25.5909 78.2283 25.5909C78.8421 25.5909 79.3409 25.4199 79.7245 25.078C79.9338 24.8933 80.1186 24.6369 80.2791 24.3086H83.3239C83.2471 24.972 82.8949 25.6456 82.2671 26.3295C81.2905 27.4168 79.9233 27.9605 78.1655 27.9605C76.7146 27.9605 75.4346 27.5023 74.3255 26.5859C73.2164 25.6695 72.6619 24.1787 72.6619 22.1134C72.6619 20.1781 73.1624 18.6941 74.1634 17.6614C75.1643 16.6288 76.4635 16.1125 78.0609 16.1125C79.0096 16.1125 79.864 16.2869 80.6244 16.6356ZM87.9438 19.1591C87.5636 19.5831 87.3247 20.1575 87.2271 20.8824H91.8622C91.8134 20.1097 91.5745 19.5233 91.1455 19.1232C90.7165 18.7231 90.1846 18.5231 89.5499 18.5231C88.8593 18.5231 88.3239 18.7351 87.9438 19.1591ZM92.1134 16.6356C92.8737 16.9844 93.5015 17.5349 93.9967 18.2872C94.4432 18.9505 94.7326 19.7199 94.8652 20.5952C94.9419 21.1081 94.9733 21.8467 94.9593 22.811H87.1538C87.1957 23.9325 87.5549 24.7189 88.2315 25.1703C88.6431 25.4507 89.1383 25.5909 89.7173 25.5909C90.3311 25.5909 90.8299 25.4199 91.2135 25.078C91.4228 24.8933 91.6076 24.6369 91.7681 24.3086H94.8129C94.7361 24.972 94.3839 25.6456 93.7561 26.3295C92.7795 27.4168 91.4123 27.9605 89.6545 27.9605C88.2036 27.9605 86.9236 27.5023 85.8145 26.5859C84.7054 25.6695 84.1509 24.1787 84.1509 22.1134C84.1509 20.1781 84.6514 18.6941 85.6523 17.6614C86.6533 16.6288 87.9525 16.1125 89.5499 16.1125C90.4985 16.1125 91.353 16.2869 92.1134 16.6356ZM96.5083 12.5222H99.438V20.667L103.152 16.4612H106.846L102.859 20.7388L107.003 27.5912H103.404L100.673 22.811L99.438 24.0727V27.5912H96.5083V12.5222ZM117.241 17.0511C117.991 17.6563 118.366 18.6599 118.366 20.0618V27.5912H115.311V20.7901C115.311 20.202 115.231 19.7506 115.07 19.4361C114.777 18.8616 114.219 18.5744 113.396 18.5744C112.385 18.5744 111.691 18.995 111.314 19.8361C111.119 20.2806 111.021 20.8483 111.021 21.539V27.5912H108.05V16.4305H110.927V18.0615C111.311 17.487 111.673 17.0733 112.015 16.8203C112.629 16.3689 113.407 16.1432 114.348 16.1432C115.527 16.1432 116.492 16.4459 117.241 17.0511ZM127.815 24.6164C128.282 24.0077 128.516 23.1426 128.516 22.0211C128.516 20.8995 128.282 20.0362 127.815 19.4309C127.348 18.8257 126.678 18.5231 125.806 18.5231C124.934 18.5231 124.263 18.8257 123.792 19.4309C123.321 20.0362 123.086 20.8995 123.086 22.0211C123.086 23.1426 123.321 24.0077 123.792 24.6164C124.263 25.225 124.934 25.5293 125.806 25.5293C126.678 25.5293 127.348 25.225 127.815 24.6164ZM130.201 26.232C129.238 27.398 127.777 27.981 125.816 27.981C123.856 27.981 122.395 27.398 121.432 26.232C120.47 25.066 119.988 23.6624 119.988 22.0211C119.988 20.4072 120.47 19.0087 121.432 17.8256C122.395 16.6425 123.856 16.0509 125.816 16.0509C127.777 16.0509 129.238 16.6425 130.201 17.8256C131.163 19.0087 131.644 20.4072 131.644 22.0211C131.644 23.6624 131.163 25.066 130.201 26.232ZM132.178 18.5949V16.5125H133.769V13.3941H136.72V16.5125H138.571V18.5949H136.72V24.5035C136.72 24.9617 136.779 25.2472 136.897 25.3601C137.016 25.4729 137.379 25.5293 137.986 25.5293C138.076 25.5293 138.172 25.5276 138.273 25.5242C138.374 25.5208 138.474 25.5156 138.571 25.5088V27.6938L137.159 27.7451C135.75 27.7929 134.787 27.5536 134.271 27.027C133.936 26.6919 133.769 26.1756 133.769 25.478V18.5949H132.178ZM142.951 19.1591C142.571 19.5831 142.332 20.1575 142.234 20.8824H146.869C146.82 20.1097 146.581 19.5233 146.152 19.1232C145.723 18.7231 145.192 18.5231 144.557 18.5231C143.866 18.5231 143.331 18.7351 142.951 19.1591ZM147.12 16.6356C147.881 16.9844 148.508 17.5349 149.004 18.2872C149.45 18.9505 149.74 19.7199 149.872 20.5952C149.949 21.1081 149.98 21.8467 149.966 22.811H142.161C142.203 23.9325 142.562 24.7189 143.238 25.1703C143.65 25.4507 144.145 25.5909 144.724 25.5909C145.338 25.5909 145.837 25.4199 146.22 25.078C146.43 24.8933 146.615 24.6369 146.775 24.3086H149.82C149.743 24.972 149.391 25.6456 148.763 26.3295C147.786 27.4168 146.419 27.9605 144.661 27.9605C143.211 27.9605 141.931 27.5023 140.822 26.5859C139.712 25.6695 139.158 24.1787 139.158 22.1134C139.158 20.1781 139.658 18.6941 140.659 17.6614C141.66 16.6288 142.959 16.1125 144.557 16.1125C145.506 16.1125 146.36 16.2869 147.12 16.6356Z" fill="#232221"/>
<path fill-rule="evenodd" clip-rule="evenodd" d="M3.55331 0C1.7907 0 0.361816 1.39911 0.361816 3.125V36.875C0.361816 38.6009 1.7907 40 3.55331 40H38.0214C39.784 40 41.2129 38.6009 41.2129 36.875V3.125C41.2129 1.39911 39.784 0 38.0214 0H3.55331ZM14.8973 10.4H25.2074C30.3022 10.4 34.5085 14.4688 34.5085 19.6585V29.2235H14.8973C9.80241 29.2235 5.67245 25.0012 5.67245 19.8118C5.67245 14.6221 9.80241 10.4 14.8973 10.4ZM24.4605 27.009C26.6446 27.009 28.6199 26.1228 30.0399 24.805C31.4317 23.5133 32.2903 21.6714 32.2903 19.7154C32.2903 15.7635 28.7846 12.6145 24.4605 12.6145H15.7202C11.3961 12.6145 7.89061 15.8601 7.89061 19.8118C7.89061 23.7642 11.3961 27.009 15.7202 27.009H24.4605ZM22.285 17.9416C23.0636 17.9416 23.695 17.3067 23.695 16.5237C23.695 15.7408 23.0636 15.1059 22.285 15.1059C21.5061 15.1059 20.8748 15.7408 20.8748 16.5237C20.8748 16.5792 20.8787 16.6337 20.8848 16.6873L18.3565 18.567C18.2121 18.5166 18.0576 18.4882 17.8962 18.4882C17.1173 18.4882 16.486 19.1228 16.486 19.906C16.486 20.689 17.1173 21.3237 17.8962 21.3237C18.0945 21.3237 18.283 21.2822 18.4541 21.2078L20.8813 22.9663C20.8772 23.0103 20.8748 23.0548 20.8748 23.0998C20.8748 23.8828 21.5061 24.5176 22.285 24.5176C23.0636 24.5176 23.695 23.8828 23.695 23.0998C23.695 22.317 23.0636 21.6819 22.285 21.6819C22.0969 21.6819 21.9178 21.7197 21.7537 21.7869L19.3009 20.01L19.3014 20.0027C19.3037 19.9707 19.306 19.9386 19.306 19.906C19.306 19.8361 19.2994 19.768 19.2896 19.7008L21.783 17.8473C21.9391 17.9073 22.108 17.9416 22.285 17.9416Z" fill="#232221"/>
</svg>
