<svg width="18" height="18" viewBox="0 0 18 18" fill="none" xmlns="http://www.w3.org/2000/svg">
<path fill-rule="evenodd" clip-rule="evenodd" d="M0.25 3C0.25 1.48122 1.48122 0.25 3 0.25C4.51878 0.25 5.75 1.48122 5.75 3C5.75 4.51878 4.51878 5.75 3 5.75C1.48122 5.75 0.25 4.51878 0.25 3ZM3 1.75C2.30964 1.75 1.75 2.30964 1.75 3C1.75 3.69036 2.30964 4.25 3 4.25C3.69036 4.25 4.25 3.69036 4.25 3C4.25 2.30964 3.69036 1.75 3 1.75Z" fill="#09112B"/>
<path fill-rule="evenodd" clip-rule="evenodd" d="M0.25 11C0.25 9.48122 1.48122 8.25 3 8.25C4.51878 8.25 5.75 9.48122 5.75 11C5.75 12.5188 4.51878 13.75 3 13.75C1.48122 13.75 0.25 12.5188 0.25 11ZM3 9.75C2.30964 9.75 1.75 10.3096 1.75 11C1.75 11.6904 2.30964 12.25 3 12.25C3.69036 12.25 4.25 11.6904 4.25 11C4.25 10.3096 3.69036 9.75 3 9.75Z" fill="#09112B"/>
<path fill-rule="evenodd" clip-rule="evenodd" d="M12.25 7C12.25 5.48122 13.4812 4.25 15 4.25C16.5188 4.25 17.75 5.48122 17.75 7C17.75 8.51878 16.5188 9.75 15 9.75C13.4812 9.75 12.25 8.51878 12.25 7ZM15 5.75C14.3096 5.75 13.75 6.30964 13.75 7C13.75 7.69036 14.3096 8.25 15 8.25C15.6904 8.25 16.25 7.69036 16.25 7C16.25 6.30964 15.6904 5.75 15 5.75Z" fill="#09112B"/>
<path fill-rule="evenodd" clip-rule="evenodd" d="M12.25 15C12.25 13.4812 13.4812 12.25 15 12.25C16.5188 12.25 17.75 13.4812 17.75 15C17.75 16.5188 16.5188 17.75 15 17.75C13.4812 17.75 12.25 16.5188 12.25 15ZM15 13.75C14.3096 13.75 13.75 14.3096 13.75 15C13.75 15.6904 14.3096 16.25 15 16.25C15.6904 16.25 16.25 15.6904 16.25 15C16.25 14.3096 15.6904 13.75 15 13.75Z" fill="#09112B"/>
<path fill-rule="evenodd" clip-rule="evenodd" d="M4.45874 3.55242C4.58433 3.15771 5.00612 2.93954 5.40084 3.06514L13.0547 5.50048C13.4494 5.62607 13.6676 6.04787 13.542 6.44258C13.4164 6.83729 12.9946 7.05546 12.5999 6.92987L4.94603 4.49452C4.55131 4.36893 4.33314 3.94714 4.45874 3.55242Z" fill="#09112B"/>
<path fill-rule="evenodd" clip-rule="evenodd" d="M4.32645 11.8599C4.45204 11.4652 4.87383 11.247 5.26855 11.3726L12.9871 13.8286C13.3818 13.9542 13.6 14.376 13.4744 14.7707C13.3488 15.1654 12.927 15.3836 12.5323 15.258L4.81373 12.802C4.41902 12.6764 4.20085 12.2546 4.32645 11.8599Z" fill="#09112B"/>
<path fill-rule="evenodd" clip-rule="evenodd" d="M13.6793 7.61156C13.7931 8.00983 13.5625 8.42495 13.1642 8.53877L5.20242 10.8141C4.80415 10.9279 4.38902 10.6973 4.27521 10.299C4.16139 9.90077 4.39198 9.48564 4.79025 9.37182L12.7521 7.09651C13.1503 6.98269 13.5655 7.21329 13.6793 7.61156Z" fill="#09112B"/>
</svg>
