<svg width="160" height="160" viewBox="0 0 160 160" fill="none" xmlns="http://www.w3.org/2000/svg">
<g clip-path="url(#clip0)">
<path fill-rule="evenodd" clip-rule="evenodd" d="M56.1466 84.6207C57.255 83.7724 62.2211 79.954 62.4556 79.7142C63.4573 78.7199 64.6509 78.4215 65.9724 78.7657C66.0683 78.7913 66.175 78.8222 66.2709 78.8605C66.4734 78.8883 66.6438 78.9287 66.7717 78.9618C67.8374 79.2293 70.9171 83.3323 71.3967 82.711C72.0575 81.8424 72.6331 84.2466 72.8463 84.7092C74.6686 84.4982 75.052 86.6498 76.7465 87.7358C78.441 88.8175 80.6685 90.6611 81.2866 90.935C82.3203 90.8274 83.5353 91.0736 84.7502 91.811C85.5921 92.3205 86.8391 93.3958 87.5318 94.0064C87.8835 94.129 88.2242 94.3091 88.5226 94.5393C89.4072 93.983 90.4836 93.8466 91.8051 94.5094C94.1923 95.7009 93.8514 97.5723 93.7875 98.103L93.7662 98.2511C93.8408 98.5655 93.9364 98.9311 94.011 99.2124C94.0963 99.5129 94.1712 99.8017 94.2458 100.08C95.0344 100.109 95.7058 100.394 96.2707 100.851C96.8248 101.302 97.4853 102.028 97.5599 103.389C97.5706 103.662 97.5493 104.121 97.4001 104.722L97.4854 104.916L97.5066 104.966C98.7748 106.133 100.555 106.897 101.961 107.884C102.185 107.808 102.43 107.753 102.686 107.721C103.08 107.671 103.624 107.675 104.221 107.862C104.753 108.026 105.542 108.503 105.681 108.612C105.99 108.837 106.341 109.097 106.704 109.312C106.917 109.243 107.13 109.202 107.354 109.202C107.919 109.202 108.484 109.29 109.048 109.439C109.475 109.194 109.954 109.039 110.519 108.998C110.764 108.98 111.095 108.973 111.478 109.054C112.043 108.893 112.619 108.843 113.162 108.886C113.78 108.728 115.88 107.798 116.786 108.288C117.404 108.263 116.796 109.392 117.276 110.1C117.638 110.65 117.862 111.18 117.958 111.682C118.203 112.202 118.288 112.701 118.299 113.04C118.32 113.446 118.278 113.847 118.171 114.229C118.608 114.723 118.896 115.342 118.992 116.025L119.077 116.427C119.194 116.676 119.29 116.917 119.375 117.155C120.27 117.431 121.016 118.059 121.443 118.908L121.656 119.335C121.73 119.481 121.794 119.632 121.837 119.787C121.943 120.102 122.039 120.425 122.146 120.742C122.434 121.086 122.796 121.526 122.849 121.61C123.286 122.381 124.107 122.452 124.054 123.012C124.128 123.064 124.192 123.114 124.256 123.16C124.736 123.564 125.098 124.027 125.343 124.523C125.46 124.571 125.577 124.626 125.695 124.689C126.004 124.859 125.876 125.879 126.377 126.65C126.462 126.777 126.548 126.93 126.643 127.099C126.835 127.213 127.016 127.325 127.133 127.404C127.602 127.748 127.933 128.125 128.167 128.468C128.647 129.192 129.723 130.087 129.787 130.86C130.118 131.145 129.957 132.297 130.298 132.641C130.373 132.712 130.885 133.184 131.215 134.233C131.567 135.328 133.027 140.543 133.272 141.253C133.677 142.464 133.677 143.484 133.528 144.414C133.464 144.794 133.315 145.39 133.219 145.711C133.656 146.758 133.698 147.98 133.304 149.272C133.059 150.064 132.377 151.359 132.025 152.017C132.057 152.527 132.014 153.156 131.769 153.826C131.748 154.532 130.928 156.653 130.928 156.653C130.928 156.653 108.175 156.825 90.4305 157.016C76.4377 157.167 46.9707 156.634 46.9707 156.634C46.9707 156.634 48.4946 152.69 48.6438 151.674C48.825 150.495 49.3794 149.729 49.7524 149.359C50.7968 148.32 50.914 147.635 51.7239 146.033C52.0437 145.385 52.4166 144.76 52.8109 144.151C52.7256 143.359 52.779 142.743 52.8429 142.468C53.0667 141.597 53.5248 140.881 54.1643 140.303C54.3987 140.097 54.8037 139.856 55.1767 139.654C56.4129 136.641 60.7824 127.834 60.9103 127.317C61.1661 126.34 61.6456 125.817 61.8694 125.593C62.2531 125.214 64.5549 116.619 65.0878 115.981C65.1411 115.698 63.3613 109.537 63.0309 108.708C63.0096 108.65 62.9885 108.577 62.9672 108.492C62.8287 108.213 62.6899 107.903 62.5834 107.563C62.4235 107.109 62.3061 106.55 62.1995 106.049C61.8692 105.52 61.5497 105.011 61.4431 104.853C61.1128 104.365 60.6757 104.143 60.3454 103.859C59.9191 103.491 59.5355 103.104 59.2052 102.66C57.532 100.437 56.2423 97.7705 54.8782 95.4536C54.5798 95.183 53.9086 94.5467 53.6635 94.1609C53.2052 93.465 52.9599 92.6967 52.9599 91.8313C52.9599 90.7816 53.2798 89.8299 53.9299 88.956C53.802 88.5436 53.7699 88.1173 53.7913 87.6921C53.8232 87.236 54.0152 85.3837 56.1466 84.6207ZM131.769 153.751C131.823 153.568 131.865 153.415 131.865 153.415C131.865 153.415 131.833 153.524 131.769 153.693V153.751ZM64.8001 118.381C65.0666 117.787 65.3541 117.412 65.5033 117.262C65.2049 117.555 64.9493 117.944 64.8001 118.381ZM114.366 109.226C114.142 109.217 113.919 109.233 113.705 109.271C113.61 109.285 113.524 109.305 113.439 109.329C113.322 109.429 113.791 109.566 114.27 109.559C114.452 109.467 114.622 109.387 114.803 109.323L114.75 109.303L114.537 109.249L114.366 109.226ZM114.803 109.321L114.814 109.319L114.782 109.311L114.803 109.321ZM114.675 109.25L114.846 109.307L114.867 109.3L114.91 109.288C114.825 109.272 114.75 109.259 114.675 109.25Z" fill="#FFEAD1"/>
<path d="M113.033 72.5556C112.818 72.6667 112.609 72.8067 112.41 72.9708C111.58 73.5737 110.928 74.4335 110.598 75.4722C110.178 76.7905 110.33 78.1429 110.92 79.2495C111.502 80.3829 112.514 81.2981 113.819 81.7137C115.123 82.1294 116.476 81.9675 117.606 81.3792C117.786 81.289 117.961 81.1871 118.13 81.0741C118.215 81.0353 118.279 81.0017 118.311 80.9803C118.499 80.8551 118.668 80.6954 118.819 80.5102C119.369 79.9681 119.8 79.2816 120.054 78.4846C120.465 77.1933 120.315 75.8416 119.731 74.7074C119.15 73.574 118.14 72.6596 116.835 72.244C115.705 71.884 114.538 71.9565 113.511 72.3645C113.354 72.4095 113.195 72.4719 113.033 72.5556Z" fill="#FDAF52"/>
<path d="M95.3258 66.3927C95.3256 66.3952 95.3254 66.3976 95.3254 66.4C95.1294 66.4953 94.9297 66.6631 94.756 66.9325C94.6721 67.0614 94.5882 67.2283 94.5045 67.4253C94.3744 67.4546 94.2548 67.4992 94.1448 67.5548C93.802 67.7274 93.5334 68.0224 93.3549 68.4206C93.2252 68.7104 93.1439 69.0659 93.1091 69.4509C92.9151 69.7943 92.7733 70.1463 92.74 70.4337C92.6904 70.8651 92.8179 71.2165 93.0631 71.4641C93.1162 71.5181 93.1786 71.5703 93.2505 71.6171C93.2136 71.6434 93.1793 71.6718 93.1457 71.7014C92.7398 72.0581 92.5914 72.5516 92.7188 72.976C92.7265 73.038 92.7435 73.112 92.7741 73.1883C92.6243 73.2828 92.5056 73.4278 92.4448 73.6085C92.3081 74.0203 92.5286 74.4658 92.9382 74.6076C92.9382 74.6076 93.4727 74.7919 93.7452 74.8639L93.7543 74.8661C93.9128 74.9135 94.0709 74.9552 94.229 74.9899C94.3123 75.0578 94.4013 75.1118 94.4951 75.1527C94.3962 75.147 94.3409 75.1406 94.3409 75.1406L93.9472 75.0952L93.8554 75.8823L94.2487 75.9286C94.2487 75.9286 96.4132 76.1826 98.1027 75.0779C99.0587 74.453 99.874 73.4048 100.071 71.6407C100.259 69.7685 99.8121 68.517 99.119 67.6994C98.9289 67.4742 98.7204 67.2821 98.4995 67.1214C98.1429 66.8626 97.7653 66.6771 97.3957 66.5525C97.044 66.4325 96.7085 66.3622 96.4121 66.3272C95.8238 66.2576 95.4166 66.3085 95.4166 66.3085C95.3694 66.3095 95.3293 66.3458 95.3258 66.3927Z" fill="#FDAF52"/>
<path d="M113.744 65.8996C113.413 65.7942 113.058 65.8671 112.764 66.0828C112.53 66.2532 112.335 66.5144 112.232 66.8369C112.13 67.1595 112.138 67.4854 112.23 67.7594C112.345 68.1056 112.592 68.3704 112.923 68.4758C113.253 68.5809 113.609 68.5082 113.903 68.2925C114.136 68.1221 114.331 67.8607 114.433 67.5381C114.536 67.2156 114.529 66.89 114.437 66.616C114.322 66.2697 114.074 66.0046 113.744 65.8996Z" fill="#232221"/>
<path d="M102.103 61.8371C101.772 61.7317 101.417 61.8046 101.123 62.0203C100.89 62.1907 100.694 62.4519 100.592 62.7744C100.489 63.097 100.497 63.4229 100.589 63.6969C100.704 64.0431 100.952 64.3079 101.282 64.4133C101.612 64.5184 101.968 64.4457 102.262 64.23C102.496 64.0596 102.69 63.7982 102.793 63.4756C102.896 63.1531 102.888 62.8275 102.796 62.5534C102.681 62.2072 102.433 61.9421 102.103 61.8371Z" fill="#232221"/>
<path fill-rule="evenodd" clip-rule="evenodd" d="M104.14 73.6926C103.677 73.1227 103.535 72.4968 103.575 71.85C103.597 71.4947 103.677 71.1348 103.796 70.7779C103.914 70.4238 104.073 70.0746 104.229 69.7327L104.229 69.7325C104.276 69.6286 104.323 69.5254 104.368 69.423L107.007 63.2783C107.146 62.9649 107.514 62.8221 107.829 62.9596C108.142 63.1013 108.285 63.4672 108.145 63.7847L108.145 63.7849L105.51 69.9213C105.488 69.9722 105.465 70.0233 105.442 70.0746C105.279 70.4419 105.111 70.819 104.97 71.1938C104.871 71.4593 104.783 71.7194 104.741 71.98C104.677 72.3684 104.702 72.7525 104.936 73.129C105.078 73.346 105.024 73.6398 104.81 73.7902C104.595 73.9446 104.299 73.9011 104.14 73.6926ZM104.268 73.5571C104.272 73.5584 104.276 73.5641 104.279 73.5697L104.268 73.5571ZM104.763 73.2038L104.768 73.2098C104.766 73.2081 104.765 73.2064 104.763 73.2038ZM104.774 73.2165C104.772 73.2135 104.77 73.2117 104.768 73.2098L104.774 73.2165Z" fill="#232221"/>
<path d="M105.841 79.8028C106.103 79.623 106.184 79.2619 106.038 79C105.876 78.7068 105.511 78.6123 105.216 78.8066L105.22 78.8039C104.888 79.0129 104.49 79.1721 103.97 79.1733C103.589 79.1736 103.154 79.0825 102.638 78.8901L102.617 78.8829C102.252 78.7708 101.828 78.9793 101.687 79.378C101.54 79.7931 101.757 80.2147 102.138 80.3326C102.145 80.3337 102.152 80.3359 102.159 80.3381C102.877 80.5166 103.474 80.5565 103.983 80.5077C104.779 80.4313 105.369 80.1519 105.853 79.7937L105.841 79.8028Z" fill="#232221"/>
<path fill-rule="evenodd" clip-rule="evenodd" d="M26.0903 11.2502C25.387 8.90667 24.6622 6.30207 24.2466 4.30919C23.9269 2.73514 23.8307 1.49465 23.9905 0.929828C24.1184 0.501413 24.3638 0.254162 24.6196 0.124145C24.9499 -0.0389088 25.3656 -0.0687497 25.8451 0.203006C26.4632 0.550428 27.4436 1.75575 28.5306 3.479C31.2908 7.84521 35.1062 15.6249 36.5343 18.659C37.4976 20.7018 39.5931 26.4083 42.0426 33.0789L42.0427 33.0791L42.0428 33.0794C44.6064 40.0608 47.5578 48.098 50.0047 54.096C51.6672 58.1713 53.0741 61.2874 53.9587 62.4C54.0863 62.5595 54.2544 62.7724 54.4603 63.0332L54.4615 63.0346C58.0073 67.5245 72.7552 86.1988 85.1623 91.6964C88.2103 93.0445 91.0984 93.5944 93.6135 92.8079C95.8653 92.1026 97.78 90.3159 99.252 87.1732C98.6531 86.6683 98.0911 86.1196 97.5624 85.5477C96.1555 84.0265 95.0305 82.2717 94.324 80.3316C93.3436 79.9053 91.9385 79.1137 90.5598 78.2334C90.5369 78.2241 90.5138 78.2142 90.4907 78.2038C90.261 78.1016 90.0053 77.9257 89.8139 77.7824C89.5722 77.6799 89.3413 77.5737 89.3149 77.5544C89.0213 77.3445 88.7436 77.0944 88.4851 76.8207C87.8428 76.3515 87.2722 75.8975 86.8376 75.4985C86.2388 74.9493 85.7871 74.4482 85.5459 74.0759C85.3516 73.7755 85.2567 73.5067 85.2249 73.2968C85.168 72.9276 85.3287 72.2874 85.9318 71.6331C86.6965 70.8042 88.3024 69.6263 89.5154 68.7365L89.5156 68.7364L89.5158 68.7363C90.1773 68.251 90.722 67.8515 90.9495 67.6412C91.4208 67.2055 91.9725 66.742 92.5526 66.2545L92.5527 66.2545C93.7552 65.2442 95.0799 64.1312 96.0644 62.9502C96.262 62.1853 96.4668 61.4269 96.6781 60.689C96.3104 60.514 95.8994 60.312 95.6156 60.1539C95.3457 60.0038 95.1543 59.8605 95.0707 59.7793C94.2476 58.9747 93.6993 57.6776 93.4729 56.2275C93.1556 54.194 93.4599 51.8789 94.217 50.454C95.544 47.9581 97.4722 46.36 99.5634 45.1913C99.6307 45.022 99.7349 44.8287 99.8905 44.6223C100.452 43.8761 101.982 42.4926 103.766 41.0897C105.114 40.0288 106.607 38.9497 107.904 38.1241C109.075 37.3785 110.107 36.8402 110.77 36.6493C111.371 36.4764 111.833 36.5485 112.119 36.6856C112.263 36.7553 112.513 36.7452 112.796 36.7339C112.83 36.7325 112.863 36.7312 112.897 36.7299C113.563 36.706 114.336 36.5819 114.767 36.3945C115.682 35.9933 119.305 34.4861 122.946 33.4327C125.446 32.7095 130.509 33.24 134.479 34.6414C136.101 35.2151 137.54 35.9313 138.568 36.7394C139.373 37.3726 139.94 38.0761 140.227 38.8058C141.509 42.0608 141.859 45.2272 141.991 47.9586C142.028 48.7197 141.909 49.8886 141.782 51.1362C141.698 51.9546 141.611 52.8069 141.562 53.6001C141.525 54.1983 141.511 54.7604 141.546 55.2343L141.547 55.2511C141.57 55.5489 141.589 55.8 141.686 55.9582C142.221 56.8248 142.492 58.6305 142.371 59.4626C141.69 64.1459 139.241 71.5436 137.332 76.0247L137.33 76.0287L137.323 76.0459L137.313 76.0669L137.309 76.0753L137.306 76.0805L137.29 76.1117L137.284 76.1242L137.279 76.1323L137.274 76.1393L137.266 76.1526L137.255 76.172L137.249 76.1809L137.248 76.1842L137.243 76.1912L137.24 76.1961L137.236 76.2022C136.873 77.497 136.057 80.3803 135.509 82.1009C135.135 83.2738 133.508 88.0842 132.126 91.3167C131.469 92.8557 130.827 94.0545 130.402 94.4931C130.294 94.6053 130.102 94.762 129.77 94.8295C129.594 94.8642 129.189 94.878 128.619 94.8284C126.643 94.6556 122.024 93.8583 119.33 92.9646C117.468 100.487 117.411 105.98 118.375 110.316C119.555 115.624 122.261 119.17 124.886 122.609C125.154 122.96 125.421 123.31 125.686 123.661C127.071 125.496 128.382 127.352 129.437 129.43C131.899 134.344 133.796 140.365 133.849 146.131C133.892 150.116 133.06 153.98 130.929 157.276C130.801 157.471 130.546 157.529 130.354 157.407C130.162 157.284 130.098 157.027 130.226 156.832C132.166 153.644 132.858 149.947 132.72 146.157C132.517 140.598 130.513 134.845 127.998 130.174C126.954 128.202 125.643 126.464 124.3 124.718C124.148 124.52 123.995 124.322 123.842 124.124L123.839 124.12C120.941 120.372 117.965 116.521 116.67 110.694C116.547 110.138 116.439 109.565 116.349 108.971C106.715 110.931 94.5229 108.07 91.9944 94.877C89.6592 95.0557 87.1085 94.4627 84.4592 93.2896C78.2904 90.5573 71.5443 84.6427 65.8307 78.7696C65.7349 78.8563 65.6219 78.9276 65.4943 78.978C65.4943 78.978 57.299 82.2636 53.0255 91.8336L53.0225 91.8401C56.1834 96.7043 59.2765 101.573 61.5801 105.61C63.3065 108.62 64.5856 111.18 65.161 112.957C65.4914 113.994 65.5872 114.815 65.4699 115.357C64.4149 120.315 62.8803 124.601 61.1005 128.489C59.2918 132.46 57.2422 136.013 55.2534 139.46C51.9688 145.152 48.8502 150.557 47.2571 157.087C47.2038 157.325 46.9694 157.472 46.7243 157.417C46.4898 157.361 46.3404 157.124 46.3937 156.886C47.8796 150.238 50.9208 144.701 54.1287 138.861L54.1288 138.861L54.1292 138.86C56.0289 135.401 57.987 131.836 59.7151 127.871C61.3776 124.052 62.8377 119.86 63.7969 115.013C63.8928 114.513 63.6264 113.697 63.1895 112.608C62.5287 110.987 61.4416 108.881 60.0669 106.475C56.8391 100.826 52.0696 93.5508 47.732 86.9341L47.7319 86.9339L47.7317 86.9337L47.7316 86.9335L47.7314 86.9332C43.949 81.1634 40.495 75.8946 38.6781 72.6426C36.9623 69.5627 35.598 65.4107 34.479 60.9144C33.2597 56.0228 32.3281 50.7164 31.4979 45.9876C30.4941 40.27 29.6386 35.3969 28.602 33.1224C25.774 32.0551 23.5952 30.3083 22.1472 28.5019C20.538 26.4898 19.8559 24.3776 20.0691 22.9645C20.2822 21.6206 21.0918 20.67 22.019 19.9986C22.6051 19.5776 23.3938 19.1865 23.916 18.9478C23.7585 18.6559 23.5682 18.3063 23.3531 17.9114C21.9674 15.3668 19.5572 10.9411 18.321 7.94007C17.7029 6.42996 17.4152 5.21185 17.5218 4.63531C17.5964 4.21115 17.8094 3.93725 18.0758 3.77207C18.4382 3.54614 18.9284 3.48966 19.5146 3.75076C20.1114 4.01186 20.9109 4.69604 21.7954 5.66371C23.1276 7.13012 24.7049 9.26581 26.0903 11.2502ZM93.9509 94.5273C96.2549 106.443 107.414 108.823 116.119 106.996C115.798 103.059 116.196 98.2931 117.701 92.3048C115.738 91.3691 113.405 89.8373 111.948 88.681C111.073 87.9869 110.498 87.3691 110.335 87.0507C110.235 86.8568 110.162 86.5935 110.247 86.2564C110.279 86.1297 110.392 85.8604 110.676 85.5381C111.074 85.086 112.047 84.1806 113.234 83.0759L113.235 83.0756L113.235 83.075L113.236 83.0746L113.236 83.074L113.237 83.0736L113.237 83.0732C114.309 82.0762 115.554 80.9171 116.709 79.7822C118.22 78.2959 119.582 76.8698 120.07 75.95C122.067 72.1897 123.11 64.2606 123.425 61.4815C121.764 61.1535 118.444 60.4386 116.654 59.6552C115.404 59.1082 114.151 58.2187 112.906 57.3341C111.668 56.4549 110.436 55.5805 109.222 55.0523C109.166 55.0281 109.11 55.0037 109.054 54.9791C107.782 54.4247 106.262 53.7619 104.878 53.43C104.097 53.2432 103.373 53.1419 102.807 53.3284C102.275 53.5028 101.829 53.9771 101.425 54.5313C100.929 55.2124 100.582 55.9524 100.248 56.6639C100.073 57.0375 99.9015 57.4032 99.714 57.7484C99.4337 58.2657 98.8215 60.0855 98.8215 60.0855C98.7945 60.1715 98.6978 60.3019 98.5672 60.4405C98.2772 61.4111 97.9989 62.4282 97.7337 63.4566C97.7327 63.7648 97.6363 64.1086 97.4988 64.3839C96.9495 66.5887 96.4618 68.7977 96.0486 70.6695L96.0485 70.6697L96.0485 70.67L96.0481 70.6717L96.047 70.6767C95.8749 71.4563 95.7157 72.1772 95.5704 72.8148C94.5305 77.3765 96.1048 81.3613 98.8467 84.3683C99.7011 85.3056 100.688 86.1215 101.705 86.8927C103.422 88.1939 105.255 89.3359 107.208 90.0303C108.095 90.3453 108.99 90.573 109.878 90.7281L109.825 91.1731C108.894 91.1124 107.952 90.9609 107.002 90.7518C104.85 90.279 102.667 89.512 100.74 88.2759C100.717 88.2613 100.695 88.2467 100.672 88.2321C98.9598 91.7275 96.7077 93.668 94.136 94.4715C94.0745 94.4907 94.0128 94.5093 93.9509 94.5273ZM53.0892 64.1108C54.77 66.2292 58.9732 71.5267 64.2687 77.139C62.5171 77.9499 55.7713 81.4984 51.6259 89.6971C50.8144 88.455 50.0054 87.2212 49.2111 86.0098C45.4467 80.2685 42.0121 75.0303 40.2022 71.7921C38.5397 68.8252 37.2501 64.8224 36.1737 60.4935C34.9477 55.5775 33.9993 50.2495 33.1525 45.4923C32.1252 39.7205 31.2474 34.7889 30.2048 32.4531C30.1974 32.0942 29.9703 31.7596 29.6176 31.6361C27.4222 30.8838 25.6534 29.6731 24.3319 28.342C22.5522 26.5346 21.5929 24.5385 21.7954 23.2341C21.934 22.3186 22.5628 21.7229 23.2129 21.2956C23.7369 20.9442 24.2885 20.7002 24.706 20.5155C24.8064 20.4711 24.8991 20.43 24.9817 20.3918C25.5253 20.1414 25.8024 19.8217 25.8664 19.648C25.9729 19.3815 25.9624 19.1236 25.8451 18.8711C25.6845 18.5547 25.3617 17.9621 24.9407 17.1893C24.1604 15.7569 23.0431 13.7058 21.9977 11.6498C20.8788 9.44911 19.8343 7.24522 19.408 5.82249C19.3973 5.79372 19.3868 5.76389 19.3868 5.73405C20.2606 6.45873 21.3796 7.80579 22.5306 9.31696C25.2588 12.8818 28.0723 17.3673 28.0723 17.3673C28.3068 17.7414 28.7863 17.881 29.1913 17.6903C29.5856 17.5006 29.7774 17.0412 29.6388 16.6235C29.6388 16.6235 28.2961 12.6889 27.1664 8.72869C26.495 6.35855 25.8875 3.98095 25.6957 2.45912C25.7703 2.54011 25.8345 2.6243 25.8984 2.70849C27.0707 4.2591 28.6587 7.02036 30.1933 9.91057C32.1542 13.5841 34.0511 17.4675 34.957 19.4018C35.9102 21.429 37.9817 27.0748 40.4074 33.6861L40.4075 33.6863C42.9716 40.6749 45.9315 48.7421 48.3849 54.7546C50.1433 59.0505 51.6566 62.3169 52.5945 63.4892C52.7211 63.6469 52.8866 63.8555 53.0887 64.1102L53.0892 64.1108ZM135.018 75.845C135.041 75.8284 135.064 75.8108 135.087 75.7921C135.075 75.8336 135.063 75.8763 135.051 75.9201L135.032 75.9873C135.031 75.977 135.031 75.9666 135.03 75.9563L135.029 75.942C135.026 75.9081 135.022 75.8759 135.018 75.845ZM132.752 83.3069C132.762 83.3329 132.771 83.3599 132.779 83.3879C132.791 83.3537 132.803 83.3197 132.814 83.286C132.794 83.2938 132.773 83.3007 132.752 83.3069ZM99.7013 45.115C99.7239 45.1026 99.7466 45.0902 99.7693 45.0779C99.8748 44.9075 99.9611 44.7937 99.9611 44.7937C99.9611 44.7937 99.8297 44.9363 99.7013 45.115ZM137.68 52.0231C138.288 52.5915 138.862 53.1419 139.377 53.6519C139.424 52.8414 139.516 51.961 139.605 51.1189C139.732 49.9189 139.85 48.7966 139.815 48.0643C139.692 45.5406 139.384 42.6117 138.199 39.6042C138.035 39.1888 137.679 38.8139 137.221 38.4522C136.352 37.7686 135.125 37.1816 133.753 36.6974C130.238 35.4553 125.765 34.8852 123.551 35.5264C120.03 36.5456 116.526 38.0035 115.641 38.3911C114.924 38.7051 113.549 38.9378 112.516 38.9116C112.085 38.9003 111.706 38.8375 111.416 38.7442C111.154 38.859 109.989 39.3803 109.075 39.9624C107.833 40.7532 106.405 41.7876 105.114 42.8027C104.358 43.3973 103.589 44.0836 102.962 44.6696C104.941 44.583 107.024 45.0626 109.01 45.5202C109.523 45.6383 110.03 45.7549 110.526 45.86C117.049 47.2368 122.449 51.3908 127.274 55.7114C132.661 60.5358 135.566 67.0746 136.758 71.5253C138.245 67.462 139.718 62.5624 140.213 59.1494C140.285 58.6648 140.143 57.6073 139.831 57.1011C139.673 56.8449 139.552 56.4901 139.47 56.0606C138.741 54.9621 137.503 53.3653 136.094 51.7696C135.388 50.9702 134.64 50.179 133.899 49.4424C133.08 48.6259 132.266 47.8891 131.548 47.2851C131.199 47.0007 130.866 46.7356 130.552 46.4996C130.175 46.2148 129.826 45.9716 129.521 45.7767C129.418 45.7123 129.388 45.5774 129.453 45.4756C129.517 45.3734 129.652 45.344 129.754 45.408C130.012 45.5702 130.298 45.7674 130.609 45.9896C130.989 46.2616 131.405 46.5729 131.842 46.9161C132.738 47.5959 133.756 48.4789 134.811 49.4121C135.777 50.2657 136.762 51.1637 137.68 52.0231Z" fill="#232221"/>
<path d="M111.939 152.752C113.058 150.039 114.359 147.321 114.359 147.321C114.593 146.901 115.126 146.751 115.541 146.986C115.968 147.222 116.117 147.755 115.882 148.174C115.882 148.174 114.252 150.656 112.888 153.203C112.206 154.464 111.609 155.741 111.268 156.712C111.204 156.906 111.001 157.016 110.81 156.956C110.618 156.897 110.5 156.692 110.564 156.498C110.831 155.471 111.364 154.117 111.939 152.752Z" fill="#232221"/>
<path d="M75.074 151.709C75.2082 151.731 75.3452 151.725 75.4763 151.69C75.9896 151.554 76.2952 151.027 76.1589 150.514L75.083 146.459C75.023 146.233 74.8827 146.037 74.6882 145.906C74.2468 145.611 73.6498 145.73 73.3547 146.171L71.0174 149.666C70.9408 149.78 70.8899 149.91 70.8675 150.045C70.7817 150.569 71.1369 151.063 71.6607 151.149L75.074 151.709Z" fill="#FDAF52"/>
<path d="M110.982 113.04C111.116 113.062 111.253 113.055 111.385 113.021C111.897 112.884 112.203 112.358 112.067 111.845L110.991 107.79C110.931 107.564 110.791 107.367 110.596 107.237C110.155 106.942 109.558 107.061 109.263 107.502L106.925 110.997C106.849 111.111 106.798 111.24 106.776 111.375C106.69 111.899 107.045 112.394 107.569 112.48L110.982 113.04Z" fill="#FDAF52"/>
<path d="M71.6121 89.1562C71.746 89.1779 71.8829 89.1714 72.0145 89.1368C72.5273 89.0004 72.8329 88.4742 72.697 87.961L71.6207 83.9062C71.5608 83.6801 71.4204 83.4838 71.2259 83.3537C70.7849 83.0586 70.1879 83.1772 69.8924 83.618L67.5552 87.113C67.479 87.2271 67.428 87.3564 67.4056 87.492C67.3195 88.0158 67.6745 88.5103 68.1985 88.596L71.6121 89.1562Z" fill="#FDAF52"/>
<path d="M63.5181 108.186C63.6523 108.208 63.7894 108.201 63.9205 108.167C64.4338 108.03 64.7393 107.504 64.603 106.991L63.5271 102.936C63.4672 102.71 63.3268 102.514 63.1323 102.384C62.6909 102.089 62.0939 102.207 61.7988 102.648L59.4616 106.143C59.3849 106.257 59.334 106.386 59.3116 106.522C59.2259 107.046 59.5809 107.54 60.1049 107.626L63.5181 108.186Z" fill="#FDAF52"/>
<path d="M81.506 106.027C81.6154 105.946 81.7066 105.844 81.773 105.725C82.0338 105.263 81.8706 104.676 81.4081 104.416L78.4017 102.72C78.2831 102.653 78.1517 102.612 78.0159 102.6C77.4869 102.552 77.0195 102.942 76.9723 103.471L76.5949 107.66C76.5739 107.893 76.639 108.127 76.7782 108.316C77.0931 108.743 77.6949 108.834 78.1227 108.52L81.506 106.027Z" fill="#FDAF52"/>
<path d="M78.0558 127.892C78.1662 127.812 78.2586 127.71 78.327 127.593C78.5938 127.134 78.438 126.546 77.979 126.279L74.3474 124.169C74.1447 124.051 73.9058 124.011 73.6757 124.057C73.1552 124.161 72.8177 124.668 72.9219 125.188L73.746 129.311C73.7727 129.445 73.8278 129.572 73.9074 129.683C74.2166 130.115 74.8172 130.214 75.2489 129.904L78.0558 127.892Z" fill="#FDAF52"/>
<path d="M94.468 121.358C94.6019 121.38 94.7388 121.374 94.8704 121.339C95.3833 121.203 95.6888 120.676 95.5529 120.163L94.4766 116.108C94.4167 115.882 94.2763 115.686 94.0822 115.556C93.6408 115.261 93.0439 115.379 92.7483 115.82L90.4111 119.315C90.3349 119.429 90.284 119.559 90.2615 119.694C90.1754 120.218 90.5304 120.713 91.0544 120.798L94.468 121.358Z" fill="#FDAF52"/>
<path d="M132.673 152.543C132.886 152.639 133.128 152.653 133.352 152.584C133.859 152.426 134.142 151.887 133.984 151.38L132.734 147.366C132.693 147.235 132.625 147.115 132.534 147.013C132.182 146.616 131.574 146.58 131.177 146.933L128.595 149.229C128.494 149.319 128.413 149.43 128.357 149.554C128.14 150.038 128.356 150.607 128.841 150.824L132.673 152.543Z" fill="#FDAF52"/>
<path d="M93.899 142.102C94.1272 142.049 94.3288 141.916 94.4651 141.726C94.775 141.294 94.6767 140.694 94.2454 140.384L90.8337 137.933C90.7229 137.853 90.5966 137.798 90.4629 137.771C89.9424 137.666 89.4356 138.003 89.3306 138.524L88.6474 141.912C88.6204 142.046 88.6218 142.184 88.6522 142.317C88.7708 142.834 89.2867 143.158 89.8039 143.039L93.899 142.102Z" fill="#FDAF52"/>
<path d="M109.342 133.068C109.451 132.988 109.542 132.885 109.609 132.767C109.87 132.304 109.706 131.718 109.244 131.457L106.238 129.761C106.119 129.694 105.987 129.653 105.851 129.641C105.323 129.593 104.855 129.984 104.808 130.512L104.431 134.7C104.409 134.934 104.475 135.168 104.614 135.357C104.929 135.784 105.531 135.876 105.958 135.561L109.342 133.068Z" fill="#FDAF52"/>
<path d="M58.0129 142.062C58.2411 142.009 58.4426 141.876 58.5794 141.686C58.8889 141.254 58.7905 140.654 58.3593 140.344L54.9476 137.893C54.8368 137.813 54.7105 137.758 54.5768 137.731C54.0563 137.626 53.5495 137.963 53.4446 138.483L52.7613 141.872C52.7343 142.006 52.7358 142.143 52.7666 142.276C52.8847 142.794 53.4006 143.117 53.9178 142.999L58.0129 142.062Z" fill="#FDAF52"/>
<path d="M102.124 159.918C102.338 160.014 102.58 160.029 102.804 159.959C103.31 159.801 103.594 159.262 103.436 158.755L102.185 154.741C102.145 154.611 102.077 154.49 101.986 154.388C101.633 153.991 101.025 153.955 100.629 154.309L98.0468 156.604C97.9453 156.694 97.864 156.805 97.8084 156.929C97.591 157.414 97.8079 157.982 98.2924 158.199L102.124 159.918Z" fill="#FDAF52"/>
<path d="M124.528 140.562C124.638 140.482 124.729 140.379 124.795 140.26C125.057 139.798 124.893 139.212 124.43 138.951L121.424 137.255C121.305 137.188 121.174 137.147 121.038 137.135C120.509 137.087 120.042 137.477 119.995 138.006L119.617 142.194C119.596 142.428 119.661 142.662 119.801 142.851C120.115 143.278 120.718 143.37 121.145 143.055L124.528 140.562Z" fill="#FDAF52"/>
<path d="M124.173 122.162C124.367 122.031 124.507 121.834 124.566 121.607C124.701 121.094 124.393 120.569 123.88 120.434L119.817 119.371C119.685 119.336 119.548 119.33 119.414 119.353C118.89 119.441 118.537 119.937 118.626 120.46L119.201 123.868C119.223 124.003 119.274 124.132 119.35 124.245C119.647 124.685 120.244 124.803 120.684 124.506L124.173 122.162Z" fill="#FDAF52"/>
</g>
<defs>
<clipPath id="clip0">
<rect width="160" height="160" fill="white"/>
</clipPath>
</defs>
</svg>
