<svg width="160" height="160" viewBox="0 0 160 160" fill="none" xmlns="http://www.w3.org/2000/svg">
<g clip-path="url(#clip0)">
<path d="M96.2295 13.7785C95.4572 13.4705 94.8106 13.3721 94.143 13.3967C93.3547 13.2735 92.5541 13.2489 91.8027 13.3228C90.4786 13.4583 89.3073 13.914 88.519 14.6407C87.5742 15.5152 86.9276 17.1411 86.9276 18.3974C86.9276 18.4858 86.9273 18.575 86.927 18.6649C86.9239 19.5397 86.9207 20.4778 87.201 21.3044C87.7146 22.807 88.9266 23.8416 90.4343 24.3959C92.4444 25.1473 94.9707 24.9995 96.5793 24.2851C99.012 23.1889 100.096 21.0211 99.9937 18.9025C99.8927 16.8209 98.6178 14.7392 96.2295 13.7785Z" fill="#FFEAD1"/>
<path d="M109.361 13.9853C109.494 13.8006 109.674 13.6528 109.892 13.5542C110.566 13.2586 111.355 13.5419 111.672 14.207C111.926 14.1454 112.184 14.1578 112.443 14.2317C112.726 14.3056 113.059 14.4903 113.351 14.8229L113.36 14.8341C113.419 14.9044 113.478 14.9757 113.535 15.0692C114.124 15.525 114.733 16.1039 114.825 16.2024L115.325 16.6089L115.442 16.7074C115.743 16.8306 116.017 16.9784 116.266 17.1631C116.908 17.6189 117.398 18.2717 117.748 19.06C117.917 19.2941 118.084 19.5527 118.252 19.836C118.287 19.8931 118.357 19.9927 118.446 20.1184L118.446 20.1186L118.446 20.1189C118.703 20.4812 119.113 21.0597 119.265 21.4619C119.433 21.893 119.428 22.2748 119.356 22.558L119.407 22.6443C119.414 22.6555 119.422 22.6694 119.429 22.6834C119.438 22.7001 119.447 22.7172 119.456 22.7305L119.475 22.7797H119.481C119.553 22.8784 119.621 22.9797 119.689 23.0806C119.832 23.2946 119.975 23.5071 120.156 23.6913L120.176 23.7035L120.188 23.7159C121.291 24.8368 121.022 25.5265 120.371 25.8221L120.342 25.8837C120.31 26.1054 120.245 26.3148 120.151 26.4995C120.371 26.6966 120.578 26.9923 120.702 27.4111C120.904 28.0995 120.904 29.4548 120.904 29.9841C120.904 30.0609 120.904 30.1203 120.905 30.1578C120.93 31.5268 120.805 32.8887 120.68 34.249V34.2491C120.64 34.6879 120.6 35.1265 120.565 35.5651C120.572 36.0578 120.576 36.5504 120.551 37.0307C120.535 37.3633 120.454 38.2133 120.427 38.3364C120.322 38.7922 120.084 39.0508 119.836 39.1986C119.783 39.3957 119.719 39.5804 119.645 39.7405C119.348 40.381 118.888 40.7998 118.329 40.9969C117.827 41.1693 117.18 41.194 116.379 40.7875C115.953 40.5781 115.541 40.3072 115.138 39.9993C114.568 40.0608 114.071 40.0854 114.071 40.0854C113.365 40.11 112.756 39.5927 112.673 38.8783C112.63 38.5211 112.737 38.1639 112.947 37.8929C112.704 37.6341 112.467 37.3727 112.234 37.1169L112.234 37.1162L112.234 37.1159C111.958 36.8122 111.689 36.5165 111.428 36.2425C111.282 36.0871 111.086 35.9286 110.878 35.7606C110.673 35.5957 110.458 35.4216 110.268 35.2325C110.193 35.1709 110.12 35.097 110.052 35.0108C109.939 35.0231 109.841 35.0231 109.771 35.0108C109.384 34.9862 108.985 34.8137 108.703 34.3456C108.625 34.2225 108.498 33.9515 108.488 33.545C108.479 33.2124 108.565 32.498 108.671 32.0054C108.683 31.9514 108.695 31.8973 108.706 31.843C108.89 30.994 109.079 30.1169 109.352 29.2833C109.362 29.2094 109.441 28.692 109.498 28.5072C109.605 28.1623 109.786 27.9283 109.939 27.7929C110.067 27.682 110.204 27.5958 110.346 27.5342C110.533 25.6207 110.456 23.6398 110.38 21.7112C110.354 21.0327 110.328 20.3607 110.313 19.7004C110.3 19.5294 110.301 19.414 110.301 19.2174C110.301 19.1875 110.301 19.1557 110.301 19.1216V18.6905L110.302 18.6781L110.303 18.5674C110.304 18.5365 110.305 18.5055 110.307 18.4776L110.307 18.4775C110.307 18.461 110.308 18.4455 110.308 18.4318L110.313 18.3702C110.127 17.7174 109.914 17.0769 109.67 16.4488C109.652 16.4346 109.636 16.4163 109.619 16.3986C109.607 16.3856 109.596 16.373 109.584 16.3625C109.137 15.9314 108.944 15.4388 108.944 14.9954C108.944 14.4534 109.17 14.1578 109.361 13.9853Z" fill="#FFEAD1"/>
<path d="M121.056 92.3784C121.056 92.323 121.302 92.1197 121.425 92.0557C121.672 91.9276 121.795 91.8832 121.918 91.8758C122.288 91.866 122.411 91.9436 122.657 92.1012C122.78 92.2072 122.904 92.3599 123.027 92.6001V92.6383C123.273 92.743 123.396 92.924 123.396 93.0066C123.396 93.0149 123.416 93.0257 123.44 93.0386C123.475 93.0579 123.519 93.082 123.519 93.11V93.232L123.643 93.2652C123.847 93.3522 123.967 93.4859 124.072 93.6035C124.08 93.6119 124.087 93.6203 124.094 93.6285C124.103 93.6377 124.111 93.6467 124.119 93.6556C124.124 93.6614 124.13 93.6672 124.135 93.6729C124.382 93.9562 124.382 94.2567 124.258 94.5499C124.258 94.7396 124.135 94.997 123.766 95.1781C123.707 95.1968 123.677 95.2146 123.647 95.2316C123.615 95.2505 123.584 95.2684 123.519 95.2852C123.519 95.4323 123.405 95.601 123.287 95.776L123.273 95.7964C123.234 95.8208 123.194 95.8458 123.154 95.8712C122.945 96.0041 122.721 96.1459 122.411 96.2607C122.339 96.2986 122.226 96.3349 122.12 96.369L122.12 96.369C122.043 96.3936 121.97 96.4171 121.918 96.4393C121.918 96.4706 121.886 96.5016 121.855 96.532C121.825 96.5616 121.795 96.5907 121.795 96.6192C121.425 96.9505 120.44 97.2658 120.194 97.3397C120.071 97.3951 119.701 97.5011 119.578 97.5208V97.5245L119.455 97.5614C119.455 97.5725 119.424 97.5836 119.393 97.5947C119.362 97.6058 119.332 97.6169 119.332 97.628L119.208 97.6723C118.962 97.9199 118.592 98.16 118.223 98.3756C117.484 98.7426 116.745 99.0469 116.006 99.2341C116.006 99.2435 115.974 99.2526 115.943 99.2615C115.913 99.2701 115.883 99.2786 115.883 99.2871C115.76 99.3671 115.39 99.5051 114.897 99.6775L114.851 99.7129L114.851 99.7131C114.743 99.795 114.635 99.8769 114.528 99.9522C114.281 100.132 112.434 100.712 111.202 100.978C110.956 101.036 110.709 101.074 110.463 101.095C109.355 101.446 108.246 101.759 107.384 101.946C106.522 102.142 106.029 102.157 105.783 102.1C105.413 102.015 105.29 101.868 105.167 101.718C104.674 101.829 104.428 101.855 104.305 101.852C103.963 101.842 103.832 101.75 103.717 101.669C103.707 101.662 103.698 101.656 103.689 101.649C103.566 101.72 103.442 101.774 103.319 101.808C102.826 102.009 102.457 101.842 102.211 101.722C101.718 101.837 101.472 101.847 101.348 101.835C101.002 101.784 100.872 101.602 100.756 101.439C100.748 101.428 100.74 101.418 100.733 101.407C100.609 101.386 100.486 101.358 100.486 101.324C100.262 101.413 100.037 101.482 99.9058 101.523C99.8931 101.527 99.8813 101.53 99.8704 101.534C99.624 101.606 99.3777 101.605 99.2545 101.582C99.1313 101.651 99.0082 101.717 98.7618 101.778C98.7279 101.79 98.6939 101.806 98.6573 101.824C98.5613 101.87 98.4475 101.925 98.2691 101.943C98.0228 101.988 97.8996 101.945 97.7765 101.897C97.6533 101.864 97.5301 101.822 97.5301 101.774C97.2896 101.833 97.1665 101.888 97.0461 101.942L97.0374 101.946C96.917 101.969 96.7966 102.006 96.6905 102.038C96.5797 102.072 96.4845 102.101 96.4216 102.104C96.2984 102.111 96.1752 102.084 96.052 102.05C95.6825 101.945 95.5594 101.744 95.4362 101.494C95.0667 101.431 94.8203 101.189 94.6972 100.983C94.0813 101.228 93.5886 101.392 93.4654 101.407C92.7264 101.51 92.4801 100.96 92.4801 100.768C92.3569 100.7 92.3569 100.622 92.3569 100.536C92.2891 100.52 92.2586 100.5 92.2244 100.479C92.1964 100.461 92.1659 100.442 92.1105 100.421C91.741 100.399 91.3715 100.234 91.1252 100.035V100.033C91.037 100.036 91.012 100.032 90.9597 100.023C90.9389 100.019 90.9138 100.015 90.8788 100.01C90.7557 100.051 90.6325 100.074 90.5093 100.084C90.2816 100.114 90.1591 100.095 90.0446 100.077L90.0437 100.077C90.0346 100.076 90.0256 100.074 90.0166 100.073C90.0032 100.067 89.9884 100.061 89.9724 100.055L89.9715 100.055L89.9703 100.054L89.9702 100.054C89.839 100.001 89.6331 99.9186 89.5239 99.8204V99.7884C89.4213 99.812 89.3187 99.8452 89.216 99.8784C89.0723 99.925 88.9286 99.9715 88.7849 99.9916C88.5414 100.038 88.4183 100.008 88.2965 99.9791L88.2922 99.978C87.9227 99.8869 87.6764 99.7071 87.6764 99.4878C87.43 99.5162 87.3068 99.5186 87.3068 99.5125C87.0605 99.4891 86.9373 99.4386 86.8142 99.3757C86.691 99.4201 86.5678 99.4435 86.4446 99.4509C86.1983 99.4681 85.952 99.4078 85.8288 99.3351C85.5824 99.1799 85.3361 98.9373 85.3361 98.6441V98.6342C85.2129 98.6244 85.2129 98.6145 85.2129 98.6059C84.8434 98.4396 84.7202 98.144 84.5971 97.8189C84.4739 97.7031 84.3507 97.5565 84.3507 97.458C84.2276 97.2437 84.1044 97.0022 84.2276 96.7473C83.9812 96.6376 83.7349 96.4566 83.7349 96.2373C83.6117 96.1942 83.6117 96.1462 83.6117 96.0908V95.9774C83.4885 95.7767 83.3653 95.4922 83.4885 95.1128C83.5027 95.095 83.5185 95.0744 83.5366 95.0509C83.675 94.8703 83.9432 94.5203 84.5971 94.019C84.7884 93.8899 84.9054 93.8462 84.9481 93.8302C84.9604 93.8256 84.9666 93.8233 84.9666 93.822C85.3361 93.7111 85.5824 93.8392 85.8288 93.9759C85.9076 93.927 86.037 93.8837 86.1198 93.8559C86.1664 93.8403 86.1983 93.8296 86.1983 93.8256C86.5678 93.732 86.8142 93.8318 87.0605 93.9685C87.1837 93.9932 87.3068 94.0535 87.43 94.12L87.5532 94.0917C88.0459 93.9143 88.4154 94.1213 88.5386 94.3651C89.1464 94.1646 89.5142 94.4774 89.7605 94.6869L89.7703 94.6952C90.1398 94.7593 90.3861 94.9637 90.5093 95.215C91.1252 94.997 91.4947 95.4318 91.4947 95.5636C91.6179 95.5771 91.6179 95.6153 91.6179 95.672V95.6498C91.741 95.5968 91.9874 95.4503 91.9874 95.4343C92.5965 95.1346 92.9646 95.5325 93.0918 95.67L93.0959 95.6744C93.2191 95.7114 93.3423 95.9319 93.4654 96.2373C93.4654 96.2312 93.5886 96.2447 93.7118 96.2731C93.9581 96.1659 94.4508 96.0452 94.6972 96.0193C94.9435 95.9935 95.1898 96.0378 95.1898 96.0747C95.8057 96.2595 95.9289 96.6376 95.9289 97.0145V97.1266C96.1752 97.0392 96.2984 96.9702 96.2984 96.9554C96.6679 96.8606 96.9142 96.9111 97.0374 97.0109C97.1606 96.9776 97.2838 96.9678 97.4069 96.9665C97.7765 96.9591 98.0228 97.1143 98.146 97.2806C98.2691 97.2498 98.3923 97.2215 98.5155 97.1956C98.6387 97.1759 98.7618 97.1673 98.7618 97.1685C99.0061 97.0971 99.2806 97.0008 99.5103 96.9202C99.744 96.8383 99.9314 96.7726 99.9935 96.7658C100.581 96.6941 100.832 97.0837 100.961 97.2835C100.965 97.2901 100.969 97.2964 100.973 97.3026L100.979 97.3114C100.979 97.3224 100.992 97.3407 101.011 97.3652C101.047 97.4147 101.102 97.4893 101.102 97.5799C101.225 97.5553 101.472 97.5417 101.595 97.5417C101.964 97.5417 102.211 97.6624 102.334 97.8152C102.446 97.7972 102.533 97.7802 102.617 97.7637C102.718 97.744 102.816 97.725 102.95 97.7055C103.073 97.676 103.442 97.5972 103.566 97.5984C103.689 97.6033 103.935 97.6514 104.058 97.7216L104.181 97.6587L104.551 97.5873C104.551 97.5553 104.797 97.453 104.92 97.437C105.044 97.4222 105.167 97.4198 105.167 97.4259C105.29 97.4112 105.29 97.4013 105.29 97.3988C105.779 97.3304 106.025 97.53 106.27 97.728L106.275 97.7326C107.014 97.49 107.877 97.3225 108.616 97.3225C108.862 97.3225 109.108 97.3754 109.231 97.4567C109.354 97.4303 109.447 97.4072 109.524 97.388L109.524 97.3879C109.601 97.3687 109.663 97.3533 109.724 97.3422C110.094 97.2707 110.34 97.3508 110.463 97.4814L110.833 97.3927L111.202 97.2929L111.325 97.2572C111.449 97.086 111.572 96.9148 111.818 96.7867C111.829 96.782 111.846 96.7753 111.867 96.7668L111.867 96.7666L111.875 96.7635L111.875 96.7633L111.876 96.7629C112.092 96.6752 112.706 96.4248 112.927 96.3125C113.195 96.1987 113.464 96.0797 113.733 95.9607L113.847 95.9101C113.91 95.8824 113.973 95.8547 114.035 95.8272V95.7779C114.233 95.661 114.432 95.537 114.63 95.4131C114.924 95.229 115.219 95.0449 115.513 94.8837C115.656 94.8189 115.803 94.7497 115.955 94.6787C116.585 94.3823 117.281 94.0556 117.977 93.8995C118.223 93.8256 118.469 93.8922 118.716 94.056L118.839 94.0227V94.0153C118.964 93.9426 119.058 93.8683 119.152 93.7935C119.242 93.7214 119.334 93.6488 119.455 93.5768C119.578 93.4081 119.701 93.2504 119.824 93.1051C120.194 92.7873 120.686 92.5508 121.056 92.3784Z" fill="#FFEAD1"/>
<path fill-rule="evenodd" clip-rule="evenodd" d="M90.5986 15.4349C90.5185 15.5088 90.282 15.8907 90.2081 16.0139C90.0523 16.2095 89.8909 16.401 89.7311 16.5906C89.6192 16.7233 89.5081 16.8552 89.4001 16.987C89.2671 17.157 89.1329 17.3252 88.9991 17.493C88.5417 18.0661 88.0887 18.6339 87.7028 19.2532C87.3099 19.8814 87.5057 20.7191 88.1413 21.1132C88.5983 21.3965 89.1574 21.3842 89.5824 21.1132C89.6846 21.3349 89.8312 21.4951 89.9679 21.6059C90.2327 21.8153 90.5419 21.9261 90.904 21.9014L90.909 21.9011C91.0979 21.8887 91.5345 21.8598 91.9288 21.3349C91.9505 21.3051 91.9718 21.2768 91.9927 21.249L91.9927 21.2489L91.9928 21.2487C92.0324 21.196 92.0708 21.1449 92.1086 21.0886C92.2528 21.2856 92.4511 21.4334 92.7023 21.5319C92.9117 21.7783 93.4377 22.3326 94.0314 22.5913C94.6965 22.8623 95.7484 23.047 97.5602 22.6529C98.2906 22.4927 98.7525 21.766 98.5912 21.0392C98.4298 20.3002 97.7068 19.8445 96.9764 20.0047C96.0711 20.2017 95.5107 20.2263 95.1387 20.1155C94.9284 20.0423 94.8348 19.9013 94.7597 19.7881C94.7337 19.7488 94.7099 19.7129 94.6842 19.6844L94.6386 19.6228C94.7137 19.2409 94.8665 17.9231 94.7076 17.2949C94.5413 16.6421 94.1274 16.2849 93.7247 16.1248C93.5374 16.0509 93.2566 15.9892 92.9191 16.0385C92.791 15.5212 92.4769 15.3118 92.2749 15.201C91.8943 14.9793 91.4521 14.9054 90.9595 15.164C90.8511 15.2256 90.7242 15.2994 90.5986 15.4349ZM93.6495 18.9946C93.6391 18.9946 93.6283 18.9916 93.6175 18.9885L93.6495 18.9946ZM93.5855 18.9824L93.6175 18.9885C93.6067 18.9854 93.5959 18.9824 93.5855 18.9824Z" fill="#FDAF52"/>
<path fill-rule="evenodd" clip-rule="evenodd" d="M78.5592 61.7877C78.1041 62.0466 77.7971 62.1699 77.7971 62.1699L77.1185 62.4618L77.7023 63.8192L78.381 63.5273C78.381 63.5273 80.571 62.5382 82.0601 60.4578C82.9038 59.2791 83.5369 57.7591 83.4248 55.8795C83.3115 53.963 82.4222 52.5921 81.3248 51.6301C79.5092 50.0412 77.1493 49.5953 77.1493 49.5953L76.8463 49.5313L76.7543 49.9673L76.7529 49.9674H76.7516C76.6576 49.9648 76.5855 49.9648 76.5855 49.9648C76.3776 49.9733 76.1883 50.0687 76.0578 50.219C75.958 50.2856 75.8862 50.4137 75.8774 50.669C75.8749 50.7437 75.8826 50.8171 75.9006 50.8879C75.8942 50.9265 75.8916 50.9677 75.8916 51.0115C75.8916 51.2497 76.1851 51.4981 76.4014 51.6488V51.6501C76.4104 51.6604 76.422 51.6732 76.4362 51.6861C76.3795 51.6771 76.3396 51.6681 76.3396 51.6681C76.3396 51.6681 76.4079 51.7054 76.4336 51.7157L76.5019 51.7453L76.5083 51.757L76.4864 51.7492L76.5096 51.7595C76.5418 51.82 76.5881 51.8818 76.6512 51.9449L76.6692 51.9616V53.2105C76.6705 53.383 76.6847 53.5271 76.7117 53.6469L76.7156 53.6958C76.7181 53.7332 76.7439 53.9816 76.7786 54.1104C76.8108 54.2262 76.8598 54.3177 76.9048 54.3821L76.9254 54.5018L76.9486 54.6318L76.9499 54.7412C76.9525 54.9665 76.964 55.1751 76.9846 55.3773C76.9679 55.3991 76.9524 55.4235 76.9383 55.4493C76.9244 55.4643 76.9127 55.4804 76.9001 55.4975L76.8958 55.5034C76.894 55.506 76.892 55.5088 76.8899 55.5117C76.8487 55.5691 76.7568 55.6975 76.7568 55.9411V56.7484C76.7568 56.777 76.7563 56.8057 76.7559 56.8345C76.7549 56.9067 76.7538 56.9795 76.7593 57.0522C76.7812 57.3406 76.9151 57.5079 77.022 57.6032L77.0223 57.6035C77.0376 57.6175 77.053 57.6316 77.0696 57.6431C77.0902 57.8581 77.2035 58.0461 77.3696 58.1671C77.3825 58.6422 77.4262 59.134 77.5524 59.5768C77.488 59.7931 77.4224 60.088 77.4558 60.2682C77.4726 60.3648 77.5048 60.4536 77.5472 60.5309C77.5563 60.5695 77.5666 60.6042 77.5769 60.6338C77.6592 60.8566 77.8073 60.9866 77.958 61.0626C77.9889 61.078 78.0198 61.0909 78.0507 61.1025C78.0622 61.1411 78.079 61.1797 78.097 61.2158C78.1292 61.2801 78.1678 61.3394 78.2129 61.3921C78.2206 61.4166 78.2309 61.4398 78.2425 61.463C78.3125 61.6038 78.4243 61.7163 78.5592 61.7877ZM76.3387 50.1433C76.3527 50.1421 76.3667 50.1411 76.3806 50.1401C76.5368 50.1285 76.6852 50.1175 76.7516 49.9674C76.5941 49.9824 76.4515 50.0461 76.3387 50.1433ZM76.3387 50.1433C76.2385 50.2296 76.1619 50.3423 76.1195 50.4708L76.0886 50.5029C76.0332 50.5635 75.9804 50.6356 75.9444 50.727L75.8774 50.669C75.88 50.6124 75.889 50.5558 75.9058 50.4991C75.936 50.3935 75.9887 50.2986 76.0578 50.219C76.1392 50.1647 76.2391 50.1514 76.3387 50.1433Z" fill="#FDAF52"/>
<path d="M96.7542 58.2791C96.9583 58.581 97.1905 58.8624 97.4472 59.119C98.4783 60.1535 99.9067 60.7875 101.482 60.7875C103.057 60.7875 104.482 60.1535 105.516 59.119C106.547 58.0846 107.188 56.6494 107.188 55.081C107.188 53.5127 106.547 52.0779 105.516 51.0435C104.482 50.009 103.057 49.375 101.482 49.375C100.324 49.375 99.2452 49.7176 98.3454 50.3101C97.9375 50.4399 97.5514 50.651 97.1925 51.01C96.2587 51.9444 95.7181 53.5493 95.7577 55.1418C95.7856 56.2876 96.1117 57.413 96.7542 58.2791Z" fill="#FDAF52"/>
<path d="M80.8094 43.1025C80.4699 43.1355 80.1707 43.307 79.9491 43.5751C79.6887 43.8924 79.5394 44.3507 79.5875 44.8459C79.6356 45.3412 79.8702 45.7622 80.1868 46.0235C80.4557 46.244 80.7823 46.3548 81.1219 46.3218C81.4603 46.289 81.7606 46.1174 81.981 45.8493C82.2425 45.5319 82.3918 45.0736 82.3437 44.5783C82.2957 44.0832 82.0611 43.6622 81.7434 43.401C81.4755 43.1803 81.1478 43.0697 80.8094 43.1025Z" fill="#232221"/>
<path d="M96.1154 42.9688C95.7743 42.9688 95.4599 43.1106 95.2136 43.3561C94.9237 43.6467 94.7308 44.0884 94.7308 44.5859C94.7308 45.0835 94.9237 45.5252 95.2136 45.8159C95.4599 46.0614 95.7743 46.2032 96.1154 46.2032C96.4554 46.2032 96.7709 46.0614 97.0162 45.8159C97.3072 45.5252 97.5 45.0835 97.5 44.5859C97.5 44.0884 97.3072 43.6467 97.0162 43.3561C96.7709 43.1106 96.4554 42.9688 96.1154 42.9688Z" fill="#232221"/>
<path d="M91.4867 60.8934C91.4908 60.8897 91.4948 60.886 91.4988 60.8823C90.9876 61.383 90.2865 61.8247 89.1906 62.0786C88.5016 62.2381 87.6453 62.3188 86.5523 62.2719C86.5453 62.2718 86.5384 62.2717 86.5318 62.2701C85.9809 62.2241 85.5772 61.7738 85.5791 61.3214C85.5809 60.8292 86.0192 60.4095 86.6178 60.4608L86.6384 60.4626C87.5088 60.5718 88.2018 60.5806 88.7675 60.4963C89.528 60.3828 90.0304 60.1205 90.4087 59.809L90.3924 59.8242C90.6509 59.5904 91.1139 59.5656 91.4234 59.8034C91.8114 60.1039 91.8164 60.5851 91.4988 60.8823L91.503 60.8782L91.4867 60.8934Z" fill="#232221"/>
<path fill-rule="evenodd" clip-rule="evenodd" d="M87.494 54.2116C86.7633 53.7304 86.3753 53.0714 86.187 52.3235C86.0839 51.9156 86.0447 51.4815 86.051 51.0317C86.057 50.5911 86.1106 50.1413 86.1633 49.6987L86.1633 49.6985L86.1634 49.6979C86.1794 49.5629 86.1954 49.4286 86.21 49.2954L86.9009 42.7107C86.9464 42.2923 87.3219 41.989 87.7393 42.0361C88.1566 42.0779 88.4584 42.4545 88.4134 42.8729C88.4134 42.8729 87.7225 49.4522 87.7225 49.4575C87.7182 49.4971 87.7138 49.5368 87.7094 49.5766L87.7029 49.6349C87.6499 50.1131 87.5956 50.6042 87.5714 51.0788C87.5541 51.4135 87.5483 51.7378 87.5944 52.0464C87.6608 52.4962 87.8245 52.9145 88.2183 53.2492C88.4652 53.4532 88.5112 53.8194 88.3172 54.0756C88.1226 54.3371 87.7581 54.3946 87.494 54.2116ZM87.5881 54.0076C87.5939 54.0129 87.5996 54.0181 87.6059 54.0233L87.5881 54.0076ZM88.0473 53.3957L88.0656 53.4114C88.0598 53.4062 88.0536 53.4009 88.0473 53.3957Z" fill="#232221"/>
<path fill-rule="evenodd" clip-rule="evenodd" d="M74.7092 28.2835C74.7533 27.9326 74.8008 27.5247 74.8534 27.0734C75.1229 24.7591 75.5253 21.304 76.2854 18.5574C76.8039 16.6848 77.5215 15.1299 78.3978 14.3095C80.1738 12.6468 84.3663 10.5933 89.2686 9.37016C93.0599 8.42418 97.2709 7.96689 101.077 8.52104C103.401 8.86329 105.502 9.45152 107.496 10.2901C109.481 11.1253 111.36 12.2066 113.263 13.5013C115.442 14.9917 117.213 16.5962 118.595 18.3446C120.154 20.3152 121.228 22.4633 121.841 24.8325C122.265 26.4781 122.254 28.7638 122.017 31.0876C121.623 34.9625 120.634 38.9432 120.257 40.0591C120.25 40.0821 120.241 40.1044 120.232 40.126C120.892 40.6616 121.411 41.3608 121.683 42.1986C122.218 43.8471 122.176 45.4579 121.757 46.8881C121.288 48.4935 120.341 49.8696 119.21 50.8177C118.4 51.3733 117.27 52.0329 115.803 52.3187C115.819 52.4134 115.822 52.5118 115.812 52.6118C115.295 57.1284 115.75 63.9719 116.982 70.8202C118.152 77.2411 120.012 83.6707 122.451 88.1824C123.498 90.0928 124.742 91.6325 126.158 92.9713C128.36 95.0562 130.928 96.687 133.684 98.4373C137.728 101.005 142.177 103.831 146.47 108.725C147.861 110.308 149.364 113.795 150.793 118.07C152.394 122.88 153.946 128.706 155.252 133.779C157.481 133.152 159.255 132.854 159.255 132.854C159.538 132.8 159.821 132.992 159.883 133.284C159.932 133.575 159.735 133.854 159.452 133.909C159.452 133.909 157.715 134.267 155.56 134.967C156.077 136.974 156.557 138.835 156.976 140.43C157.838 143.842 155.301 146.027 152.296 146.101C149.943 146.159 147.319 144.897 146.273 141.884C145.57 139.871 146.494 138.148 148.317 136.796C149.635 135.81 151.446 135.02 153.207 134.415C151.889 129.362 150.337 123.551 148.736 118.756C147.418 114.835 146.112 111.606 144.844 110.154C140.588 105.297 136.168 102.502 132.149 99.9614C130.017 98.6134 127.997 97.3367 126.176 95.8617C122.003 99.4564 113.15 103.724 104.699 104.007C91.612 104.444 86.5952 100.841 81.9803 97.5254C81.8216 97.4114 81.6634 97.2978 81.5054 97.1847C81.3566 97.0775 81.2356 96.9453 81.144 96.7978C80.0376 97.3317 78.8877 97.7992 77.7102 98.2778L77.7046 98.2801C77.4745 98.3736 77.2435 98.4675 77.0115 98.5624C71.6781 100.718 67.4164 103.431 63.5611 106.873C59.4808 110.519 55.8719 114.988 52.0828 120.576C57.21 127.938 61.2252 130.922 65.6548 134.215L65.658 134.217C66.2083 134.626 66.7651 135.04 67.3312 135.467C69.6086 132.457 71.0923 130.178 71.0923 130.178C71.2955 129.848 71.6872 129.683 72.0666 129.768C72.446 129.853 72.7292 130.169 72.7723 130.555L74.4733 148.88C74.5078 149.182 74.291 149.454 73.9892 149.489C73.6875 149.522 73.4153 149.305 73.3808 149.003L71.2968 133.29C70.4124 134.654 69.1314 136.542 67.5819 138.582C65.8686 140.837 63.8165 143.266 61.6462 145.402C58.1481 148.844 54.2806 151.457 50.8835 151.576C49.0187 151.642 47.0109 150.811 44.9527 149.215C42.0902 146.997 39.0602 143.266 36.0437 138.758C31.0314 131.267 26.0222 121.604 21.7719 113.404L21.7718 113.404L21.7717 113.404L21.7716 113.404L21.7715 113.403C18.8057 107.682 16.2096 102.674 14.2399 99.614C12.1214 96.3229 9.2367 90.8023 6.62301 85.4283C3.39714 78.798 0.585128 72.3894 0.0899744 70.6453C-0.107092 69.9482 0.0628595 69.5195 0.188486 69.3237C0.429909 68.9455 0.790781 68.7362 1.3081 68.7879C1.55321 68.8125 2.05827 69.0231 2.62979 69.5651C2.96236 69.8816 3.38107 70.3325 3.84912 70.8719C3.3786 69.878 2.9476 68.9234 2.5978 68.0747C1.92528 66.4439 1.58522 65.1297 1.65296 64.5212C1.7207 63.9078 2.03603 63.558 2.40185 63.3733C2.64573 63.2513 3.07815 63.1257 3.59423 63.473C3.77284 63.5925 4.1041 63.9202 4.51056 64.4363C5.13381 65.227 6.0601 66.5449 7.07011 68.0328C6.17587 65.7973 5.34324 63.6553 4.85795 62.2204C4.55618 61.3298 4.3874 60.6697 4.36646 60.3556C4.3135 59.6055 4.74088 59.2704 4.98846 59.1436C5.23603 59.0155 5.73489 58.8689 6.30148 59.3135C6.52812 59.4921 6.94196 59.9639 7.45682 60.6647C8.75382 62.4298 10.9402 65.8293 12.8481 68.8519C12.0401 65.7813 11.1766 62.4101 10.7973 60.4566C10.615 59.5155 10.5584 58.8369 10.599 58.556C10.6668 58.0818 10.9155 57.8367 11.099 57.7098C11.3947 57.5041 11.7469 57.4229 12.1657 57.5891C12.3049 57.6446 12.5377 57.7751 12.7705 58.0732C12.9898 58.3565 13.3544 58.9871 13.8015 59.869C15.1093 62.445 17.2947 67.3596 19.0172 71.2334C19.9571 73.347 20.7592 75.1508 21.2057 76.0958C21.6331 75.0384 22.1119 74.0078 22.6212 73.0464C23.8819 70.6017 25.3941 68.6244 26.5744 67.6721C27.489 66.891 28.4602 66.7586 29.0433 67.006C29.3348 67.1294 29.6371 67.376 29.8182 67.8418C29.9135 68.1304 29.9563 68.6201 29.942 69.2608C29.7581 71.312 28.6213 75.5819 27.7709 78.7762L27.7708 78.7766L27.7707 78.7769L27.7706 78.7772L27.7705 78.7775L27.77 78.7792C27.6338 79.2911 27.5048 79.7753 27.3884 80.2183C26.6466 82.9792 25.662 86.9798 29.5909 95.807C31.5136 100.144 34.6534 105.559 39.4078 112.584C39.7792 113.128 40.1516 113.684 40.5312 114.25L40.5324 114.252C41.2218 115.28 41.935 116.344 42.7093 117.439C44.2736 119.71 45.9773 122.129 47.8418 124.7C48.6903 123.263 49.5217 121.885 50.3438 120.564C50.4031 120.335 50.5318 120.122 50.7216 119.961C54.4654 114.007 58.0408 109.233 62.1939 105.373C66.1477 101.693 70.6311 98.8593 76.1862 96.556C76.5115 96.4231 76.8352 96.2931 77.1569 96.1639L77.1577 96.1636L77.1588 96.1632L77.1611 96.1622C79.8531 95.0813 82.4003 94.0586 84.5186 91.8799C84.5288 91.8597 84.5395 91.8396 84.5508 91.8198C84.6669 91.6225 84.8238 91.4645 85.0044 91.3505C85.3685 90.9304 85.7183 90.4709 86.0523 89.9651C88.2646 86.6283 89.7613 81.3471 90.2535 72.3307C89.0659 72.2369 87.8728 72.0429 86.7057 71.711C85.8333 71.4633 84.9829 71.1326 84.1698 70.7228C80.3468 68.7973 77.3217 65.2787 76.3934 59.9142C75.9951 57.609 75.1128 48.3636 74.5056 41.4687C74.4785 41.4713 74.4512 41.4731 74.4236 41.4742C70.6558 41.6143 67.4329 40.7206 66.4721 40.0985C65.879 39.7143 65.0931 39.162 64.5537 38.5032C64.0441 37.8805 63.7402 37.1648 63.7503 36.4041C63.7605 35.631 64.0773 34.7451 65.0918 33.8529C65.7098 33.3094 66.3678 32.8924 67.0621 32.571C68.4582 31.5643 70.2789 30.4561 72.2383 29.4561C73.0469 29.0435 73.8779 28.6483 74.7092 28.2835ZM48.662 125.826C49.322 126.729 50.0015 127.649 50.7015 128.588C50.9324 128.821 50.8924 129.167 50.6284 129.359C50.4341 129.546 50.0798 129.508 49.8489 129.274C46.5622 125.395 43.6562 121.855 41.124 118.577C39.8564 116.92 38.6654 115.338 37.6194 113.809C32.6502 106.735 29.5627 101.115 27.5623 96.6916C23.2814 87.0492 24.4431 82.6646 25.3027 79.6443C25.3584 79.4394 25.4168 79.2253 25.4773 79.0036C26.2815 76.0541 27.4558 71.7478 27.7145 69.4749C27.6549 69.5275 27.6099 69.5795 27.5661 69.6302C27.514 69.6904 27.4636 69.7487 27.3922 69.8041C26.5511 70.6222 25.6087 71.8893 24.6841 73.3598C23.8792 74.5924 23.085 75.9491 22.4363 77.3632C21.1815 79.8762 20.2877 82.5043 20.1242 84.6524C20.1441 84.8809 19.9498 85.0677 19.7389 85.0637C19.528 85.0603 19.3013 84.8751 19.2814 84.6473C19.2376 82.8215 19.6665 80.6036 20.3809 78.3723C20.1016 78.3122 19.8463 78.1428 19.6853 77.8804C19.4486 77.4946 18.4203 75.1879 17.1393 72.3142C16.2811 70.3892 15.3096 68.2097 14.3865 66.1828C14.8182 67.8581 15.2717 69.5674 15.6636 71.0445L15.6638 71.0453C16.2147 73.1214 16.6438 74.7388 16.7194 75.1583C16.8043 75.6288 16.6012 75.9047 16.4854 76.0439C16.2292 76.3518 15.7906 76.6647 15.128 76.2989C15.1256 76.2976 15.1228 76.2961 15.1198 76.2945C15.0677 76.2668 14.9218 76.1892 14.7683 75.9799C14.7462 75.9503 14.7018 75.8862 14.639 75.7877C14.5136 75.5944 14.2808 75.2224 13.9661 74.7195C13.8977 74.6102 13.8255 74.4948 13.7496 74.3737L13.5077 73.9859C12.3408 72.1151 10.5121 69.1832 8.81304 66.5536C9.47218 68.2135 10.1847 69.966 10.8273 71.5468L10.8287 71.5501C11.432 73.0341 11.9737 74.3665 12.3517 75.3283C12.6301 76.0353 12.8247 76.5551 12.8998 76.8076C13.1055 77.4936 12.7889 77.8989 12.7224 77.9777C12.561 78.1699 12.3579 78.293 12.1079 78.3435C11.9305 78.3792 11.6397 78.4088 11.301 78.1908C11.2567 78.1625 11.1556 78.0972 11.0399 77.9543C11.0165 77.9247 10.9697 77.8632 10.9044 77.7671C10.7665 77.5663 10.4869 77.1401 10.1075 76.56C9.94494 76.3114 9.76369 76.0337 9.56731 75.7328L9.56703 75.7324L9.56678 75.732C8.59089 74.2371 7.24156 72.1701 5.9529 70.2499C6.09947 70.5579 6.25099 70.8695 6.40373 71.1823C7.52084 73.4668 8.75761 75.8218 9.63095 77.4847L9.63203 77.4867C9.76454 77.7391 9.8887 77.9755 10.0028 78.1933C10.3661 78.8855 10.6309 79.3966 10.7467 79.6454C11.1002 80.3993 10.7037 80.9092 10.6581 80.9646C10.5472 81.0952 9.81935 81.7849 9.0643 81.0373C9.05076 81.0237 9.02237 80.9954 8.9842 80.9486L8.97919 80.9423L8.97465 80.9364C8.96988 80.9302 8.96372 80.9222 8.95581 80.9116C8.94874 80.9025 8.93764 80.8876 8.92248 80.8671C8.91121 80.8518 8.89771 80.8334 8.88195 80.8119C8.8253 80.7365 8.73917 80.6208 8.62758 80.4709L8.5849 80.4135C8.4765 80.2679 8.34702 80.094 8.19957 79.8967C7.22036 78.5862 5.43936 76.22 3.81965 74.2111C5.01811 76.98 6.72897 80.6912 8.57162 84.4799C11.1447 89.7677 13.9775 95.202 16.0628 98.4402C18.0315 101.498 20.6259 106.504 23.5895 112.223L23.5896 112.223L23.5897 112.223L23.5898 112.223C27.8353 120.415 32.8387 130.07 37.8458 137.553C40.7096 141.833 43.5622 145.396 46.2806 147.502C47.8645 148.73 49.3721 149.46 50.8083 149.41C53.7792 149.306 57.058 146.854 60.1287 143.853C62.2374 141.794 64.2193 139.444 65.9191 137.293C65.9896 137.204 66.0597 137.115 66.1292 137.027C65.6958 136.699 65.2689 136.38 64.847 136.064L64.8442 136.061C60.2497 132.619 56.2514 129.624 50.9951 122.203C50.2369 123.353 49.4692 124.547 48.6869 125.788C48.679 125.801 48.6707 125.814 48.662 125.826ZM77.0016 27.3591L77.0032 27.3446C77.2208 25.4595 77.5263 22.8124 78.0519 20.4417C78.487 18.4791 79.0181 16.6986 79.8794 15.8921C81.4937 14.3807 85.3371 12.5854 89.7933 11.4735C93.3164 10.5945 97.2279 10.1513 100.765 10.6663C102.904 10.9741 104.832 11.5219 106.674 12.2732C107.314 12.5343 107.945 12.8198 108.569 13.1297C108.77 13.838 108.906 14.565 109 15.3502C109.1 16.1773 109.163 17.0587 109.233 18.0301C109.262 18.4387 109.293 18.8632 109.327 19.3063C109.411 20.5001 109.318 22.3063 109.135 24.1633C108.814 27.4242 108.251 30.8267 108.148 31.4361C107.936 31.3135 107.722 31.1976 107.507 31.087C103.731 29.1499 99.2092 27.667 94.6481 26.8048C89.8962 25.9067 85.1056 25.682 81.0857 26.244C79.8778 26.4239 78.4727 26.8216 77.0016 27.3591ZM108.804 31.8381C109.599 32.3548 110.397 32.9821 111.255 33.7833C111.75 34.2448 112.266 34.7659 112.817 35.3596C113.012 35.4693 113.273 35.6817 113.289 35.7044C113.324 35.7291 113.374 35.7784 113.432 35.8523C113.775 36.2133 114.614 37.2351 115.177 38.0891C115.347 38.2962 115.52 38.5093 115.697 38.7286C115.76 38.8071 115.81 38.8917 115.849 38.98C116.552 38.86 117.302 38.8865 118.03 39.0588C118.387 39.1431 118.735 39.2617 119.069 39.4123C119.443 38.0772 120.213 34.4628 120.483 30.9505C120.645 28.8361 120.63 26.7598 120.207 25.276C119.605 23.1608 118.591 21.2545 117.148 19.5176C115.839 17.9416 114.173 16.5104 112.138 15.1889C111.71 14.9087 111.282 14.6403 110.854 14.3837C110.871 14.6558 110.882 14.9323 110.889 15.2149C110.909 16.0828 110.892 17.005 110.874 18.0244C110.867 18.4196 110.86 18.8294 110.854 19.2563C110.848 20.5095 110.595 22.3852 110.279 24.3132C109.69 27.9097 108.878 31.6768 108.878 31.6768C108.866 31.7377 108.84 31.7924 108.804 31.8381ZM106.336 32.9235C106.321 32.9362 106.306 32.9492 106.291 32.9623C106.273 32.9313 106.254 32.9013 106.235 32.8723L106.273 32.8917C106.294 32.9023 106.315 32.9129 106.336 32.9235ZM115.577 41.5068C115.721 41.3492 115.822 41.1667 115.879 40.9745C116.404 40.8273 117.007 40.8417 117.576 40.9764C118.559 41.209 119.489 41.8234 119.808 42.8075C120.211 44.0477 120.18 45.2592 119.866 46.3355C119.512 47.5504 118.802 48.5956 117.947 49.3145C117.356 49.9181 116.499 50.6585 115.284 51.1326C114.358 51.4942 113.267 51.7266 111.96 51.6567L111.875 52.2109C112.387 52.3301 112.875 52.3887 113.343 52.4295C113.446 52.4384 113.547 52.4458 113.647 52.4516C113.132 57.1241 113.578 64.1625 114.851 71.2069C116.058 77.8705 118.005 84.5353 120.554 89.2171C120.706 89.4955 120.862 89.7669 121.021 90.0317C118.149 92.2385 112.417 95.4234 104.813 95.643C96.9122 95.8703 91.0169 93.7542 87.3805 91.8492C87.5441 91.628 87.705 91.3984 87.8628 91.1598C90.2142 87.6095 91.9081 82.0073 92.4116 72.3992C92.6252 72.3966 92.838 72.3914 93.0498 72.3839C94.5112 72.3316 95.9158 72.1697 97.2024 71.8711L97.1068 71.3219C95.8441 71.4695 94.4816 71.5021 93.0808 71.3669C92.6499 71.3253 92.218 71.2657 91.786 71.1897C91.6665 71.1355 91.5356 71.1024 91.3979 71.0952C91.3611 71.0933 91.3246 71.0933 91.2886 71.095C89.9597 70.8227 88.6352 70.3994 87.3483 69.8655C86.6063 69.5578 85.8854 69.2046 85.1807 68.8131C81.975 67.0323 79.322 64.1415 78.5294 59.5452C78.0192 56.5892 76.7116 42.1279 76.2224 36.0742C76.1584 35.2803 76.1085 34.6318 76.0765 34.1743C78.536 34.4782 81.3992 35.8983 83.0933 36.9586C87.5771 39.7656 92.1761 40.6023 93.6618 40.5414C94.394 40.5113 95.4826 40.1911 96.7651 39.6366C97.11 39.4874 97.472 39.3215 97.8474 39.1418C97.8728 39.1798 97.9003 39.2168 97.93 39.2528C99.349 40.9649 100.57 41.1003 102.057 41.0264C102.211 41.0204 102.369 41.0099 102.532 40.9989C103.376 40.9426 104.371 40.8761 105.682 41.3713C106.909 41.827 107.779 43.0835 108.407 44.0565C108.587 44.3379 108.752 44.6041 108.901 44.8445C109.235 45.3826 109.489 45.7915 109.649 45.9533C110.37 46.6923 111.075 46.4829 111.502 46.1996C111.793 46.0026 112.251 45.5469 112.76 44.9556C113.171 44.4733 113.64 43.8813 114.093 43.3087C114.658 42.5944 115.199 41.9102 115.577 41.5068ZM94.2414 28.9342C97.9986 29.6588 101.734 30.797 105.004 32.2847C104.813 32.3002 104.622 32.3567 104.445 32.4577C104.133 32.6349 103.815 32.8169 103.491 33.0017C101.279 34.264 98.8305 35.6619 96.7793 36.6493C95.4121 37.3074 94.2647 37.8047 93.5508 37.834C92.2779 37.8861 88.3728 37.0668 84.531 34.6618C82.2263 33.2189 78.0548 31.3203 74.9223 31.4093C74.7925 31.413 74.6632 31.4165 74.5344 31.4201L74.5284 31.4203C73.7397 31.4421 72.9709 31.4633 72.2245 31.5058C72.4966 31.3701 72.7723 31.2357 73.0506 31.1031C75.9049 29.7433 79.0316 28.5806 81.3644 28.2935C85.1866 27.7883 89.7313 28.0644 94.2414 28.9342ZM104.612 101.299C92.5863 101.701 87.9073 98.437 83.6507 95.3872C84.296 94.9573 84.9192 94.4774 85.5165 93.9283C89.3819 96.0549 95.9409 98.6095 104.899 98.3515C113.138 98.1141 119.373 94.6852 122.573 92.2634C123.071 92.8896 123.595 93.4755 124.143 94.0299C120.23 97.29 112.239 101.044 104.612 101.299ZM150.497 137.144C151.433 136.59 152.493 136.103 153.54 135.69L153.603 135.932C154.084 137.779 154.53 139.492 154.919 140.975C155.449 142.895 153.921 144.047 152.222 144.142C150.559 144.233 148.699 143.389 147.874 141.29C147.196 139.562 148.65 138.244 150.497 137.144ZM28.2365 69.0222L28.2358 69.0138C28.3014 68.961 28.3715 68.9605 28.4492 69.0464C28.4534 69.0946 28.3699 69.0661 28.298 69.0416C28.2753 69.0339 28.2538 69.0266 28.2365 69.0222Z" fill="#232221"/>
<path d="M131.05 135.897C131.05 135.897 131.131 136.4 131.309 137.175C131.616 138.436 132.158 140.414 132.684 142.22C133.323 144.459 133.96 146.397 133.96 146.397C134.003 146.609 134.213 146.747 134.419 146.702C134.638 146.657 134.768 146.448 134.725 146.234C134.725 146.234 134.525 144.207 134.214 141.898C133.967 140.035 133.668 138.005 133.434 136.729C133.292 135.945 133.163 135.453 133.163 135.453C133.038 134.866 132.462 134.492 131.879 134.614C131.296 134.737 130.926 135.312 131.05 135.897Z" fill="#232221"/>
<path d="M103.682 125.301C103.699 126.276 102.965 127.08 102.043 127.095C101.615 127.103 101.222 126.94 100.922 126.665L98.3658 128.179C98.3677 128.209 98.369 128.239 98.3695 128.27C98.3709 128.349 98.3673 128.427 98.3592 128.503L101.19 129.885C101.424 129.745 101.694 129.664 101.982 129.659C102.904 129.643 103.665 130.42 103.682 131.395C103.699 132.37 102.965 133.173 102.043 133.189C101.121 133.205 100.36 132.428 100.343 131.453C100.34 131.297 100.357 131.145 100.39 131L97.7578 129.667C97.4777 129.91 97.121 130.057 96.7306 130.064C95.8084 130.08 95.0475 129.303 95.0306 128.328C95.0137 127.353 95.7473 126.55 96.6695 126.534C97.0893 126.526 97.4756 126.683 97.7736 126.949L100.349 125.474C100.346 125.436 100.344 125.398 100.343 125.359C100.326 124.384 101.06 123.581 101.982 123.565C102.904 123.549 103.665 124.326 103.682 125.301Z" fill="#232221"/>
<path fill-rule="evenodd" clip-rule="evenodd" d="M97.8546 120.149L98.2016 120.142C98.304 120.104 98.4116 120.082 98.5196 120.08C99.0121 120.073 99.5975 120.064 100.215 120.054L100.297 120.053C102.07 120.025 104.081 119.994 104.896 119.979C110.361 119.876 112.271 124.915 112.316 127.533C112.468 130.465 110.938 135.663 105.685 136.289C104.948 136.378 102.761 136.455 100.767 136.505C100.67 136.545 100.565 136.568 100.454 136.57C98.2276 136.61 96.2027 136.61 95.1888 136.523C89.9165 136.079 88.3089 130.935 88.2581 128.002C88.2128 125.384 90.048 120.28 95.5136 120.194C96.1062 120.184 96.9068 120.168 97.8546 120.149ZM100.102 122.076C100.201 122.074 100.3 122.055 100.395 122.022C102.152 121.995 104.124 121.965 104.93 121.95C108.979 121.873 110.36 125.645 110.393 127.579C110.432 129.807 109.49 133.856 105.448 134.332C104.539 134.449 100.795 134.543 98.6693 134.578C98.5766 134.579 98.4875 134.596 98.4039 134.625C97.1223 134.631 96.036 134.615 95.3573 134.559C91.403 134.221 90.3211 130.207 90.2826 127.979C90.2491 126.045 91.4992 122.228 95.5477 122.164C96.1403 122.155 96.9409 122.139 97.8888 122.12L97.9044 122.119C98.5715 122.106 99.3111 122.091 100.102 122.076Z" fill="#232221"/>
<path fill-rule="evenodd" clip-rule="evenodd" d="M116.293 127.356C116.259 125.414 116.077 123.283 115.61 121.427C115.148 119.895 114.4 118.546 113.368 117.573C112.191 116.59 110.73 115.968 108.555 115.992C104.735 116.034 100.982 116.109 98.0997 116.167L98.0995 116.167L98.0988 116.167C96.7151 116.195 95.5321 116.218 94.6388 116.233C87.1004 116.352 83.5895 122.957 83.9635 127.807C84.1989 133.028 87.0672 139.567 94.3282 140.175C97.768 140.468 108.838 140.056 113.49 139.884L113.501 139.883L113.508 139.883L113.532 139.882C114.553 139.844 115.257 139.818 115.493 139.814C115.783 139.809 116.363 139.776 116.495 139.021L116.293 127.356ZM114.59 137.874L114.59 137.873C114.557 135.993 114.481 131.625 114.264 127.424C114.233 125.631 114.199 123.66 113.734 121.947C113.424 120.805 112.826 119.781 112.089 119.055C111.206 118.343 110.039 117.947 108.59 117.962C104.76 118.005 100.998 118.08 98.1125 118.138C96.7376 118.165 95.5619 118.189 94.6729 118.203C88.4392 118.302 85.6329 123.727 85.8469 127.707C86.0678 132.091 88.34 137.702 94.4392 138.213C97.8976 138.499 108.765 138.092 113.463 137.916L113.464 137.916C113.894 137.899 114.273 137.885 114.59 137.874Z" fill="#232221"/>
</g>
<defs>
<clipPath id="clip0">
<rect width="160" height="160" fill="white"/>
</clipPath>
</defs>
</svg>
