<svg width="160" height="160" viewBox="0 0 160 160" fill="none" xmlns="http://www.w3.org/2000/svg">
<path d="M38.2981 100.361C40.3043 98.3533 43.3257 94.1148 44.313 92.7051L44.439 92.5254L44.4649 92.4884L44.4668 92.4866L44.5242 92.4032L44.6372 92.2402L44.639 92.2383C44.7928 92.0123 44.9151 91.7752 45.004 91.5307C45.7774 90.7821 46.7648 90.0819 47.766 89.3718C48.4051 88.9186 49.0498 88.4614 49.6481 87.985C51.1653 86.7772 52.4305 85.4454 53.1585 83.9875C54.3348 81.6349 53.8087 78.506 51.5673 75.2568C49.653 72.4814 46.4178 69.4257 43.5711 66.7369C41.4758 64.7579 39.5909 62.9776 38.5982 61.6542C37.2501 59.8561 36.2106 57.9653 35.1621 56.0584C34.3419 54.5665 33.5163 53.0648 32.5332 51.5898C31.645 50.2579 30.513 49.029 29.3625 47.78C27.7703 46.0516 26.1428 44.2848 25.0771 42.1534C24.5787 41.1568 24.3231 38.9023 24.3231 38.9023C24.0841 37.1813 22.5355 35.955 20.8071 36.118C19.0788 36.2811 17.7839 37.776 17.871 39.5099C17.871 39.5099 17.9784 41.4605 17.8821 42.4293C17.7214 44.0404 17.4756 45.6714 17.229 47.308C16.8047 50.1238 16.3779 52.9558 16.3779 55.7301C16.3779 59.9648 16.9114 63.6122 17.7173 67.6413C18.8506 73.3107 18.5543 81.1636 18.2888 88.1973C18.1811 91.0507 18.0785 93.7693 18.0785 96.1526C18.0785 98.9808 17.9721 101.836 17.8659 104.687C17.76 107.53 17.6543 110.368 17.6543 113.171C17.6543 114.36 17.4524 116.732 17.4524 116.732C17.3301 118.195 18.2063 119.557 19.5864 120.053C20.9684 120.551 22.5096 120.059 23.3488 118.854C23.3488 118.854 25.1105 116.311 25.8626 114.961C28.6269 109.981 33.0149 105.617 37.0905 101.564C37.4968 101.16 37.8999 100.759 38.2981 100.361Z" fill="#FFEAD1"/>
<path d="M136.41 41.5185L136.229 42.2521C135.952 42.817 135.661 43.5386 135.344 44.3237C135.056 45.0395 134.746 45.8081 134.406 46.5591C134.356 46.6691 134.307 46.7797 134.259 46.8899C133.875 47.7556 133.502 48.5993 132.905 48.9969C131.07 50.2195 128.626 53.1316 126.111 56.5957C125.223 57.8175 124.316 59.1113 123.412 60.4013C121.007 63.8308 118.622 67.2336 116.669 69.1868L116.596 69.2591L116.556 69.3036C115.244 70.6448 114.757 71.721 114.796 72.5509L114.327 73.0159C114.197 73.1456 114.083 73.2753 113.979 73.4031L113.844 73.4494C113.408 73.6116 112.897 74.0072 112.419 74.3767C112.155 74.5811 111.901 74.7776 111.676 74.9221C108.56 76.9254 105.801 79.453 103.067 81.9585C102.297 82.6643 101.528 83.3684 100.754 84.0584C100.358 84.3233 98.0607 85.8664 97.6365 86.2777C96.6232 87.2576 96.5713 88.2857 96.5713 88.7137C96.5713 90.0567 97.1586 91.1552 98.2571 91.9499C98.8739 92.3964 99.8113 92.7113 100.717 92.878C100.862 92.9743 101.023 93.0632 101.204 93.1447L101.226 93.1608C101.553 93.403 103.108 94.5559 104.596 95.7512C106.128 96.9811 107.941 98.4623 109.786 99.9706C113.936 103.362 118.254 106.891 119.929 108.007C124.734 111.212 130.894 116.426 134.512 120.95C135.364 122.015 137.172 124.055 137.172 124.055L137.185 124.07C138.38 125.4 140.425 125.513 141.758 124.323C143.094 123.132 143.213 121.087 142.027 119.75L142.012 119.735L141.725 119.338C141.643 118.762 141.46 118.049 141.169 117.273C140.905 116.57 140.543 115.764 140.196 114.994C139.821 114.159 139.464 113.366 139.272 112.792C139.067 112.176 139.124 111.245 139.186 110.251L139.191 110.165C139.277 108.799 139.461 107.354 139.618 106.121C139.719 105.331 139.809 104.629 139.854 104.089C141.075 89.425 141.354 74.6109 141.354 59.9931C141.354 57.4923 141.726 55.0293 142.098 52.5637C142.471 50.0925 142.844 47.6186 142.844 45.1011L142.844 42.1225C142.844 40.4478 141.569 39.0492 139.902 38.8918C138.235 38.7362 136.723 39.8735 136.41 41.5185Z" fill="#FFEAD1"/>
<path fill-rule="evenodd" clip-rule="evenodd" d="M43.2429 109.497C43.3023 109.394 43.6456 108.781 43.7943 108.619C44.009 108.353 44.2438 108.202 44.4256 108.105C44.9316 107.844 45.4048 107.869 45.8353 108.064C46.1465 108.207 46.524 108.433 46.7531 109.009C46.9822 109.586 47.0923 110.18 47.113 110.81L47.3013 110.571C48.5866 109.165 49.6321 109.06 50.1782 109.168C50.9164 109.318 51.6055 109.898 51.8684 111.009C51.9849 111.508 52.0222 112.183 52.0496 112.859C52.0667 113.279 52.0474 113.68 52.1405 113.948C52.4361 114.796 52.8181 115.82 54.4299 116.078C55.2673 116.214 56.326 116.036 57.7521 115.969C58.8539 115.903 60.0486 116.034 61.5574 115.909C61.9312 115.807 62.3252 116.008 62.4416 116.39C62.5513 116.749 62.3434 117.155 61.9696 117.256C61.0405 117.813 60.2601 118.255 59.4599 118.629C59.0564 118.805 58.686 118.976 58.3023 119.079C56.4995 119.576 55.05 119.458 53.9512 119.313C50.5951 118.84 49.6757 116.792 49.0545 115.007C48.9548 114.716 48.8881 114.327 48.8412 113.865L47.7545 115.36C47.2459 116.091 46.8168 116.856 46.3214 117.585C46.087 117.948 45.836 118.289 45.5618 118.634C45.0299 119.297 44.4607 119.286 44.196 119.278C43.6169 119.268 43.1103 119.037 42.7786 118.405C42.6857 118.255 42.5496 117.923 42.5787 117.45C42.5916 117.213 42.7101 116.727 42.7429 116.511L42.9561 115.19C42.9956 114.997 43.045 114.802 43.0976 114.583C42.5491 115.202 42.0007 115.845 41.4788 116.484C41.0063 117.045 40.5538 117.627 40.1575 118.247C39.6622 118.999 38.6466 119.194 37.8947 118.694C37.1429 118.193 36.9397 117.191 37.435 116.439C37.894 115.739 38.4093 115.078 38.9544 114.412C39.7043 113.482 40.5138 112.59 41.2935 111.68L43.2429 109.497Z" fill="#FDAF52"/>
<path fill-rule="evenodd" clip-rule="evenodd" d="M20.4411 124.268C20.9783 124.411 22.2102 124.719 23.4213 124.869C25.702 125.15 28.7747 125.329 32.286 125.486C35.0644 125.61 38.1136 125.723 41.2666 125.809C56.9128 126.235 75.072 126.077 75.072 126.077C75.5322 126.063 75.917 126.425 75.931 126.885C75.9451 127.345 75.5829 127.73 75.1228 127.744C75.1228 127.744 58.6276 128.615 43.4983 128.763C38.6225 128.811 33.8894 128.785 29.8943 128.621C24.9495 128.418 21.0989 127.978 19.3749 127.387C18.1952 126.982 17.6392 126.311 17.4542 125.81C17.2984 125.388 17.0547 122.898 16.8681 118.96C16.3096 107.169 15.7084 81.4607 15.7402 61.4195C15.7577 50.3448 15.973 40.9899 16.487 36.6189C16.6628 35.1253 16.9196 34.1173 17.1564 33.6587C17.4217 33.1446 17.7705 32.8789 18.0567 32.7378C18.3951 32.5709 19.8916 32.3294 22.3499 32.2143C28.2884 31.9367 40.757 31.8252 55.4807 31.8169C90.9576 31.7973 139.521 32.3862 141.414 32.6543C141.851 32.716 142.533 32.978 142.921 33.9356C143.151 34.5049 143.381 35.8064 143.535 37.7163C144.026 43.8166 144.105 56.9385 143.989 71.3052C143.834 90.3794 143.341 111.655 143.04 121.514C142.965 123.972 142.902 125.724 142.858 126.563C142.843 126.865 142.828 127.068 142.817 127.164C142.636 128.751 141.062 128.665 140.918 128.641C139.921 128.475 133.091 128.5 124.278 128.531L124.277 128.531C117.961 128.554 110.627 128.58 103.691 128.543C100.902 128.527 98.1762 128.503 95.6042 128.464C95.4562 129.599 95.2842 130.7 95.1247 131.721L95.1246 131.722L95.1246 131.723L95.1245 131.723L95.1245 131.723C94.9044 133.132 94.7082 134.388 94.6315 135.372C94.62 135.629 94.4015 135.829 94.1445 135.817C93.8874 135.805 93.6882 135.587 93.7001 135.33C93.715 134.352 93.8443 133.089 93.9894 131.674C94.0934 130.659 94.2054 129.565 94.289 128.442C91.8682 128.401 89.604 128.346 87.5771 128.274C86.8034 128.247 84.1709 127.992 82.2376 126.401C80.8972 125.297 79.8316 123.602 79.8835 120.971C79.9551 118.58 80.9445 116.525 82.6893 115.195C84.1756 114.063 86.2022 113.418 88.6488 113.62C92.224 113.932 94.1973 115.707 95.1912 118.25C95.9599 120.218 96.0814 122.692 95.9272 125.207C98.4079 125.245 101.028 125.268 103.708 125.282C110.424 125.319 117.508 125.303 123.709 125.289L123.711 125.289L123.712 125.289L123.715 125.289C128.88 125.278 133.433 125.268 136.65 125.29C135.456 124.487 133.734 123.304 131.672 121.815C130.783 121.174 129.844 120.459 128.863 119.688C115.397 109.099 92.4812 89.9962 92.4812 89.9962C92.3905 89.9221 92.3098 89.8402 92.2394 89.7522C87.9677 90.8044 83.4173 91.1963 78.8817 90.9628C70.9809 90.556 63.1336 88.2546 56.9031 84.3084C56.7302 84.1989 56.5544 84.0817 56.3758 83.9573C56.311 84.0316 37.9833 105.035 27.0892 116.777C26.294 117.634 25.5293 118.431 24.7983 119.154C22.9134 121.015 21.3623 122.462 20.3689 123.369C20.3931 123.743 20.4165 124.044 20.4411 124.268ZM95.9915 88.6293C101.278 92.8648 119.803 107.745 130.924 117.162C131.877 117.968 132.764 118.745 133.572 119.487C137.254 122.874 139.512 125.206 139.512 125.206C139.558 125.244 139.599 125.286 139.635 125.33C139.639 125.33 139.643 125.33 139.648 125.331C139.711 123.76 139.794 121.118 139.888 117.703C140.388 99.5898 141.179 59.7718 140.534 42.5475C140.457 40.4755 140.363 38.7438 140.244 37.4366C139.739 38.355 139.135 39.4406 138.455 40.6312C137.395 42.4901 136.172 44.6057 134.828 46.728L134.802 46.7681L134.802 46.7683C133.548 48.7655 132.172 50.9551 130.661 53.2385C129.291 55.3097 127.84 57.4673 126.285 59.6174C123.274 63.7802 119.943 67.9457 116.686 71.7858C111.156 78.3071 105.658 83.7704 101.374 86.1899C99.6768 87.1481 97.8732 87.9601 95.9915 88.6293ZM24.6568 114.606L53.85 81.8906C51.0036 79.2677 47.6944 75.3671 44.223 70.8189C39.2182 64.2618 33.8287 56.3508 28.9326 49.164L28.9325 49.1638C25.6711 44.3766 22.6286 39.9107 20.0646 36.3803C19.9954 36.2851 19.9381 36.1848 19.8923 36.0813C19.7788 36.7755 19.6348 37.7702 19.5564 38.7548C18.9451 46.4429 18.9023 63.0383 19.1142 79.647C19.3224 95.9589 19.7791 112.284 20.1956 120.231C20.856 119.348 21.6484 118.309 22.5559 117.153C23.1906 116.344 23.8957 115.494 24.6568 114.606ZM23.4011 35.4325C23.5029 35.4285 23.6064 35.4245 23.7114 35.4205C31.8231 35.1128 48.9732 35.0409 67.7219 35.0915C98.4795 35.1747 133.546 35.5779 139.974 35.826C139.33 36.8785 138.428 38.3134 137.339 39.9406C136.164 41.6964 134.757 43.6595 133.256 45.6341C131.304 48.1944 129.034 51.0564 126.632 54.0866L126.631 54.0878L126.616 54.106C126.248 54.5706 125.877 55.0391 125.503 55.511C124.408 56.8922 123.296 58.302 122.182 59.7283C118.451 64.4991 114.602 69.3692 110.85 73.488C106.799 77.9357 102.95 81.5558 99.7703 83.3508C93.8079 86.7182 86.4029 88.0847 79.0491 87.7067C71.7175 87.3296 64.4291 85.2165 58.6479 81.5548C55.4716 79.542 51.3202 74.7438 46.8148 68.8406C41.8205 62.2979 36.4437 54.4041 31.5585 47.2321C28.593 42.8783 25.8087 38.7905 23.4011 35.4325ZM141.37 125.414L141.453 125.425C141.43 125.421 141.402 125.417 141.37 125.414ZM94.4197 125.184C94.4162 123.77 94.3142 122.383 94.0444 121.116C93.4511 118.332 91.9529 116.205 88.5234 116.166C86.8458 116.139 85.4833 116.624 84.5125 117.454C83.5156 118.306 83.0048 119.564 83.0271 120.994C83.0342 122.392 83.5749 123.293 84.2941 123.871C85.5319 124.864 87.2028 124.998 87.6931 125.016C89.7226 125.088 91.9921 125.143 94.4197 125.184Z" fill="#232221"/>
</svg>
