<svg width="160" height="160" viewBox="0 0 160 160" fill="none" xmlns="http://www.w3.org/2000/svg">
<path fill-rule="evenodd" clip-rule="evenodd" d="M66.5699 87.721C66.705 88.5238 67.0335 89.1712 67.4194 89.6016C67.4001 90.4507 67.3902 91.1956 67.4481 91.6085C67.477 91.8343 67.6798 92.1653 67.8921 92.4731C67.9017 92.7558 67.9206 93.1929 67.9592 93.4814C67.9978 93.7766 68.0655 94.0507 68.1619 94.2909L68.1521 94.345C68.0074 95.5723 68.1817 96.5748 68.4326 97.0756C68.5479 97.3093 68.7545 97.5957 69.0416 97.9228L69.0391 97.9254C68.8558 98.101 68.759 98.4145 68.7783 98.8082C68.7946 99.0905 68.8761 99.434 68.9454 99.7265C68.9986 99.951 69.0447 100.145 69.0489 100.259C69.1174 101.51 69.3125 101.813 69.7173 102.442C69.8822 102.698 70.0819 103.009 70.3221 103.459C70.4216 103.646 70.5147 103.851 70.6105 104.062C70.719 104.301 70.8309 104.547 70.9591 104.783C71.2389 105.308 71.5962 105.78 72.0883 106.075C72.3585 106.238 72.6862 106.246 73.0336 106.111C73.2844 106.013 73.5545 105.835 73.7957 105.66C73.85 105.622 73.9015 105.584 73.9499 105.548C74.0564 105.469 74.1479 105.402 74.2208 105.37C74.4384 105.283 74.6635 105.243 74.8896 105.204L74.8899 105.204C74.9143 105.2 74.9388 105.195 74.9634 105.191C75.2914 105.132 75.6193 105.066 75.9184 104.927C76.0475 104.867 76.1862 104.8 76.3325 104.729C76.6852 104.559 77.0815 104.368 77.4899 104.208C78.1668 104.625 78.8544 105.038 79.5404 105.442C79.4954 105.471 79.4491 105.504 79.4018 105.54C79.1806 105.71 78.9023 105.979 78.6138 106.257L78.6137 106.258L78.6136 106.258L78.6111 106.26L78.6111 106.261C78.5918 106.265 78.485 106.289 78.3307 106.445C78.2382 106.537 78.0949 106.689 77.9204 106.873L77.9202 106.874C77.8216 106.978 77.7129 107.093 77.598 107.213C77.5015 107.293 77.4237 107.356 77.221 107.519C77.1872 107.548 77.1357 107.587 77.0798 107.629L77.0795 107.629C76.9921 107.695 76.8939 107.768 76.8351 107.826C76.6265 107.976 76.4355 108.136 76.237 108.303L76.1989 108.336C76.1601 108.372 76.096 108.409 76.0301 108.447C75.981 108.476 75.931 108.505 75.8898 108.534C75.8324 108.58 75.5797 108.689 75.3052 108.807L75.3051 108.807C74.9339 108.966 74.5227 109.143 74.5005 109.205C74.4426 109.379 74.452 109.557 74.5774 109.73C74.587 109.79 74.6163 109.842 74.6452 109.886C74.6655 109.919 74.5264 109.959 74.3984 109.996C74.1606 110.065 73.9615 110.123 74.8963 110.097C74.9101 110.097 74.9288 110.102 74.9521 110.108C75.0268 110.127 75.1492 110.157 75.3109 110.077C75.3977 110.034 75.5421 109.924 75.7255 109.765C76.0632 110.023 77.5978 109.626 77.9741 109.319C78.0658 109.243 78.1131 109.195 78.1546 109.153C78.2136 109.093 78.2611 109.045 78.4083 108.946C78.4951 108.884 78.5915 108.823 78.688 108.763C78.8906 108.738 79.1798 108.68 79.392 108.588C79.7298 108.444 80.0675 108.289 80.4052 108.129C80.4824 108.135 80.5793 108.123 80.6758 108.074C80.724 108.051 80.8106 107.995 80.8974 107.894C81.0093 107.839 81.1211 107.785 81.233 107.73C81.6647 108.674 82.0979 109.57 82.4721 110.229C82.3213 110.345 82.1402 110.483 81.9441 110.632L81.9437 110.632L81.943 110.633L81.9414 110.634C81.0166 111.338 79.7592 112.294 79.7592 112.455C79.7592 112.706 81.8242 111.845 82.6636 111.221C82.7019 111.194 82.7514 111.212 82.8121 111.234C82.8892 111.262 82.9845 111.296 83.0978 111.254C83.1075 111.251 83.127 111.24 83.1668 111.214C83.6542 111.663 84.4313 112.006 85.395 111.774C85.781 111.679 86.2152 111.414 86.5529 111.153C86.7462 111.06 87.029 110.909 87.3081 110.712C87.3219 110.781 87.3404 110.848 87.3622 110.908C87.3173 110.96 87.289 111.012 87.2619 111.062L87.2559 111.073C87.2173 111.083 87.1692 111.098 87.121 111.12C87.0052 111.174 86.7831 111.309 86.5322 111.552C86.5144 111.565 86.4947 111.577 86.4748 111.59L86.4746 111.59L86.4745 111.59C86.4513 111.605 86.4278 111.619 86.4071 111.634C86.3202 111.699 86.2333 111.768 86.1561 111.842C86.0789 111.91 85.9827 112.001 85.8862 112.105C85.7415 112.257 85.5866 112.436 85.4708 112.596C85.4226 112.63 85.3744 112.666 85.3261 112.703C85.2516 112.76 84.9965 112.927 84.6762 113.137C83.9598 113.605 82.917 114.287 82.837 114.441C82.8177 114.491 83.0202 115.502 83.5991 115.084L83.6187 115.073C83.6766 115.094 83.7343 115.105 83.8019 115.105C83.8887 115.105 84.0142 115.083 84.1396 115.005C84.2747 114.926 86.417 113.605 86.5232 113.515C86.5392 113.504 86.555 113.489 86.574 113.471C86.5895 113.457 86.6071 113.441 86.6287 113.422C86.648 113.417 86.6676 113.411 86.6966 113.403C87.2658 113.224 87.9702 112.797 88.5781 112.277C88.6456 112.256 88.7227 112.217 88.8095 112.153C88.882 112.095 88.9809 111.986 89.0685 111.89L89.0686 111.89C89.1209 111.832 89.1692 111.779 89.2053 111.744C89.2825 111.675 89.919 110.923 90.0541 110.562C90.0818 110.484 90.0975 110.412 90.1033 110.345C91.3488 110.255 92.005 109.387 92.2073 108.921C94.5616 103.438 95.8255 100.399 96.3465 95.1632C96.5105 93.4988 96.7231 90.0676 96.5108 88.3974C96.4758 88.1176 96.3783 87.8622 96.2805 87.6058C96.1898 87.3681 96.0988 87.1295 96.057 86.87C95.9744 86.3267 96.2407 82.9873 96.3167 82.0333L96.3168 82.0328L96.3168 82.0325L96.3269 81.9056C96.4137 80.6252 96.1149 79.7124 96.1053 79.7037C95.2369 78.8373 92.294 79.9971 92.294 79.9971C92.294 79.9971 93.1238 79.6015 93.5001 79.6015C92.5984 79.6015 91.6309 79.7881 90.6582 79.9758L90.6574 79.9759C90.579 79.991 90.5006 80.0062 90.4222 80.0212C90.3773 80.0297 90.3323 80.0382 90.2875 80.0467L90.2873 80.0467C89.6679 80.1645 89.0576 80.2805 88.4728 80.1968C85.5299 79.7761 82.3654 79.8552 79.3743 80.1881C78.8293 80.2488 78.1711 80.128 77.5925 80.0218C77.4541 79.9964 77.3202 79.9718 77.1935 79.9508C76.0058 79.7531 74.627 80.0539 73.4218 80.3168C73.1681 80.3721 72.9221 80.4258 72.6871 80.4728C72.0021 80.6088 70.3812 80.7053 69.7058 80.4814C69.7347 80.4911 69.8603 80.5364 69.8603 80.5364C69.8603 80.5364 69.0212 80.2759 68.6738 80.2846C67.9791 80.301 67.4482 80.5857 67.0719 80.9658C66.85 81.1858 66.5317 81.5882 66.4063 82.2568C66.335 82.6454 66.4057 83.8063 66.4475 84.4923C66.4622 84.7347 66.4734 84.9177 66.4734 84.9865C66.4734 85.0998 66.4708 85.2387 66.4678 85.3959C66.4558 86.0391 66.4381 86.9866 66.5699 87.721ZM70.2648 99.2222C70.2503 99.1807 70.2382 99.1392 70.2273 99.0976C70.2615 99.1281 70.2961 99.1589 70.3311 99.1898C70.3091 99.1986 70.287 99.2093 70.2648 99.2222ZM75.4458 103.209C75.4385 103.19 75.4305 103.171 75.4219 103.154C75.4673 103.176 75.5133 103.198 75.5598 103.22C75.5228 103.213 75.4847 103.209 75.4458 103.209ZM75.9184 103.496C75.8816 103.424 75.8367 103.368 75.7856 103.325C75.8649 103.362 75.9456 103.398 76.0275 103.434C75.9912 103.455 75.9548 103.476 75.9184 103.496ZM86.8808 110.871C86.9617 110.799 87.0424 110.72 87.0999 110.639C87.0569 110.698 86.9768 110.779 86.8808 110.871ZM87.1122 110.622C87.1085 110.627 87.1044 110.633 87.0999 110.639C87.1041 110.634 87.1082 110.628 87.1122 110.622ZM68.1619 92.9353C68.0944 92.8378 68.0172 92.7172 67.969 92.5744L68.0172 92.6371L68.1619 92.8291L68.1619 92.9353ZM72.5805 105.094C72.5516 105.102 72.5226 105.107 72.484 105.109C72.5113 105.125 72.5338 105.142 72.5549 105.157C72.5583 105.16 72.5618 105.162 72.5653 105.165C72.5679 105.167 72.5706 105.168 72.5732 105.17C72.5757 105.172 72.5781 105.174 72.5805 105.176C72.5831 105.175 72.5859 105.174 72.5891 105.173L72.5977 105.171C72.6181 105.166 72.6454 105.16 72.6672 105.153C72.6795 105.148 72.6935 105.141 72.7085 105.135L72.7087 105.135C72.7291 105.126 72.7513 105.116 72.7735 105.105C72.7542 105.107 72.7348 105.108 72.7155 105.108C72.6769 105.108 72.6288 105.103 72.5805 105.094ZM73.2462 104.718C73.2365 104.746 73.2264 104.769 73.2168 104.788C73.2071 104.807 73.1976 104.825 73.1783 104.842L73.1979 104.83L73.3042 104.757L73.3029 104.756C73.284 104.745 73.265 104.733 73.2462 104.718Z" fill="#FFEAD1"/>
<path fill-rule="evenodd" clip-rule="evenodd" d="M85.6114 121.736C85.5246 121.82 85.4475 121.908 85.38 122.001C85.3124 121.961 85.2454 121.923 85.1682 121.885C84.7243 121.66 84.097 121.522 83.3251 121.67C82.9488 121.741 82.466 121.91 81.9546 122.106C81.8701 122.139 81.7847 122.178 81.7 122.217C81.5044 122.307 81.3126 122.395 81.1443 122.395C81.0285 122.394 80.9514 122.398 80.9129 122.402L80.8262 122.413C80.5656 122.289 80.2278 122.204 79.8032 122.204C79.2532 122.204 78.6935 122.349 78.1531 122.614C77.8973 122.739 77.4735 122.994 77.2366 123.137C77.1787 123.172 77.1319 123.2 77.1015 123.218C76.9176 123.246 76.7014 123.252 76.4772 123.259L76.477 123.259C76.3132 123.264 76.1451 123.269 75.9821 123.283C75.3356 123.34 74.7371 123.485 74.274 123.716C73.9845 123.861 73.2415 124.22 73.0196 124.323C72.8652 124.382 72.7113 124.46 72.5666 124.558C70.7526 125.771 71.8135 127.534 71.9582 127.753C71.9617 127.758 71.9657 127.764 71.9702 127.77L71.9704 127.77C72.1385 127.998 72.9858 129.149 74.583 128.584C74.6988 128.544 75.6737 128.082 76.1947 127.825L76.3877 127.813L76.4646 127.808L76.6289 127.898C77.3236 128.243 78.6261 128.39 80.0445 128.164C80.8936 128.028 81.7809 127.774 82.5336 127.483C83.0807 127.717 83.246 127.697 84.4064 127.551L84.4249 127.549C84.6968 127.515 85.3126 127.157 85.9688 126.775L85.969 126.775C86.7332 126.33 87.5522 125.854 87.9467 125.821C87.9828 125.829 88.2236 125.845 88.5854 125.87L88.5855 125.87L88.5857 125.87C89.9666 125.965 93.1098 126.181 93.3697 126.495C93.775 126.983 94.4401 126.583 94.6814 126.406C95.2217 125.993 95.4726 125.466 95.5498 124.918C95.6173 124.411 95.6081 123.698 94.9037 122.993C94.7783 122.868 94.4499 122.576 93.871 122.407C93.5043 122.28 93.1478 122.24 92.8873 122.232L92.8677 122.226L92.8558 122.222C92.7514 122.186 92.6474 122.151 92.4719 122.062C91.413 121.535 89.5958 121.426 88.7696 121.404C88.8545 121.313 88.9068 121.19 88.9068 121.055C88.9068 120.885 88.8196 120.732 88.6942 120.64C88.6556 120.54 88.5979 120.43 88.511 120.348C88.5303 120.235 88.5302 120.113 88.5012 119.98C88.453 119.789 88.3474 119.68 88.251 119.613C88.1545 119.544 88.0385 119.509 87.9034 119.513C87.807 119.515 87.6814 119.545 87.5559 119.628C87.5238 119.644 87.4982 119.664 87.4682 119.687C87.4622 119.691 87.4561 119.696 87.4496 119.701L87.4398 119.69C87.382 119.63 87.2957 119.576 87.1896 119.55L87.1986 119.529C87.2372 119.335 87.1793 119.185 87.1021 119.078L87.0998 119.075C87.0813 119.052 87.0628 119.029 87.035 119.007C87.0157 118.894 86.9772 118.808 86.9386 118.754C86.8903 118.686 86.8228 118.628 86.7456 118.588C86.7842 118.501 86.8223 118.414 86.8609 118.326C87.0249 117.88 86.7263 117.677 86.6491 117.631C86.6148 117.61 86.5765 117.537 86.5321 117.453C86.4393 117.276 86.3201 117.05 86.1568 117.144C86.1534 117.147 86.1425 117.214 86.1285 117.3C86.1036 117.453 86.0691 117.666 86.0506 117.678C85.9541 116.744 85.8772 116.744 85.8772 117.606C85.7517 117.575 85.5776 117.573 85.4136 117.714C85.375 117.746 85.3079 117.815 85.25 117.929C85.2274 117.967 85.2047 118.019 85.1801 118.075C85.1626 118.115 85.1442 118.157 85.1241 118.198C84.9601 118.293 84.7867 118.425 84.613 118.593C84.3622 118.829 84.111 119.132 83.8698 119.441C83.7518 119.498 83.4041 119.6 82.9778 119.724L82.9776 119.725C82.0788 119.988 80.8304 120.353 80.6472 120.615C80.5025 120.832 80.4735 121.041 80.5025 121.216C80.5121 121.437 80.6086 121.56 80.6954 121.634C80.8016 121.73 80.937 121.784 81.101 121.77C81.1878 121.763 81.3133 121.73 81.4387 121.638C81.4476 121.631 81.8361 121.606 82.2541 121.578C82.7426 121.546 83.2714 121.512 83.2818 121.501C83.4844 121.549 83.7253 121.511 83.9859 121.363C84.0341 121.412 84.0923 121.447 84.1502 121.473C84.2467 121.519 84.4005 121.561 84.5934 121.471C84.6224 121.46 84.6613 121.436 84.7095 121.394C84.7481 121.399 84.7771 121.401 84.806 121.401C85.0376 121.401 85.25 121.315 85.443 121.143C85.4623 121.152 85.4817 121.159 85.501 121.165C85.5493 121.18 85.7514 121.239 85.9541 121.088C86.012 121.108 86.0797 121.121 86.1568 121.121C86.2051 121.121 86.2633 121.113 86.3212 121.095C86.3338 121.148 86.351 121.194 86.3711 121.234C86.0937 121.344 85.8342 121.512 85.6114 121.736ZM75.7409 127.654C75.5769 127.916 75.3552 128.147 75.0851 128.33C75.471 128.072 75.6541 127.81 75.7409 127.654ZM75.5479 124.974C75.3646 124.753 75.143 124.575 74.8921 124.445C75.1719 124.584 75.384 124.762 75.5577 124.964L75.5479 124.974Z" fill="#FFEAD1"/>
<path d="M100.849 83.2204C100.868 83.1847 100.888 83.1538 100.907 83.1249C101.16 82.7841 101.349 82.7249 101.413 82.7049L101.419 82.7032C101.689 82.6193 101.862 82.7302 101.959 82.8479C102.19 82.6781 102.422 82.7331 102.547 82.7978C102.576 82.8142 102.615 82.8364 102.654 82.8672C102.663 82.8605 102.673 82.8547 102.682 82.8489C102.972 82.7225 103.165 82.8113 103.319 82.9753C103.377 83.038 103.435 83.1287 103.464 83.2522C103.479 83.3336 103.477 83.4642 103.475 83.566C103.474 83.5957 103.474 83.623 103.474 83.6459L103.474 83.752C103.561 83.7463 103.648 83.7646 103.725 83.8022C103.812 83.8447 103.918 83.9199 103.976 84.0685C103.995 84.1139 104.034 84.2306 104.014 84.4246C104.005 84.55 103.966 84.7787 103.898 85.1231C103.792 86.0668 103.522 87.628 103.367 88.3555C103.329 88.5601 103.29 88.7058 103.271 88.7666C103.252 88.8206 103.232 88.8621 103.213 88.892C103.184 89.0531 103.155 89.2133 103.116 89.3716C102.943 90.1338 102.702 90.8507 102.326 91.42C102.22 91.5802 102.084 91.6304 101.968 91.6487C101.939 91.6535 101.911 91.6564 101.882 91.6564C101.804 91.7818 101.717 91.9054 101.631 92.0279C101.58 92.1182 101.696 92.4378 101.805 92.7404C101.905 93.0167 102 93.2788 101.959 93.3392C101.823 93.5524 101.689 93.7 101.582 93.7743C101.573 93.7879 101.553 93.7994 101.534 93.81C101.418 93.962 101.302 94.1013 101.199 94.2242C101.157 94.2745 101.118 94.3222 101.081 94.3668C101.067 94.3823 101.054 94.3974 101.041 94.4121L101.041 94.4122C101.009 94.4478 100.98 94.4814 100.945 94.5134C100.915 94.5731 100.887 94.6237 100.864 94.6641L100.864 94.6642C100.845 94.6996 100.829 94.7271 100.82 94.746C100.699 94.9595 100.386 95.0882 100.098 95.2065C99.858 95.3053 99.6351 95.3969 99.5561 95.5246C99.4596 95.9617 99.1417 96.0891 98.9583 96.0891C98.9004 96.0891 98.8419 96.0804 98.7744 96.0621C98.6996 96.2771 98.5706 96.3662 98.5451 96.3838L98.543 96.3853C98.4079 96.4693 98.2828 96.476 98.1766 96.4558C98.1573 96.4519 98.1379 96.4481 98.1186 96.4423C97.9739 96.6487 97.7711 96.6873 97.6746 96.6893C97.5781 96.6912 97.424 96.6738 97.3082 96.559C97.2986 96.5696 97.2885 96.5783 97.2788 96.586C96.999 96.8716 96.7487 96.7973 96.5944 96.7182C96.44 96.6362 96.3239 96.503 96.2853 96.3101C96.266 96.2155 96.2663 96.0901 96.3049 95.9424C96.3435 95.7832 96.4398 95.5642 96.5846 95.3346C96.6521 95.2236 96.7291 95.1097 96.816 94.9978C96.7002 94.8907 96.623 94.719 96.623 94.4594C96.6327 94.2471 96.729 93.8708 96.8544 93.4646C96.922 92.9658 97.1537 91.5281 97.3949 90.2718C97.4142 90.1242 97.4335 89.9756 97.4432 89.826C97.4822 89.4965 97.5037 89.1651 97.5252 88.8338C97.5515 88.4289 97.5778 88.0239 97.6361 87.6222C97.6651 87.4283 97.7522 87.3163 97.8487 87.2517C97.8455 87.2223 97.8413 87.1925 97.837 87.1625L97.837 87.1623C97.8282 87.101 97.8193 87.0388 97.8193 86.9767C97.7325 86.4528 97.6557 85.9076 97.6075 85.4483C97.5882 85.403 97.5689 85.3509 97.5593 85.2901L97.5592 85.2812C97.5592 85.2257 97.5592 85.1228 97.5683 84.9958C97.5683 84.9747 97.566 84.9538 97.5637 84.9333C97.5614 84.9135 97.5592 84.8941 97.5593 84.8752C97.5496 84.6224 97.5689 84.4207 97.6075 84.2885C97.6171 84.2364 97.6364 84.1891 97.6557 84.1476L97.6746 83.9585L97.6844 83.8582C97.6844 83.781 97.6845 83.7241 97.6942 83.6932C97.7135 83.2657 98.0801 83.1914 98.1284 83.1857C98.2635 83.1635 98.4276 83.1837 98.5724 83.3294L98.5814 83.341C98.7262 83.2802 98.8617 83.2889 98.9968 83.3506C99.045 83.3738 99.1025 83.4095 99.1604 83.4674C99.2086 83.4645 99.2569 83.4684 99.3051 83.478C99.5367 83.2387 99.807 83.1972 100.039 83.2734C100.048 83.2783 100.068 83.285 100.087 83.2918C100.174 83.2088 100.27 83.1615 100.348 83.1384C100.483 83.0988 100.618 83.1094 100.734 83.1577C100.772 83.1731 100.81 83.1934 100.849 83.2204Z" fill="#FFEAD1"/>
<path d="M60.7578 84.6081C60.6903 84.6226 60.4879 84.6756 60.3915 84.9111C60.3239 84.9323 60.2562 84.9699 60.1887 85.0307C60.1404 85.0703 60.0634 85.1552 60.0055 85.2893C59.9495 85.4166 59.8868 85.6514 59.8395 85.8286C59.8298 85.865 59.8207 85.8989 59.8125 85.929C59.5713 86.4896 59.3301 87.2056 59.3301 87.5008C59.3301 87.7826 59.4653 87.9466 59.5811 88.0306C59.5907 88.1068 59.6002 88.1801 59.6195 88.2496C59.6678 88.5053 59.8124 88.595 59.8992 88.6355L59.909 88.6442C59.938 88.8083 59.9763 88.952 60.0341 89.0668C60.1113 89.2212 60.2179 89.2974 60.3048 89.338C60.2662 89.6255 60.2567 89.8417 60.2663 89.969C60.2953 90.2392 60.4297 90.381 60.5166 90.4447C60.5841 90.491 60.652 90.5267 60.7292 90.5451C60.7195 90.6425 60.7293 90.7245 60.739 90.7863C60.7776 91.0835 60.9318 91.2089 61.0669 91.261C61.0674 91.2653 61.068 91.2697 61.0686 91.274C61.0777 91.344 61.0879 91.4217 61.1151 91.507C61.1248 91.5862 61.1442 91.6527 61.1732 91.7068C61.096 91.728 61.0382 91.7676 60.99 91.8033C60.8839 91.8824 60.7872 92.0059 60.7872 92.2133C60.7872 92.2278 60.7872 92.3822 60.9319 92.5713C61.0381 92.7141 61.385 93.1377 61.7709 93.5951C61.9556 93.8522 62.1473 94.1279 62.3402 94.4054C62.5405 94.6934 62.7421 94.9834 62.9386 95.2566C63.45 95.9697 63.9517 96.5737 64.3377 96.8313C64.5886 97.0021 64.7817 96.9654 64.8782 96.9394C65.0326 96.8921 65.1678 96.7966 65.2257 96.62C65.3801 96.811 65.5343 97.0002 65.6983 97.1854C65.704 97.2079 65.7128 97.2288 65.7211 97.2483C65.7271 97.2624 65.7328 97.2758 65.7368 97.2887C65.8622 97.5627 66.0456 97.6814 66.171 97.7238C66.2026 97.7573 66.2338 97.7906 66.2647 97.8237C66.366 97.932 66.4657 98.0386 66.5765 98.1436C66.8274 98.4012 67.0784 98.3105 67.1653 98.269C67.2714 98.2256 67.5705 98.0229 67.4547 97.6013C67.3968 97.3803 67.059 96.7097 66.8178 96.4502C66.702 96.3305 66.5862 96.2649 66.4801 96.2311L66.4605 96.1636C66.4508 96.1279 66.4416 96.0932 66.4416 96.0575L66.422 95.9716C66.4703 95.8983 66.5281 95.7854 66.5185 95.6213C66.5089 95.5586 66.4701 95.3068 66.4122 95.0067C66.4798 94.9276 66.5185 94.8157 66.5185 94.6622C66.5151 94.6377 66.5083 94.5609 66.4996 94.4632C66.4833 94.28 66.4605 94.0232 66.4416 93.898L66.422 93.7244L66.3934 93.4532C66.4127 93.4098 66.422 93.3606 66.422 93.3037C66.4317 93.2612 66.4222 93.0374 66.3836 92.5472C66.3577 92.2419 66.3332 92.0631 66.3127 91.9144C66.2799 91.6748 66.2577 91.5131 66.2577 91.0256L66.2577 90.9329C66.2385 90.6859 66.0959 90.5957 66.0654 90.5764L66.0647 90.5759C66.0358 90.5528 66.007 90.5335 65.978 90.5171C65.9394 90.2643 65.8913 90.0057 65.8431 89.8388C65.7852 89.6545 65.708 89.53 65.6501 89.4692L65.6403 89.4596L65.6305 89.2753L65.6403 89.0958C65.6789 88.1174 65.698 86.123 65.6305 85.7457C65.5726 85.4495 65.4188 85.3385 65.332 85.2941C65.2837 85.2652 65.2255 85.243 65.1677 85.2295C65.1484 85.1475 65.1288 85.0847 65.0998 85.0433C64.9744 84.8271 64.8013 84.7576 64.6083 84.7654C64.5022 84.7692 64.3186 84.8001 64.1545 85.0172C64.0966 84.9091 64.0098 84.8503 63.9615 84.8184C63.8554 84.7567 63.7395 84.7191 63.614 84.7374C63.4886 84.6293 63.3442 84.6042 63.1994 84.6226C63.1029 84.6341 62.9098 84.6805 62.7554 84.9304C62.7072 84.914 62.6687 84.9024 62.6205 84.8956C62.4951 84.8773 62.3021 84.8879 62.0898 85.0751C62.0521 85.11 62.0139 85.155 61.9672 85.2102L61.9639 85.214C61.935 85.2227 61.906 85.2333 61.8674 85.2488C61.8586 85.2523 61.8499 85.2575 61.8411 85.2628C61.8403 85.2633 61.8396 85.2638 61.8388 85.2642C61.723 85.159 61.5878 85.1166 61.443 85.1262L61.4144 85.1291C61.4124 85.1211 61.4104 85.1133 61.4085 85.1056C61.3827 85.0032 61.3645 84.9308 61.3465 84.8985C61.1825 84.5579 60.8929 84.5801 60.7578 84.6081Z" fill="#FFEAD1"/>
<path d="M118.404 51.6632C118.282 51.8336 118.147 51.9939 118 52.1425C117.262 52.9147 116.236 53.3896 115.098 53.403C113.96 53.4165 112.923 52.9661 112.167 52.2117C111.411 51.4804 110.936 50.445 110.923 49.3116C110.914 48.5918 111.092 47.907 111.413 47.3113C111.58 46.9284 111.798 46.5892 112.059 46.3222C112.274 46.1015 112.503 45.9515 112.744 45.8474C113.389 45.4142 114.164 45.1557 115 45.1458C116.138 45.1323 117.175 45.5824 117.931 46.3137C118.687 47.045 119.162 48.0804 119.175 49.2138C119.184 49.9281 119.008 50.6078 118.692 51.2003C118.627 51.35 118.546 51.4885 118.451 51.6116C118.44 51.6245 118.425 51.6421 118.404 51.6632Z" fill="#FDAF52"/>
<path d="M98.1383 53.1176C98.0336 53.1266 97.9278 53.1324 97.8214 53.1356L97.8145 53.1361C97.5823 53.1505 97.1158 53.1451 97.1158 53.1451C96.7187 53.1399 96.3993 52.8165 96.3997 52.4194C96.3997 52.2702 96.4452 52.1314 96.5227 52.0161C96.4853 51.9661 96.4572 51.9141 96.4369 51.8623C96.2376 51.5453 96.2325 51.1119 96.4627 50.7174L96.4703 50.7049C96.4341 50.6916 96.4005 50.6764 96.3686 50.6602C96.0951 50.5213 95.8897 50.2642 95.8115 49.89C95.7633 49.6545 95.781 49.3406 95.8424 49.0191C95.7701 48.7066 95.7425 48.4054 95.7694 48.1429C95.807 47.7684 95.9481 47.4544 96.182 47.2199C96.249 47.1527 96.3246 47.0904 96.4105 47.0358C96.4249 46.8719 96.4463 46.7292 96.4767 46.613C96.6103 46.0969 96.9257 45.8613 97.1932 45.7911C97.353 45.7491 97.5212 45.72 97.6938 45.704C97.9246 45.6567 98.1886 45.627 98.4757 45.6261C98.7979 45.6259 99.142 45.6709 99.4905 45.7792C99.7064 45.8463 99.9208 45.9428 100.129 46.0689C100.887 46.5284 101.564 47.3942 101.905 48.9119C102.21 50.3497 101.841 51.3849 101.253 52.1255C100.215 53.4293 98.452 53.7929 98.452 53.7929L98.0967 53.8667L97.95 53.1562L98.1383 53.1176Z" fill="#FDAF52"/>
<path d="M58.7908 45.9448C58.8068 45.9433 58.8206 45.942 58.8318 45.9411C58.8503 45.9396 58.8613 45.9389 58.8613 45.9389C59.2975 45.9305 59.6882 46.2062 59.8269 46.6195C59.8697 46.7487 59.8853 46.8816 59.8755 47.0118L59.8787 47.0515C59.8877 47.1975 59.8122 47.3539 59.7028 47.5005C59.6736 47.5431 59.6414 47.5835 59.6052 47.6213C59.5812 47.6768 59.55 47.735 59.5093 47.7945C59.5032 47.8045 59.4928 47.8162 59.4797 47.8311L59.5053 48.2469L59.5051 48.2558L59.5105 48.331C59.5125 48.3627 59.5099 48.3932 59.5028 48.4225C59.504 48.5024 59.5038 48.583 59.5022 48.6638C59.5019 48.7075 59.4703 49.0359 59.43 49.1501C59.4218 49.1743 59.4136 49.1963 59.4038 49.2176L59.4047 49.2316C59.4083 49.3032 59.4103 49.3719 59.41 49.4393C59.4136 49.4451 59.4171 49.451 59.4206 49.4569C59.4224 49.4598 59.4241 49.4627 59.4258 49.4657C59.4295 49.472 59.4331 49.4784 59.4366 49.485L59.4396 49.4907C59.475 49.5563 59.5435 49.6834 59.5572 49.9054L59.5857 50.3677C59.5866 50.3831 59.5877 50.3985 59.5887 50.4138L59.5888 50.4145L59.5889 50.4154L59.5889 50.4164L59.589 50.4177C59.5928 50.4732 59.5966 50.5286 59.596 50.5839C59.5924 50.8609 59.4999 51.0539 59.4001 51.1881C59.3739 51.2785 59.3348 51.3653 59.2843 51.4454C59.2827 51.6372 59.271 51.8304 59.2425 52.0172C59.2878 52.1883 59.3227 52.3816 59.307 52.5113C59.2957 52.6045 59.2744 52.6909 59.2438 52.7713L59.2417 52.7795L59.2398 52.7866C59.2366 52.7991 59.2335 52.8112 59.2299 52.8225C59.2212 52.8515 59.2116 52.8794 59.2011 52.9062L59.2372 52.9191L58.6825 54.4554L57.9191 54.1783C57.9191 54.1783 57.6552 54.087 57.2795 53.8769C57.1527 53.824 57.0267 53.7565 56.9055 53.6802C56.6949 53.576 56.5098 53.4302 56.3543 53.2512C56.3018 53.2018 56.2526 53.1527 56.2076 53.1049C56.1915 53.0878 56.1752 53.0705 56.1588 53.0529C56.0174 52.9177 55.8779 52.7687 55.7448 52.6052C55.2361 51.9817 54.821 51.1509 54.7323 50.0706C54.7027 49.4691 54.7966 48.9052 55.0326 48.4049C55.186 48.08 55.379 47.7726 55.6223 47.5125C55.9704 47.1368 56.3642 46.8299 56.7896 46.598C56.9918 46.4874 57.1742 46.3965 57.3733 46.3212C57.6197 46.2273 57.8465 46.1557 58.0432 46.1014C58.0615 46.095 58.0798 46.0886 58.0981 46.0821L58.1047 46.0802C58.2363 46.0174 58.2731 46.0025 58.4517 45.97C58.5527 45.952 58.7596 45.9459 58.7596 45.9459L58.7667 45.9461C58.784 45.9438 58.7929 45.9428 58.7929 45.9428L58.7908 45.9448Z" fill="#FDAF52"/>
<path d="M37.7515 48.8123C37.6458 48.9475 37.549 49.0895 37.4619 49.2376C37.4044 49.2975 37.3578 49.354 37.3239 49.4044C37.2411 49.5274 37.1643 49.6997 37.1429 49.9175C37.1316 49.9539 37.1205 49.9907 37.11 50.0268C36.9726 50.4612 36.9113 50.9269 36.9409 51.4077C37.0072 52.483 37.4982 53.4121 38.2381 54.0661C38.976 54.7202 39.9654 55.0791 41.0268 55.0137C42.0901 54.9482 43.0261 54.4707 43.6801 53.7308C44.3341 52.9909 44.7054 52.0086 44.6391 50.9333C44.6332 50.8383 44.6239 50.7442 44.6113 50.6513C44.5308 49.6023 44.0799 48.5963 43.4258 48.0178C42.9776 47.6219 42.5016 47.4846 41.9929 47.4421C41.8962 47.434 41.7977 47.4317 41.6979 47.4297C41.3325 47.3401 40.948 47.3032 40.5531 47.3276C40.4549 47.3336 40.3577 47.3434 40.2617 47.3567C39.7716 47.4055 39.2781 47.5591 38.8683 47.81C38.3593 47.9876 37.9949 48.3528 37.7515 48.8123Z" fill="#FDAF52"/>
<path d="M77.6421 89.0239L77.6417 89.0251C77.6157 89.1027 77.5941 89.1669 77.5806 89.2044C77.4612 89.4616 77.3364 89.7159 77.2118 89.97C77.0749 90.249 76.9382 90.5278 76.8087 90.8099C76.7055 91.0345 76.6009 91.2582 76.4965 91.4816L76.4958 91.4832C76.0437 92.4506 75.5935 93.4139 75.2587 94.4346C74.947 95.3643 75.4609 96.3808 76.4046 96.6925C77.0814 96.9197 77.7948 96.7083 78.2575 96.2295C78.4566 96.5263 78.6999 96.7057 78.9064 96.8036C79.3287 97.0332 79.7719 97.0787 80.2475 96.9378C80.2545 96.9357 80.2618 96.9335 80.2693 96.9313L80.2718 96.9306C80.522 96.8572 81.0825 96.6928 81.4264 95.8883C81.5574 95.5903 81.6667 95.279 81.7658 94.9522C82.4056 95.7794 83.4789 96.6546 85.1081 96.8687C86.193 97.0057 87.5819 96.8604 89.3043 96.0315C90.2025 95.6179 90.5802 94.5299 90.1553 93.6372C89.7288 92.7449 88.6569 92.372 87.7587 92.7856C86.7151 93.2852 85.9403 93.4204 85.3488 93.2461C84.8922 93.1317 84.5671 92.6834 84.4657 92.5265C84.4104 91.8033 84.2199 90.3207 83.8795 89.6246C83.4763 88.7989 82.8372 88.4558 82.2826 88.3631C82.0102 88.3156 81.6023 88.2981 81.1608 88.4853C80.8531 87.782 80.3661 87.5847 80.0726 87.4881C79.4953 87.2928 78.8822 87.3385 78.3004 87.8437C78.1751 87.9431 78.0345 88.0817 77.9128 88.3059C77.8508 88.4012 77.7242 88.7789 77.6421 89.0239Z" fill="#FDAF52"/>
<path d="M111.016 40.9944C110.776 40.9972 110.555 41.0998 110.383 41.2753C110.18 41.482 110.049 41.794 110.053 42.1437C110.057 42.4935 110.196 42.8023 110.403 43.0042C110.579 43.1756 110.803 43.273 111.043 43.2701C111.283 43.2673 111.505 43.1646 111.677 42.9891C111.878 42.7824 112.011 42.4704 112.006 42.1206C112.002 41.7709 111.863 41.4621 111.656 41.2602C111.48 41.0888 111.256 40.9915 111.016 40.9944Z" fill="#232221"/>
<path d="M100.936 40.7199C100.696 40.7228 100.475 40.8254 100.303 41.0008C100.1 41.2076 99.9689 41.5196 99.973 41.8693C99.9772 42.2191 100.116 42.5279 100.323 42.7298C100.499 42.9011 100.723 42.9985 100.963 42.9957C101.204 42.9928 101.425 42.8902 101.597 42.7147C101.798 42.5079 101.931 42.1959 101.926 41.8461C101.922 41.4964 101.783 41.1877 101.576 40.9857C101.4 40.8144 101.177 40.7171 100.936 40.7199Z" fill="#232221"/>
<path fill-rule="evenodd" clip-rule="evenodd" d="M105.55 49.8098C105.035 49.4787 104.758 49.0215 104.62 48.5011C104.545 48.2155 104.514 47.9114 104.515 47.5995C104.515 47.2931 104.549 46.9777 104.582 46.6702L104.582 46.67V46.6697C104.592 46.5772 104.601 46.4853 104.61 46.3947L105.077 40.9361C105.106 40.6348 105.374 40.4141 105.676 40.4432C105.977 40.4722 106.197 40.7413 106.169 41.0425L106.169 41.0428L106.166 41.072C106.127 41.5237 105.703 46.4907 105.702 46.4941C105.699 46.5227 105.696 46.5514 105.694 46.5801L105.689 46.6307C105.657 46.9584 105.624 47.2945 105.611 47.6192C105.602 47.8477 105.601 48.0725 105.634 48.286C105.684 48.5936 105.798 48.8787 106.069 49.1039C106.251 49.2504 106.287 49.5146 106.149 49.7048C106.009 49.895 105.744 49.938 105.55 49.8098ZM105.612 49.6677C105.616 49.6712 105.621 49.6748 105.625 49.6748L105.612 49.6677Z" fill="#232221"/>
<path d="M108.433 53.8039C108.6 53.5803 108.567 53.2575 108.373 53.0802C108.152 52.8773 107.815 52.9002 107.623 53.153L107.631 53.1431C107.431 53.3862 107.168 53.6079 106.771 53.74C106.48 53.8367 106.122 53.8777 105.677 53.8611C105.669 53.8608 105.663 53.8607 105.656 53.8617C105.324 53.8683 105.031 54.1549 105.024 54.5225C105.016 54.9073 105.312 55.1943 105.659 55.1872C105.662 55.1873 105.665 55.1873 105.668 55.1873C105.672 55.1872 105.675 55.187 105.679 55.1865C106.289 55.1397 106.767 55.0154 107.154 54.8454C107.755 54.5784 108.146 54.2076 108.433 53.8039Z" fill="#232221"/>
<path fill-rule="evenodd" clip-rule="evenodd" d="M49.9831 48.3868C49.9529 48.7455 49.8446 49.0806 49.553 49.3622C49.3788 49.523 49.3615 49.7957 49.517 49.9767C49.6732 50.1617 49.9462 50.1895 50.1341 50.0401C50.6713 49.638 50.9375 49.1146 51.0464 48.5321C51.1061 48.2121 51.1158 47.875 51.0898 47.5319C51.0641 47.1918 51.0013 46.8469 50.9396 46.5075L50.9395 46.5073L50.9395 46.507C50.9206 46.4035 50.9019 46.3005 50.8843 46.1983C50.8847 46.1983 50.0377 41.1452 50.0377 41.1452L50.0373 41.1452C49.9842 40.8363 49.6895 40.6273 49.3792 40.6789C49.0692 40.7345 48.8605 41.0272 48.9136 41.3361L49.7607 46.3892C49.7657 46.4184 49.7707 46.4477 49.7758 46.4771L49.7884 46.5501C49.8505 46.9092 49.9143 47.2776 49.9548 47.6383C49.9841 47.8961 50.004 48.1463 49.9831 48.3868ZM50.0499 49.8912L50.0378 49.9C50.042 49.8957 50.0458 49.8914 50.0499 49.8912ZM49.69 49.4673C49.6879 49.4694 49.6858 49.4706 49.6836 49.4717L49.69 49.4673ZM49.6772 49.4762L49.6836 49.4717C49.6814 49.4729 49.6793 49.474 49.6772 49.4762Z" fill="#232221"/>
<path d="M54.2104 41.398C54.3901 41.1167 54.6694 40.9369 54.9855 40.9175C55.3023 40.8979 55.6008 41.0421 55.8146 41.2991C55.9827 41.5025 56.0973 41.7778 56.1164 42.0867C56.1354 42.3958 56.0554 42.683 55.9135 42.9056C55.7329 43.1869 55.4545 43.3665 55.1376 43.386C54.8216 43.4055 54.5223 43.2615 54.3093 43.0044C54.1404 42.8011 54.0257 42.5258 54.0067 42.2167C53.9877 41.9078 54.0676 41.6205 54.2104 41.398Z" fill="#232221"/>
<path d="M42.4675 42.2209C42.6472 41.9396 42.9266 41.7599 43.2426 41.7404C43.5595 41.7209 43.8579 41.865 44.0717 42.122C44.2398 42.3255 44.3545 42.6007 44.3735 42.9097C44.3925 43.2187 44.3126 43.506 44.1707 43.7285C43.9901 44.0098 43.7116 44.1894 43.3947 44.2089C43.0787 44.2284 42.7794 44.0845 42.5665 43.8274C42.3975 43.624 42.2829 43.3487 42.2638 43.0397C42.2448 42.7307 42.3248 42.4435 42.4675 42.2209Z" fill="#232221"/>
<path fill-rule="evenodd" clip-rule="evenodd" d="M48.3768 54.109C48.1607 53.9086 47.8229 53.9168 47.6177 54.1299C47.411 54.3447 47.417 54.6863 47.6306 54.8939C47.996 55.2725 48.4765 55.6015 49.1903 55.7895C49.6461 55.9101 50.2025 55.9684 50.9011 55.9276L50.9192 55.9258C51.2921 55.8844 51.5609 55.5486 51.5202 55.1759C51.4799 54.8043 51.1436 54.5341 50.7706 54.5756L50.7526 54.5774C50.2256 54.6627 49.7987 54.6732 49.4439 54.6127C48.9665 54.5325 48.6354 54.3377 48.3768 54.109ZM47.6306 54.8939L47.6224 54.8853L47.6327 54.8959L47.6306 54.8939ZM48.3768 54.109L48.38 54.112L48.384 54.1158L48.3729 54.1055L48.3768 54.109Z" fill="#232221"/>
<path fill-rule="evenodd" clip-rule="evenodd" d="M132.006 43.201C132.061 44.3897 132.156 46.6138 132.173 47.9923C132.185 49.0017 132.16 53.1668 131.919 56.0413C131.803 57.4246 131.608 58.5357 131.387 58.992C131.329 59.1128 131.125 59.4309 130.603 59.6072C129.894 59.8468 127.553 60.2717 125.285 60.5207C125.384 61.7434 125.517 63.0157 125.703 64.2092C125.945 65.7559 126.268 67.166 126.753 68.1269C127.323 69.2693 128.043 70.2063 128.865 71.0514C130.005 72.2171 131.343 73.2222 132.815 74.328C135.127 76.0657 137.771 78.0522 140.502 81.302C144.147 85.6284 145.536 92.1503 145.287 98.7388C145.031 105.2 143.211 111.714 140.523 116.218C139.836 117.366 138.976 118.446 137.974 119.463C137.976 119.506 137.976 119.55 137.971 119.594C137.971 119.594 137.476 124.146 137.599 132.197C137.659 135.761 137.85 140.005 138.242 144.844C138.268 145.031 138.124 145.195 137.934 145.213C137.758 145.232 137.594 145.097 137.569 144.909C137.034 140.065 136.73 135.808 136.543 132.233C136.261 126.812 136.283 122.951 136.329 120.975C133.399 123.426 129.645 125.466 125.625 127.152C124.333 127.694 123.013 128.199 121.685 128.672C121.687 128.697 121.688 128.722 121.687 128.747C121.682 128.852 121.712 129.254 121.758 129.867C121.88 131.501 122.114 134.636 122.093 137.664C122.083 138.533 122.064 139.394 122.006 140.21C123.569 140.512 124.823 141.004 124.823 141.004C124.987 141.066 125.065 141.246 125.007 141.407C124.939 141.569 124.756 141.649 124.601 141.587C124.601 141.587 123.424 141.145 121.948 140.885C121.851 141.975 121.697 142.961 121.456 143.75C120.877 145.654 119.362 146.103 118.002 145.736C116.545 145.34 115.329 143.957 115.744 142.495C116.197 140.88 117.471 140.194 118.967 140.022C119.574 139.951 120.221 139.969 120.848 140.035C120.877 139.278 120.867 138.481 120.848 137.677C120.755 134.576 120.389 131.375 120.203 129.758L120.203 129.758L120.203 129.757L120.203 129.757L120.203 129.751L120.201 129.739C120.178 129.534 120.157 129.355 120.141 129.206C114.013 131.265 107.889 132.638 103.7 133.577L103.7 133.577C103.149 133.7 102.632 133.816 102.152 133.925C102.108 134.666 101.991 136.698 101.899 138.735C101.783 141.287 101.697 143.839 101.697 143.839C101.697 144.019 101.552 144.165 101.378 144.164C101.195 144.164 101.05 144.017 101.05 143.837C101.05 143.837 100.982 141.285 100.886 138.731C100.812 136.957 100.724 135.186 100.678 134.269C100.088 134.412 99.5967 134.541 99.2202 134.657C98.4073 134.907 97.1462 135.202 95.7459 135.474C95.7212 136.459 95.6635 137.394 95.6073 138.305L95.6073 138.305L95.6073 138.306L95.6072 138.308C95.5965 138.48 95.586 138.651 95.5757 138.821C95.5704 138.909 95.5653 138.996 95.5602 139.083C95.4171 140.954 95.2773 142.723 95.1007 144.536C95.0822 144.731 94.9122 144.881 94.7125 144.871C94.5269 144.862 94.3692 144.692 94.3879 144.496C94.3909 144.093 94.3954 143.693 94.4 143.293L94.4 143.289C94.4126 142.187 94.4252 141.09 94.4043 139.964C94.3753 138.616 94.3012 137.237 94.1818 135.754C93.0631 135.94 91.9258 136.096 90.8881 136.192C87.1165 136.542 84.1477 135.628 82.0229 134.405C79.6492 133.038 78.3386 131.254 78.035 130.325C77.8971 129.893 77.9376 129.547 78.0572 129.29L71.5434 129.653C71.3091 129.664 71.0895 129.583 70.9208 129.427C70.7522 129.272 70.6536 129.055 70.6446 128.825L70.5437 126.264C69.0748 126.956 67.9321 127.523 67.4619 127.84C67.3285 127.93 66.8879 128.268 66.2368 128.78C66.206 129.645 66.1674 131.835 66.3298 135.841C66.4515 138.667 66.683 142.385 67.0726 147.171C67.0969 147.399 66.9386 147.602 66.7073 147.626C66.476 147.649 66.2697 147.482 66.2575 147.254C65.6853 142.468 65.3199 138.747 65.0886 135.919C64.8553 133.143 64.749 131.222 64.7009 129.999C63.7463 130.763 62.6218 131.671 61.4484 132.633C59.4275 134.293 57.2485 136.11 55.5442 137.623C50.8939 141.737 46.2192 144.893 41.8489 146.741C37.8316 148.445 34.0696 149.036 30.807 148.3C28.3115 147.735 26.1693 146.221 24.3798 144.254C23.1221 142.867 22.0368 141.255 21.1151 139.615C21.0778 140.72 21.0369 142.028 21.0035 143.336C20.9183 146.668 20.8818 149.998 20.8818 149.998C20.8818 150.171 20.7479 150.314 20.5774 150.316C20.3948 150.318 20.2605 150.178 20.2484 150.004C20.2484 150.004 20.1394 146.676 19.9811 143.348C19.8229 140.016 19.6283 136.692 19.6283 136.692C19.6281 136.687 19.628 136.681 19.628 136.676C19.628 136.673 19.628 136.67 19.628 136.666C19.3211 135.99 19.0425 135.33 18.7913 134.701C14.1897 123.142 11.8524 115.683 11.0611 109.963C10.1237 103.098 11.3784 98.6985 13.667 92.8066C14.6896 90.1631 16.0774 88.2111 17.6843 86.5528C19.0611 85.1299 20.6053 83.9324 22.2181 82.6816C24.7549 80.7142 27.4618 78.615 29.9549 75.2994C30.9653 73.9621 31.9392 71.5975 32.207 67.7232C32.3607 65.5533 32.2866 62.9224 31.8715 59.7488C31.2555 59.2173 27.3941 55.7629 25.6677 51.2412C24.781 48.9166 25.1066 46.1765 25.3238 44.9586C24.4198 44.3863 22.902 42.8378 22.3242 38.7692C21.9795 36.3467 23.4364 33.9875 24.1246 33.0308C23.5104 31.8016 22.2868 28.4932 24.6845 25.0608C26.392 22.6178 28.8012 21.684 31.2716 21.231C32.1767 21.0653 33.0888 20.9686 33.9676 20.8755C35.2637 20.7382 36.4874 20.6085 37.5098 20.2762C38.3195 20.0127 38.928 19.5915 39.5286 19.1757C39.7019 19.0556 39.8747 18.9361 40.0514 18.8209C41.4524 17.9062 43.0441 17.1638 46.4356 17.9402C49.2354 18.5806 50.7315 20.3858 51.3213 21.2836C52.2289 21.1629 54.126 20.9842 56.0232 21.2639C57.9093 21.5424 59.7725 22.2831 60.8244 23.838C61.9494 25.5007 62.0721 27.3514 61.7931 28.9775C61.4717 30.855 60.6137 32.4152 60.2902 32.9537L60.0798 40.5074C60.0798 40.5074 60.0575 41.2935 60.0109 41.6028C59.9997 41.6765 59.9828 41.743 59.9626 41.8024C59.9677 41.9265 59.9723 42.0541 59.9759 42.1849C60.0758 45.7339 60.0587 51.5891 59.9844 53.3818C59.8208 57.1601 57.5945 60.0393 54.6959 61.9694C54.184 62.3101 53.6568 62.6329 53.1054 62.9015C52.7367 63.0813 52.3594 63.239 51.9773 63.3776C51.6284 63.5042 51.2777 63.6163 50.9271 63.7155C50.9364 63.7578 50.9431 63.8011 50.947 63.8454C51.1174 65.9932 51.4948 68.9131 52.5905 71.4538C53.2722 73.0414 54.2464 74.4828 55.6586 75.4359C56.9733 76.3195 61.4654 78.6991 66.2496 79.4117C66.4222 79.4371 66.5779 79.505 66.7075 79.603L92.276 78.5589C94.2139 78.2251 95.9633 77.6319 97.4613 76.9832C99.8908 75.9353 101.629 74.7417 102.331 74.2598L102.331 74.2596C102.403 74.2104 102.464 74.1686 102.513 74.1351C102.594 74.0801 102.672 74.024 102.749 73.9666C102.754 73.9613 102.759 73.9559 102.764 73.9506L102.766 73.9482C102.768 73.9463 102.77 73.9444 102.772 73.9425L102.776 73.9388L102.781 73.9337C102.786 73.9287 102.791 73.9237 102.796 73.9189C102.854 73.8635 102.918 73.818 102.986 73.7823C104.276 72.7375 105.079 71.3592 105.569 69.9213C106.543 67.0807 106.311 63.9971 106.128 62.5669C106.08 62.2149 106.043 61.9646 106.019 61.8456V61.827C106.016 61.8178 106.014 61.8086 106.011 61.7994C105.148 61.5183 104.319 61.1331 103.529 60.6974C101.967 59.8366 100.58 58.6965 99.5031 57.2802C97.644 57.0677 94.1941 56.165 92.5212 55.4128C91.9045 55.1356 91.4164 54.8578 91.1272 54.6258C90.8844 54.4312 90.7336 54.2335 90.6499 54.07C90.5018 53.7806 90.449 53.2075 90.7675 52.5024C91.1495 51.6583 92.0973 50.3239 92.8125 49.317L92.8127 49.3167L92.813 49.3163C93.2015 48.7692 93.5214 48.3189 93.6444 48.0965C93.9014 47.6312 94.2166 47.1225 94.5482 46.5874L94.5484 46.5871L94.5485 46.5869L94.5486 46.5866L94.5487 46.5865C95.2449 45.463 96.0131 44.2232 96.4653 43.0249C96.4324 42.4992 96.4047 41.9772 96.3841 41.465C95.9831 41.402 95.4638 41.2956 94.9633 41.1201C94.1331 40.8293 93.1775 39.8547 92.6159 38.763C91.8341 37.2429 91.4705 35.3388 91.6954 34.0165C92.0915 31.6851 93.2097 29.9124 94.5684 28.4407C94.5842 28.3093 94.6162 28.1611 94.671 27.9986C94.9169 27.2688 95.7533 25.789 96.7851 24.2284C97.5621 23.0528 98.4476 21.8248 99.2448 20.8465C99.9708 19.955 100.643 19.2636 101.114 18.9405C101.566 18.6317 101.97 18.5683 102.246 18.6038C102.357 18.6182 102.516 18.5566 102.7 18.486C102.736 18.4718 102.774 18.4573 102.812 18.443C103.311 18.2575 103.867 17.9711 104.146 17.7201C104.755 17.1713 107.189 15.061 109.753 13.2989C111.522 12.0841 115.623 11.18 119.095 11.2466C120.516 11.2742 121.831 11.4628 122.848 11.8298C123.657 12.1217 124.295 12.5338 124.716 13.0393C126.561 15.2501 127.655 17.6324 128.465 19.7316C128.692 20.3175 128.903 21.2646 129.127 22.2744L129.127 22.2748C129.273 22.9304 129.424 23.6125 129.59 24.2394C129.715 24.7096 129.847 25.1447 129.995 25.5003C130.003 25.5192 130.01 25.5379 130.018 25.5563L130.018 25.5564C130.096 25.7447 130.162 25.9036 130.262 25.9877C130.916 26.5367 131.61 27.9038 131.733 28.598C132.272 31.6316 132.244 37.5028 132.104 41.2845C132.079 41.9553 132.046 42.5986 132.006 43.201ZM72.2024 125.493C72.2223 125.56 72.2342 125.632 72.2371 125.706L72.3232 127.891L84.6775 127.31C84.5355 126.928 84.5763 126.418 85.2511 125.937C85.807 125.542 86.7348 125.334 87.9056 125.303C89.0244 125.269 90.384 125.38 91.7589 125.493L91.7592 125.493C92.9657 125.591 94.184 125.691 95.2618 125.695C95.2325 125.615 95.2149 125.529 95.2114 125.439C95.1818 124.689 94.8105 123.988 94.1947 123.481C93.5233 122.94 92.6273 122.663 91.7078 122.701C89.8948 122.775 87.568 122.895 85.1528 123.019C83.8693 123.085 82.5609 123.153 81.2913 123.215C80.5569 123.251 79.3828 123.275 78.2881 123.297L78.2871 123.297C77.835 123.306 77.3964 123.314 77.008 123.324C75.3901 124.047 73.7087 124.801 72.2024 125.493ZM97.1295 125.557C97.0614 125.57 96.9917 125.582 96.9204 125.593C96.9368 125.522 96.9441 125.447 96.9411 125.371C96.911 124.607 96.6671 123.87 96.2462 123.222C96.2475 123.209 96.2485 123.195 96.2492 123.182C96.6186 116.878 95.8384 113.007 95.2006 109.841C94.9781 108.737 94.7729 107.719 94.6398 106.713C95.6929 104.373 96.4944 101.717 97.0477 98.9187C97.6411 98.6573 98.1953 98.365 98.7127 98.0468C98.6305 109.691 99.5335 122.774 99.6769 124.771C98.7741 125.137 97.929 125.405 97.1295 125.557ZM93.5379 110.824C94.0701 113.384 94.6907 116.369 94.5078 121.631C93.6568 121.17 92.6638 120.938 91.64 120.98C91.4696 120.987 91.2946 120.994 91.1155 121.002C88.3135 118.705 87.4016 116.857 87.1029 115.701C87.2057 115.472 87.279 115.266 87.3225 115.09C89.6961 113.986 91.6728 111.984 93.2477 109.385C93.337 109.858 93.4358 110.333 93.5379 110.824ZM85.9911 117.676C86.5263 118.73 87.2354 119.785 88.6914 121.115C87.5513 121.171 86.3293 121.234 85.0839 121.298L85.074 121.299C83.7349 121.368 82.3691 121.438 81.0493 121.503C82.861 120.614 84.3546 119.362 85.418 118.173C85.6055 117.964 85.7798 117.756 85.9408 117.552C85.9462 117.568 85.9523 117.585 85.9589 117.602C85.9643 117.616 85.9701 117.63 85.9763 117.644C85.981 117.654 85.9859 117.665 85.9911 117.676ZM87.9007 128.742L82.035 129.069L82.1467 129.116L82.1468 129.116C83.2514 129.582 84.61 130.155 86.3853 130.133C87.5101 130.119 88.8184 129.869 90.3393 129.214C90.2144 129.186 90.0898 129.16 89.9508 129.131C89.5672 129.052 89.1492 128.975 88.7246 128.897L88.7171 128.895C88.4452 128.845 88.1706 128.794 87.9007 128.742ZM101.35 124.016C101.112 120.582 100.292 107.797 100.453 96.7688C104.2 93.5091 105.382 88.7257 105.545 85.5787C105.632 84.3358 105.547 83.3441 105.389 82.7793C105.28 82.3046 105.087 82.013 104.946 81.8714C104.757 81.6718 104.294 81.4419 103.566 81.3657C103.162 81.322 102.649 81.3063 102.086 81.3082C102.476 79.7095 102.966 77.9666 103.574 75.9461C108.225 80.2608 113.585 80.1749 118.159 78.6835C122.854 77.1513 126.681 74.1152 127.904 73.0655C128.095 72.905 128.227 72.7873 128.297 72.7226C128.34 72.7629 128.384 72.803 128.427 72.8429C128.271 73.0347 128.199 73.291 128.25 73.5483C128.24 73.5966 128.192 73.8349 128.125 74.0163C127.913 74.6136 127.507 75.4328 126.996 76.4131C126.757 76.8691 126.497 77.3578 126.222 77.8738L126.222 77.8741C124.053 81.9473 120.979 87.7186 120.483 92.4776C119.441 102.503 119.576 113.604 119.576 113.604C119.576 113.649 119.592 113.69 119.62 113.726C115.38 115.941 111.79 118.063 108.695 119.891L108.695 119.892L108.694 119.892C106.363 121.269 104.314 122.481 102.481 123.44C102.094 123.644 101.717 123.836 101.35 124.016ZM101.643 76.3868C101.098 78.2357 100.661 79.8552 100.307 81.3563C99.6183 81.3867 98.9385 81.4266 98.3508 81.4611L98.3486 81.4612L98.3479 81.4612C98.2124 81.4692 98.0818 81.4769 97.9572 81.484C97.873 81.4889 97.7916 81.4935 97.7131 81.4979L97.6225 79.1975C97.6116 78.9205 97.4628 78.6806 97.2507 78.5328C97.5055 78.4346 97.7543 78.3342 97.9967 78.2324C99.4781 77.6122 100.72 76.939 101.643 76.3868ZM97.9503 87.5183L97.7918 83.4934C97.9873 83.4822 98.2024 83.4691 98.4316 83.4551L98.4318 83.4551L98.432 83.4551L98.4325 83.455C99.7419 83.3753 101.512 83.2676 102.735 83.3115C103.008 83.3188 103.282 83.3491 103.464 83.3785C103.525 83.7722 103.605 84.6213 103.593 85.4695C103.426 88.6349 102.107 93.7502 97.4647 96.466C97.8868 93.5183 98.0475 90.4728 97.9503 87.5183ZM67.1568 81.3077C67.179 82.945 67.2534 86.6429 67.4893 89.1371C67.9081 94.0127 68.9698 99.074 70.8207 103.467C71.0195 103.995 71.5475 105.037 71.9308 105.766C73.1304 105.137 74.4123 104.57 75.5326 104.144C76.8474 103.646 77.9672 103.346 78.5028 103.324C78.9411 103.306 79.2211 103.464 79.355 103.599C79.7202 103.972 79.8058 104.512 79.4406 105.167C79.0754 105.808 78.1498 106.681 77.1029 107.538C76.6808 107.883 76.2405 108.226 75.8243 108.551L75.8241 108.551C75.484 108.817 75.1601 109.069 74.8755 109.3C78.0205 109.071 81.2304 107.549 83.3582 106.54L83.3605 106.539L83.361 106.539C83.8429 106.311 84.2693 106.108 84.6267 105.954C85.1015 105.752 85.479 105.623 85.7347 105.579C86.0025 105.534 86.2211 105.566 86.3672 105.623C86.6593 105.728 86.8421 105.924 86.9273 106.203C86.9882 106.385 87.0007 106.618 86.8912 106.889C86.7816 107.151 86.4042 107.595 85.7956 108.114C84.8191 108.937 83.1915 110.099 81.514 111.297C81.2047 111.518 80.8936 111.74 80.5847 111.961C82.362 111.118 84.1274 110.306 85.223 109.892C85.8195 109.666 86.2696 109.56 86.4765 109.56C86.9269 109.562 87.1582 109.793 87.2678 109.987C87.3652 110.138 87.4147 110.332 87.3781 110.579C87.3538 110.727 87.2319 111.008 86.9397 111.343C86.3919 111.984 85.0165 113.21 83.4826 114.512C84.4078 114.121 85.2112 113.816 85.7347 113.684C86.0544 113.604 86.3149 113.59 86.5109 113.608C89.1368 112.415 91.2252 109.885 92.7654 106.707C95.3235 101.428 96.4454 94.26 96.2273 87.5748L95.9341 80.1326L67.1568 81.3077ZM123.378 111.828C122.665 112.175 121.969 112.522 121.289 112.867C121.28 110.273 121.317 101.081 122.201 92.6561C122.664 88.1491 125.577 82.7146 127.67 78.8089C127.974 78.2412 128.261 77.7057 128.521 77.2101C129.177 75.948 129.669 74.9243 129.862 74.2517C129.878 74.1953 129.892 74.1403 129.905 74.0869C130.463 74.5276 131.05 74.9669 131.659 75.4237C133.954 77.1435 136.58 79.1106 139.293 82.3318C142.696 86.3815 143.921 92.5066 143.685 98.6769C143.448 104.857 141.734 111.093 139.151 115.398C136.502 119.837 131.05 123.148 125.01 125.681C117.309 128.908 108.628 130.847 103.205 132.058C102.863 132.135 102.533 132.208 102.217 132.279C101.798 131.767 101.223 130.506 100.706 129.224C100.238 128.058 99.8242 126.869 99.701 126.168C100.749 125.758 101.87 125.216 103.083 124.561C104.882 123.589 106.891 122.369 109.174 120.981L109.175 120.981C113.122 118.583 117.892 115.685 123.818 112.713C124.038 112.6 124.268 112.348 124.479 111.955C124.785 111.334 125.074 110.301 125.306 109.096C125.987 105.658 126.32 100.793 126.32 100.793C126.344 100.563 126.163 100.358 125.935 100.341C125.694 100.323 125.491 100.497 125.48 100.731C125.48 100.731 125.17 104.532 124.597 107.758C124.353 109.2 124.043 110.525 123.693 111.319C123.68 111.348 123.668 111.375 123.656 111.402L123.655 111.403C123.561 111.613 123.489 111.773 123.378 111.828ZM98.0695 126.71C97.8373 126.772 97.6086 126.826 97.3832 126.871C95.9752 127.156 93.8964 127.017 91.8545 126.881C90.4611 126.788 89.0848 126.696 87.9507 126.74C87.4146 126.762 86.9334 126.801 86.5696 126.91C86.6921 126.952 86.8145 126.99 86.9389 127.02C87.5489 127.17 88.2934 127.299 89.0252 127.427L89.0254 127.427C89.7689 127.556 90.4993 127.683 91.0624 127.827C91.7249 127.994 92.1877 128.235 92.3818 128.449C92.5768 128.657 92.6543 128.883 92.6592 129.11C92.6538 129.397 92.5027 129.867 91.7644 130.235C89.6715 131.296 87.91 131.672 86.4091 131.698C84.3595 131.735 82.7965 131.102 81.5317 130.582L81.4574 130.551C80.9898 130.358 80.5709 130.185 80.1888 130.1C80.0085 130.059 79.8247 130.037 79.6625 130.06C79.7156 130.172 79.7807 130.302 79.8622 130.416C80.5034 131.391 81.9194 132.719 84.0389 133.631C85.7961 134.389 88.0349 134.853 90.7393 134.603C92.011 134.486 93.4427 134.273 94.7929 134.032C96.3819 133.74 97.848 133.407 98.7437 133.13C99.1715 132.999 99.7476 132.851 100.449 132.685C100.025 131.949 99.5376 130.921 99.1135 129.867C98.6514 128.723 98.2636 127.551 98.0695 126.71ZM112.253 62.2724C110.765 62.4386 109.21 62.4592 107.684 62.2042L107.687 62.2224C107.845 63.489 108.04 66.202 107.407 68.9472C106.946 70.9156 106.058 72.8957 104.452 74.407C108.629 78.4808 113.498 78.392 117.62 77.0469C122.037 75.6048 125.631 72.7448 126.787 71.7562C126.923 71.6427 127.04 71.5386 127.1 71.4836C126.427 70.7029 125.829 69.8421 125.323 68.843C124.785 67.7665 124.389 66.1895 124.121 64.4555C123.931 63.2286 123.796 61.9199 123.694 60.6642C122.945 60.7148 122.255 60.7331 121.698 60.7034C119.837 60.6035 117.089 59.8988 115.409 59.2854C114.529 58.9631 113.91 58.6198 113.696 58.4096C113.555 58.2695 113.415 58.0642 113.393 57.7468C113.385 57.6325 113.401 57.3771 113.549 57.0294C113.741 56.5755 114.263 55.6227 114.9 54.4595C115.478 53.4047 116.151 52.1768 116.758 50.991C117.544 49.4579 118.232 48.0101 118.374 47.1747C118.947 43.7934 117.757 37.5075 117.272 35.1917C115.862 35.3672 113.173 35.6515 111.608 35.5065C110.495 35.4035 109.291 35.0348 108.094 34.6681C106.905 34.3038 105.723 33.9416 104.642 33.8441L104.478 33.8292C103.355 33.7271 102.015 33.6053 100.864 33.7037C100.231 33.7575 99.6598 33.8569 99.2808 34.1374C98.9269 34.3996 98.7173 34.8644 98.5533 35.3777C98.3111 36.1362 98.0467 39.1313 97.9751 41.3161C98.0806 44.046 98.3931 47.0694 98.6383 49.4422L98.6386 49.4452L98.6399 49.4578L98.6404 49.4624L98.6406 49.4637L98.6412 49.4701C98.7074 50.1105 98.7686 50.7031 98.8194 51.2291C99.1845 55.0139 101.42 57.6836 104.304 59.3031C105.205 59.8089 106.178 60.1841 107.161 60.5239C108.824 61.0991 110.531 61.5377 112.224 61.5862C112.994 61.6083 113.747 61.559 114.478 61.4552L114.559 61.857C113.819 62.0552 113.047 62.1839 112.253 62.2724ZM94.7055 28.294L94.7125 28.2866C94.7175 28.2813 94.7226 28.2761 94.7277 28.2709C94.7317 28.2669 94.7357 28.2629 94.7397 28.259C94.7693 28.1479 94.7931 28.0775 94.7931 28.0775C94.7931 28.0775 94.7518 28.1679 94.7055 28.294ZM130.282 39.116C130.373 35.6515 130.248 31.6385 129.77 28.9474C129.702 28.5682 129.337 27.8154 128.98 27.5153C128.782 27.3496 128.586 27.0925 128.403 26.7629C127.558 26.0931 126.212 25.1742 124.732 24.2998C123.98 23.8553 123.197 23.4293 122.434 23.0446C121.587 22.619 120.766 22.2543 120.052 21.9678C119.708 21.8366 119.381 21.7155 119.077 21.6128C118.711 21.4887 118.378 21.3894 118.09 21.3167C117.983 21.2904 117.918 21.182 117.944 21.0747C117.971 20.9683 118.08 20.9028 118.187 20.93L120.202 21.5621C121.075 21.8577 122.097 22.2808 123.161 22.7295C124.134 23.1403 125.135 23.5809 126.075 24.0065C126.635 24.2602 127.171 24.5093 127.663 24.7465C127.507 24.1469 127.365 23.4978 127.229 22.8747L127.229 22.8744C127.018 21.9109 126.822 21.0097 126.606 20.4503C125.863 18.5289 124.873 16.3411 123.185 14.3174C122.96 14.0488 122.602 13.8612 122.171 13.7056C121.328 13.4008 120.235 13.2635 119.055 13.2406C116.026 13.182 112.427 13.8816 110.882 14.9435C108.412 16.6402 106.067 18.6738 105.48 19.2025C104.996 19.6383 103.969 20.1855 103.145 20.4354C102.813 20.5357 102.504 20.5867 102.253 20.5925C102.062 20.7658 101.329 21.4456 100.791 22.1061C100.032 23.0386 99.1898 24.2084 98.4496 25.3279C98.0722 25.8986 97.7039 26.5268 97.3939 27.0844C98.8538 26.5803 100.5 26.4247 102.075 26.2758L102.075 26.2758C102.507 26.235 102.933 26.1947 103.348 26.1479C108.793 25.5342 114.082 27.3752 118.965 29.4971C124.264 31.8012 128.152 35.9737 130.282 39.116ZM54.5506 77.0904C55.9151 78.0102 60.473 80.4446 65.4356 81.2999C65.4419 81.756 65.4523 82.3762 65.4691 83.0889C65.2183 83.0982 64.9109 83.1065 64.5671 83.1158C63.035 83.1571 60.7804 83.2179 59.5986 83.4716C58.9239 83.6098 58.4815 83.872 58.3085 84.0864C58.1785 84.2391 58.0099 84.5455 57.938 85.0229C57.8247 85.5988 57.818 86.5989 58.0024 87.826C58.5205 91.767 60.8596 98.1766 67.6156 100.467C67.7134 100.497 67.8106 100.513 67.9054 100.517C67.9809 100.76 68.0582 101.001 68.1374 101.242L63.9158 100.268C63.648 100.182 63.3437 100.237 63.1246 100.414C62.8933 100.59 62.7721 100.866 62.7964 101.151L63.4783 110.635L63.7176 114.729C63.0582 115.854 62.5706 116.754 62.3852 117.101C61.3139 117.765 54.6677 121.889 48.7878 125.879C45.4157 128.169 42.2989 130.419 40.6068 131.951C40.5754 131.873 40.5417 131.789 40.5058 131.7C40.3748 131.374 40.2139 130.974 40.0228 130.513C38.2577 126.148 34.2769 116.306 31.5013 111.07C31.3796 110.842 31.0992 110.754 30.8679 110.873C30.6488 110.993 30.5512 111.276 30.6729 111.504C31.7262 113.524 32.9538 116.229 34.1636 119.04C28.4951 123.144 20.9463 125.658 17.4292 126.7C14.735 119.355 13.2484 114.05 12.6437 109.745C11.7306 103.19 12.9236 98.9898 15.0784 93.3519C16.0157 90.9116 17.2698 89.1059 18.7428 87.5678C20.1171 86.124 21.6618 84.9026 23.2753 83.6269L23.2755 83.6267L23.2757 83.6266C25.4975 81.8699 27.8495 80.0102 30.0666 77.3245C30.0809 77.3336 30.0955 77.3429 30.1104 77.3525C31.4034 78.1948 35.4457 80.5983 40.1061 81.5266C44.8732 82.4733 50.2533 81.8995 54.1879 76.8319C54.3062 76.9209 54.4271 77.0071 54.5506 77.0904ZM67.2467 98.1779C62.1506 95.9227 60.3655 90.7798 59.9407 87.5672C59.8617 86.7135 59.8738 85.8515 59.9035 85.4541L59.9391 85.4462L59.9393 85.4462L59.9395 85.4462C60.1127 85.4079 60.3221 85.3617 60.5328 85.3316C61.6827 85.181 63.3733 85.1404 64.6055 85.1109L64.6066 85.1108L64.6081 85.1108L64.6102 85.1108H64.6103C64.9614 85.1023 65.275 85.0948 65.5281 85.0858C65.5799 86.5212 65.6576 88.0514 65.7736 89.2901C66.0228 92.2478 66.5069 95.2685 67.2467 98.1779ZM64.6101 102.291L68.8256 103.17C68.9512 103.495 69.0806 103.817 69.2139 104.136C69.4593 104.704 70.0346 105.86 70.4232 106.62C69.8164 106.995 69.2692 107.378 68.8248 107.756C67.8874 108.549 66.8291 109.91 65.8309 111.37C65.6532 111.63 65.4778 111.893 65.3058 112.156L64.6101 102.291ZM69.7017 108.797C70.2236 108.361 70.8965 107.92 71.6426 107.496C71.6947 107.482 71.7458 107.462 71.7954 107.436C71.8755 107.398 71.9465 107.349 72.0078 107.294C72.388 107.087 72.783 106.886 73.1835 106.692C74.8635 105.873 76.6404 105.201 77.7848 104.904C77.8091 104.898 77.8337 104.892 77.858 104.888C77.4441 105.35 76.8358 105.878 76.1784 106.407C75.729 106.773 75.2605 107.14 74.8166 107.487L74.8165 107.487C73.8896 108.213 73.0702 108.854 72.7574 109.229C72.307 109.764 72.4529 110.238 72.6234 110.458C72.7329 110.603 72.9275 110.761 73.2805 110.788C75.1431 110.934 77.0912 110.568 78.9051 110.005C80.2442 109.589 81.5101 109.067 82.6057 108.576C81.953 109.05 81.2413 109.555 80.5199 110.066C79.1691 111.024 77.7842 112.006 76.6891 112.855C75.484 113.794 74.6198 114.622 74.3885 115.098C74.3155 115.255 74.4855 116.585 75.5203 116.154C75.7029 116.079 76.0808 115.903 76.5921 115.658C77.0226 115.452 77.5519 115.195 78.1413 114.909L78.1418 114.908C79.7694 114.118 81.8549 113.106 83.5796 112.325C81.6196 114.029 78.9656 116.166 77.5413 117.269C77.4159 117.363 77.3021 117.448 77.1997 117.525L77.1943 117.529C77.1496 117.563 77.1071 117.595 77.0667 117.625C77.058 117.63 77.0493 117.636 77.0406 117.641C77.0358 117.644 77.0309 117.647 77.0261 117.65C77.0199 117.654 77.0138 117.657 77.0077 117.661C76.9785 117.679 76.9493 117.695 76.9203 117.712C76.6768 117.855 76.5311 117.972 76.458 118.033C75.9346 118.542 76.2507 119.025 76.4333 119.201C76.482 119.263 76.9206 119.645 77.4928 119.287L77.5091 119.276L77.5269 119.263C77.6092 119.206 77.7504 119.109 77.9189 118.978L77.954 118.959C78.054 118.903 78.1614 118.844 78.2593 118.787C79.7932 117.953 82.9949 116.384 85.0157 115.603C85.1173 115.565 85.2249 115.528 85.326 115.493L85.3264 115.493L85.3778 115.475C85.4039 115.466 85.4294 115.457 85.4541 115.449C85.0889 116.105 84.4681 116.926 83.6281 117.74C82.6786 118.662 81.4612 119.571 80.0369 120.216C79.0539 120.662 77.9362 121.162 76.7736 121.682C74.6967 122.612 72.4768 123.606 70.6271 124.464C68.6793 125.366 67.1448 126.128 66.5727 126.518C66.1953 126.771 63.4808 128.908 60.4374 131.399C58.3922 133.071 56.2133 134.904 54.4847 136.428C49.9805 140.413 45.4521 143.483 41.2278 145.272C37.5636 146.827 34.1302 147.415 31.1599 146.744C28.9808 146.249 27.1304 144.899 25.56 143.18C23.1497 140.521 21.4212 136.975 20.2769 134.111C19.4561 132.053 18.7086 130.126 18.0298 128.318C21.6366 127.243 29.1044 124.721 34.8563 120.665C36.5167 124.594 38.0717 128.513 39.0066 130.869L39.0068 130.869L39.0068 130.869L39.0242 130.913C39.4016 131.866 39.6816 132.56 39.8155 132.89C39.8357 132.938 39.8537 132.98 39.8687 133.015C39.89 133.064 39.9054 133.099 39.9125 133.121C39.9612 133.204 39.9985 133.248 40.0228 133.268C40.1689 133.429 40.3268 133.439 40.4242 133.438C40.5703 133.435 40.7044 133.382 40.8018 133.274C42.2504 131.808 45.6955 129.36 49.445 126.853C55.8727 122.557 63.2012 118.103 63.2012 118.103C63.2986 118.042 63.3836 117.958 63.4323 117.857C63.4323 117.857 65.0639 114.819 66.9265 112.122C67.8517 110.781 68.8374 109.523 69.7017 108.797ZM33.17 59.5494C33.1441 59.6044 33.1122 59.6555 33.0753 59.7022C33.5143 62.921 33.6084 65.5956 33.4729 67.8063C33.213 71.9185 32.1738 74.4688 31.1227 75.9617C32.4328 76.7994 36.1617 78.9835 40.4438 79.837C44.6618 80.6759 49.4542 80.2153 52.9149 75.6687C52.0145 74.6806 51.3099 73.506 50.7644 72.2458C49.5963 69.5482 49.1522 66.4599 48.9741 64.1462C48.591 64.2088 48.2124 64.259 47.841 64.2989C46.8328 64.4067 45.886 64.4356 45.0419 64.3528L45.0564 63.9804C45.8922 63.9637 46.8227 63.8411 47.7946 63.5956C48.3429 63.457 48.8977 63.275 49.4546 63.0585C49.5364 63.0112 49.6258 62.9752 49.7207 62.9526C50.3521 62.6952 50.9852 62.3956 51.6135 62.0671C51.8252 61.9565 52.0352 61.8419 52.246 61.7268C52.3002 61.6972 52.3544 61.6676 52.4087 61.638C53.4554 61.0681 54.4758 60.4211 55.3607 59.629C57.1432 58.0326 58.4219 55.9323 58.535 53.3191C58.5871 52.1706 58.5793 49.3431 58.5715 46.5345V46.526C58.5672 44.9848 58.5629 43.4498 58.5686 42.2016C58.5688 42.1611 58.5691 42.1209 58.5694 42.081C58.5607 42.0698 58.5521 42.0582 58.5435 42.0462C58.5047 41.9921 58.4316 41.8779 58.3873 41.6648C58.3474 41.4709 58.2917 40.9633 58.2308 39.9236C57.9281 34.773 56.0711 31.2461 55.3514 30.0568C54.7827 30.4085 54.0762 30.6715 53.2654 30.8657C52.0202 31.1628 50.5092 31.3075 48.9235 31.4594L48.9232 31.4595L48.9228 31.4595C48.5332 31.4968 48.139 31.5346 47.7432 31.5751C44.6717 31.8898 41.4626 32.3184 39.7397 34.3661C38.2594 36.1246 37.7217 37.3845 37.6845 38.4165C37.6531 39.2926 37.9805 39.9783 38.2924 40.6316C38.3389 40.7289 38.3851 40.8256 38.4296 40.922C38.8326 41.7932 39.1366 42.6513 38.9619 43.6735C38.7789 44.7506 38.1273 45.5437 37.2779 46.1224C36.5193 46.639 35.5981 46.975 34.8151 47.2149C35.3525 48.4335 36.1054 50.7209 35.5327 53.0852C34.8038 56.0943 33.17 59.5494 33.17 59.5494ZM30.718 76.9829C30.6139 77.0823 30.4364 77.2082 30.1638 77.2061L30.1663 77.203C30.3726 77.1981 30.5685 77.1174 30.718 76.9829ZM31.0075 76.2863C31.0038 76.2475 30.9986 76.2011 30.987 76.1487L30.9878 76.1477C30.998 76.193 31.0045 76.2393 31.0075 76.2863ZM30.7565 76.953L30.7376 76.9684L30.7467 76.9588L30.7565 76.953ZM31.005 76.408C31.0066 76.3938 31.0075 76.3796 31.0075 76.3654C31.0071 76.3757 31.0065 76.386 31.0058 76.3962L31.0055 76.4017L31.005 76.408ZM31.005 76.408C30.9874 76.6314 30.9025 76.8053 30.7663 76.9433C30.8724 76.8275 30.9589 76.677 30.9879 76.5053L30.9893 76.4985C30.9955 76.4681 31.0017 76.438 31.005 76.408ZM119.063 140.76C119.632 140.682 120.23 140.685 120.819 140.736C120.761 141.77 120.645 142.708 120.443 143.462C120.105 144.715 119.13 145.042 118.233 144.828C117.23 144.586 116.294 143.721 116.554 142.714C116.873 141.441 117.896 140.921 119.063 140.76Z" fill="#232221"/>
<path d="M35.3106 149.61C35.1835 149.479 35.0838 149.321 35.0188 149.147C34.7639 148.465 35.1005 147.704 35.7482 147.44L38.0857 146.484C38.3881 146.36 38.7237 146.357 39.0292 146.475C39.6814 146.728 40.0334 147.481 39.796 148.166L38.9362 150.647C38.8748 150.824 38.7777 150.985 38.6521 151.119C38.1435 151.665 37.3087 151.673 36.7881 151.135L35.3106 149.61Z" fill="#FDAF52"/>
<path d="M54.5115 145.784C54.2346 146.45 54.5388 147.223 55.1736 147.517C55.3458 147.597 55.5317 147.637 55.7194 147.636L57.7878 147.622C58.497 147.617 59.0845 147.027 59.0767 146.281C59.0749 146.095 59.0349 145.912 58.9603 145.744L57.8944 143.344C57.5882 142.655 56.8031 142.372 56.1493 142.691C55.8663 142.829 55.6388 143.069 55.514 143.369L54.5115 145.784Z" fill="#FDAF52"/>
<path d="M63.1541 136.354C62.5029 136.61 62.1564 137.365 62.4029 138.052C62.4656 138.226 62.5632 138.385 62.6886 138.518L64.4637 140.398C64.9777 140.942 65.8124 140.945 66.3278 140.406C66.5444 140.18 66.6768 139.879 66.6959 139.557L66.8513 136.918C66.8948 136.18 66.3417 135.558 65.6396 135.509C65.4507 135.495 65.2614 135.524 65.0846 135.594L63.1541 136.354Z" fill="#FDAF52"/>
<path d="M42.1129 123.242C41.8888 123.024 41.7454 122.729 41.714 122.41C41.6404 121.672 42.1699 121.029 42.8714 120.955L45.3694 120.692C45.557 120.673 45.7469 120.695 45.9263 120.758C46.5859 120.99 46.9608 121.732 46.743 122.425L46.0956 124.486C46.0394 124.665 45.9471 124.828 45.8259 124.966C45.3331 125.528 44.4992 125.561 43.9631 125.04L42.1129 123.242Z" fill="#FDAF52"/>
<path d="M54.8924 118.585C54.2413 118.841 53.8948 119.597 54.1412 120.283C54.204 120.458 54.3019 120.616 54.4272 120.749L56.2021 122.629C56.7163 123.173 57.551 123.176 58.0662 122.637C58.2831 122.411 58.4154 122.11 58.4343 121.789L58.5897 119.149C58.6332 118.411 58.0804 117.789 57.378 117.74C57.1891 117.727 56.9998 117.756 56.8229 117.825L54.8924 118.585Z" fill="#FDAF52"/>
<path d="M15.5836 120.315C15.3066 120.982 15.6109 121.755 16.2457 122.049C16.4178 122.128 16.6038 122.169 16.7915 122.167L18.8598 122.154C19.5691 122.149 20.1566 121.558 20.1488 120.812C20.147 120.627 20.107 120.444 20.0323 120.275L18.9665 117.875C18.6603 117.186 17.8752 116.904 17.2213 117.223C16.9383 117.361 16.7109 117.6 16.5861 117.901L15.5836 120.315Z" fill="#FDAF52"/>
<path d="M52.899 109.799C52.7722 109.668 52.6722 109.51 52.6074 109.336C52.3526 108.654 52.6892 107.894 53.3369 107.629L55.6744 106.673C55.9768 106.549 56.3124 106.546 56.6179 106.665C57.2701 106.917 57.622 107.67 57.3847 108.355L56.5249 110.836C56.4634 111.013 56.3664 111.174 56.2408 111.309C55.7322 111.854 54.8974 111.862 54.3767 111.324L52.899 109.799Z" fill="#FDAF52"/>
<path d="M38.8477 107.983C38.2299 108.311 37.969 109.1 38.2838 109.751C38.4255 110.044 38.6661 110.271 38.9561 110.393L41.2922 111.376C41.9645 111.659 42.7324 111.333 42.9985 110.627C43.0628 110.456 43.0923 110.272 43.084 110.088L42.9863 107.916C42.9528 107.172 42.3347 106.614 41.6277 106.645C41.439 106.654 41.2542 106.704 41.0861 106.793L38.8477 107.983Z" fill="#FDAF52"/>
<path d="M22.6077 105.081C22.3174 104.959 22.077 104.732 21.9353 104.439C21.6205 103.788 21.8815 102.999 22.4992 102.671L24.7376 101.482C24.9057 101.392 25.0905 101.342 25.2789 101.334C25.986 101.302 26.6041 101.86 26.6375 102.604L26.7352 104.776C26.7435 104.961 26.7144 105.144 26.6497 105.316C26.384 106.021 25.6158 106.347 24.9437 106.065L22.6077 105.081Z" fill="#FDAF52"/>
<path d="M12.6851 96.2949C12.382 96.9472 12.6527 97.7328 13.2742 98.0545C13.5661 98.2053 13.8997 98.2384 14.2124 98.1489L16.6331 97.4561C17.3071 97.2632 17.7223 96.5422 17.5359 95.8324C17.4888 95.6534 17.4059 95.4866 17.2931 95.3434L15.9743 93.6645C15.51 93.0733 14.6789 92.9955 14.1192 93.4812C13.9798 93.6021 13.8662 93.7525 13.787 93.9232L12.6851 96.2949Z" fill="#FDAF52"/>
<path d="M50.5469 94.6235C50.4215 94.4906 50.3236 94.332 50.2609 94.1572C50.0144 93.4712 50.3609 92.7152 51.0121 92.4591L52.9426 91.6997C53.1194 91.6302 53.3088 91.6011 53.4976 91.6143C54.2 91.6634 54.7528 92.2856 54.7093 93.0238L54.5539 95.663C54.5351 95.9842 54.4027 96.2856 54.1858 96.5118C53.6706 97.0502 52.8359 97.0478 52.3217 96.5032L50.5469 94.6235Z" fill="#FDAF52"/>
<path d="M36.5374 94.551C36.2246 94.6404 35.8907 94.6075 35.5991 94.4564C34.9776 94.1347 34.7069 93.3493 35.01 92.6971L36.1119 90.3254C36.1911 90.1547 36.3047 90.0043 36.4442 89.8834C37.0039 89.3977 37.8349 89.4755 38.2992 90.0664L39.618 91.7456C39.7308 91.8888 39.8137 92.0555 39.8608 92.2346C40.0472 92.9444 39.632 93.6651 38.958 93.8583L36.5374 94.551Z" fill="#FDAF52"/>
<path d="M24.1123 83.5174C23.9246 83.5188 23.7386 83.4784 23.5665 83.3986C22.9319 83.1046 22.6277 82.3314 22.9044 81.6653L23.9069 79.251C24.0317 78.9504 24.2592 78.7106 24.5422 78.5726C25.196 78.254 25.9811 78.536 26.2873 79.2252L27.3531 81.6255C27.4281 81.7936 27.4678 81.9768 27.4699 82.1622C27.4774 82.9083 26.8899 83.4989 26.1809 83.5034L24.1123 83.5174Z" fill="#FDAF52"/>
<path d="M56.3865 80.2092C56.1987 80.2105 56.0128 80.1701 55.8407 80.0906C55.2059 79.7966 54.9019 79.0234 55.1786 78.357L56.181 75.943C56.3059 75.6421 56.5333 75.4023 56.8163 75.2646C57.4701 74.9457 58.2553 75.2278 58.5614 75.9169L59.6273 78.3172C59.702 78.4857 59.7419 78.6685 59.7438 78.854C59.7516 79.6 59.1641 80.1906 58.4548 80.1955L56.3865 80.2092Z" fill="#FDAF52"/>
<path d="M108.933 124.311C108.429 124.069 107.872 124.06 107.384 124.23C106.895 124.4 106.471 124.758 106.23 125.26C106.084 125.565 106.021 125.889 106.032 126.207C105.998 126.564 106.061 126.919 106.242 127.224C106.605 127.836 107.029 128.123 107.724 128.25C107.842 128.272 108.019 128.281 108.177 128.258L108.18 128.259L108.208 128.26C108.312 128.296 108.47 128.316 108.633 128.3C108.82 128.282 109.008 128.221 109.057 128.198C109.242 128.108 109.407 127.958 109.541 127.77C109.657 127.605 109.751 127.41 109.827 127.249C109.835 127.233 109.843 127.216 109.851 127.2C109.867 127.168 109.884 127.133 109.903 127.097C109.961 126.985 110.024 126.861 110.047 126.751C110.055 126.71 110.063 126.64 110.069 126.57C110.104 126.45 110.1 126.342 110.082 126.257C110.081 126.252 110.08 126.247 110.079 126.242C110.092 125.978 110.053 125.715 109.966 125.47C109.793 124.983 109.437 124.553 108.933 124.311Z" fill="#FDAF52"/>
<path d="M96.8973 106.845C96.7808 106.486 96.78 106.082 96.8799 105.696C97.0278 105.126 97.3933 104.619 97.8202 104.381C98.056 104.25 98.2821 104.216 98.5095 104.229C98.5849 104.233 98.6603 104.247 98.7372 104.261C98.9552 104.249 99.1788 104.272 99.4001 104.335C99.711 104.424 99.9836 104.582 100.207 104.788C100.421 104.925 100.561 105.125 100.641 105.355C100.703 105.472 100.752 105.596 100.79 105.724C100.799 105.743 100.808 105.761 100.814 105.777C100.843 105.851 100.864 105.946 100.857 106.057C100.886 106.312 100.867 106.577 100.792 106.839C100.718 107.096 100.598 107.328 100.441 107.528C100.355 107.663 100.251 107.777 100.131 107.863C100.118 107.872 100.094 107.886 100.061 107.904C99.9865 107.96 99.908 108.012 99.8263 108.059C99.3736 108.309 98.8255 108.384 98.2879 108.231C97.7503 108.077 97.3245 107.724 97.072 107.273C96.9984 107.137 96.9397 106.993 96.8973 106.845Z" fill="#FDAF52"/>
<path d="M116.355 121.692C116.148 121.26 116.142 120.736 116.298 120.253C116.478 119.692 116.872 119.206 117.312 118.994C117.555 118.877 117.783 118.856 118.009 118.882C118.08 118.89 118.15 118.906 118.221 118.924C118.449 118.92 118.682 118.956 118.909 119.035C119.247 119.153 119.532 119.353 119.753 119.604C119.877 119.715 119.967 119.85 120.028 119.999C120.041 120.023 120.053 120.047 120.065 120.071C120.291 120.536 120.338 121.089 120.155 121.615C120.051 121.913 119.883 122.172 119.672 122.382C119.596 122.47 119.511 122.545 119.419 122.603C119.411 122.608 119.4 122.614 119.386 122.621C119.301 122.68 119.212 122.732 119.12 122.777C118.654 123.001 118.102 123.044 117.575 122.86C117.047 122.676 116.642 122.299 116.416 121.834C116.394 121.787 116.374 121.74 116.355 121.692Z" fill="#FDAF52"/>
<path d="M119.304 104.96C119.097 104.529 119.09 104.005 119.246 103.521C119.427 102.961 119.821 102.475 120.261 102.263C120.504 102.145 120.731 102.124 120.958 102.15C121.028 102.158 121.098 102.175 121.169 102.192C121.398 102.189 121.63 102.224 121.858 102.304C122.195 102.421 122.481 102.622 122.702 102.872C122.826 102.983 122.916 103.118 122.977 103.268C122.989 103.292 123.001 103.316 123.013 103.34C123.239 103.805 123.287 104.358 123.103 104.884C122.999 105.182 122.832 105.44 122.621 105.651C122.544 105.739 122.46 105.813 122.367 105.871C122.359 105.876 122.348 105.882 122.334 105.89C122.25 105.948 122.161 106 122.069 106.046C121.602 106.269 121.051 106.313 120.523 106.129C119.995 105.944 119.59 105.567 119.364 105.102C119.342 105.056 119.322 105.008 119.304 104.96Z" fill="#FDAF52"/>
<path d="M123.744 90.4235C123.537 89.9917 123.53 89.4682 123.686 88.9842C123.867 88.4239 124.261 87.938 124.701 87.7259C124.944 87.6086 125.171 87.5874 125.398 87.6135C125.468 87.6216 125.538 87.6378 125.609 87.6555C125.838 87.652 126.07 87.6873 126.298 87.7668C126.635 87.8844 126.921 88.0848 127.142 88.3354C127.266 88.4463 127.356 88.5813 127.416 88.7312C127.429 88.7549 127.441 88.7788 127.453 88.803C127.679 89.268 127.727 89.8209 127.543 90.3468C127.439 90.6448 127.272 90.9035 127.061 91.1141C126.984 91.2018 126.9 91.2765 126.807 91.3347C126.804 91.3366 126.8 91.3388 126.796 91.3412C126.79 91.3447 126.782 91.3485 126.774 91.3528C126.69 91.4112 126.601 91.4635 126.509 91.5092C126.042 91.7326 125.491 91.7761 124.963 91.5919C124.435 91.4077 124.03 91.0305 123.804 90.5654C123.782 90.5188 123.762 90.4715 123.744 90.4235Z" fill="#FDAF52"/>
<path d="M127.155 140.892C126.948 140.46 126.942 139.936 127.098 139.452C127.278 138.892 127.672 138.406 128.112 138.194C128.355 138.077 128.583 138.056 128.809 138.082C128.879 138.09 128.949 138.106 129.02 138.124C129.249 138.12 129.482 138.155 129.709 138.235C130.046 138.353 130.332 138.553 130.553 138.804C130.677 138.914 130.767 139.049 130.828 139.199C130.841 139.223 130.853 139.247 130.865 139.271C131.091 139.736 131.138 140.289 130.954 140.815C130.85 141.113 130.683 141.372 130.472 141.582C130.396 141.67 130.311 141.745 130.218 141.803C130.211 141.808 130.2 141.814 130.185 141.821C130.101 141.879 130.012 141.932 129.92 141.977C129.454 142.201 128.902 142.244 128.374 142.06C127.846 141.876 127.442 141.499 127.216 141.034C127.194 140.987 127.174 140.94 127.155 140.892Z" fill="#FDAF52"/>
<path d="M94.327 118.674C94.1198 118.243 94.1134 117.719 94.2692 117.235C94.4496 116.675 94.8439 116.189 95.2837 115.977C95.5267 115.859 95.7544 115.838 95.9807 115.864C96.0511 115.872 96.1211 115.888 96.1921 115.906C96.4206 115.903 96.6533 115.938 96.8809 116.017C97.2181 116.135 97.5036 116.335 97.7249 116.586C97.8488 116.697 97.9386 116.832 97.9995 116.982C98.0122 117.006 98.0244 117.029 98.0362 117.054C98.2622 117.519 98.3095 118.071 98.126 118.597C98.022 118.895 97.8545 119.154 97.6435 119.365C97.5675 119.452 97.4825 119.527 97.3899 119.585C97.3824 119.59 97.3713 119.596 97.3571 119.603C97.2726 119.662 97.1838 119.714 97.0917 119.76C96.6254 119.983 96.0738 120.027 95.546 119.843C95.0181 119.658 94.6134 119.281 94.3873 118.816C94.3655 118.77 94.3454 118.722 94.327 118.674Z" fill="#FDAF52"/>
<path d="M130.224 112.726C129.696 112.542 129.141 112.595 128.675 112.819C128.669 112.821 128.664 112.824 128.658 112.827C128.632 112.832 128.607 112.838 128.582 112.845C128.362 112.907 128.16 113.013 127.979 113.213C127.653 113.577 127.472 114.176 127.517 114.762C127.558 115.291 127.779 115.792 128.162 116.112C128.364 116.302 128.609 116.454 128.889 116.552C129.417 116.736 129.968 116.692 130.435 116.469C130.687 116.344 130.914 116.169 131.098 115.953C131.197 115.869 131.274 115.786 131.296 115.754C131.413 115.591 131.485 115.385 131.513 115.162C131.641 114.685 131.585 114.194 131.384 113.774C131.356 113.689 131.315 113.622 131.272 113.57C131.037 113.192 130.677 112.884 130.224 112.726Z" fill="#FDAF52"/>
<path d="M134.115 127.538C133.587 127.354 133.032 127.407 132.566 127.63C132.56 127.633 132.555 127.635 132.549 127.638C132.524 127.643 132.498 127.65 132.473 127.657C132.254 127.718 132.051 127.824 131.871 128.025C131.544 128.388 131.363 128.987 131.409 129.574C131.45 130.102 131.67 130.603 132.053 130.923C132.255 131.114 132.5 131.265 132.78 131.363C133.308 131.547 133.86 131.504 134.326 131.28C134.578 131.155 134.805 130.98 134.99 130.764C135.088 130.681 135.165 130.598 135.188 130.566C135.305 130.402 135.376 130.197 135.405 129.973C135.532 129.496 135.477 129.005 135.276 128.585C135.248 128.501 135.206 128.433 135.164 128.381C134.928 128.003 134.568 127.696 134.115 127.538Z" fill="#FDAF52"/>
<path d="M143.235 86.6696C142.707 86.4854 142.152 86.5386 141.686 86.762L141.676 86.7666L141.67 86.77C141.644 86.7753 141.618 86.7814 141.593 86.7885C141.374 86.8501 141.171 86.956 140.991 87.1567C140.664 87.5197 140.483 88.1188 140.529 88.7057C140.57 89.2337 140.79 89.7349 141.173 90.0551C141.375 90.2454 141.621 90.3971 141.9 90.4947C142.428 90.679 142.98 90.6355 143.446 90.412C143.698 90.2867 143.925 90.1122 144.11 89.8957C144.209 89.8124 144.285 89.7294 144.308 89.6977C144.425 89.5343 144.496 89.3287 144.525 89.1053C144.653 88.6279 144.597 88.1371 144.396 87.7169C144.368 87.6325 144.326 87.5648 144.284 87.5129C144.048 87.135 143.688 86.8277 143.235 86.6696Z" fill="#FDAF52"/>
<path d="M132.367 93.9892C132.16 93.5574 132.153 93.0338 132.309 92.5498C132.49 91.9896 132.884 91.5036 133.324 91.2915C133.567 91.1742 133.794 91.153 134.021 91.1791C134.091 91.1872 134.161 91.2034 134.232 91.2211C134.461 91.2176 134.693 91.2529 134.921 91.3324C135.258 91.4501 135.544 91.6504 135.765 91.901C135.889 92.0119 135.979 92.1469 136.039 92.2968C136.052 92.3205 136.064 92.3444 136.076 92.3686C136.302 92.8337 136.35 93.3865 136.166 93.9124C136.062 94.2104 135.895 94.4691 135.683 94.6798C135.607 94.7674 135.523 94.8422 135.43 94.9003C135.426 94.9029 135.421 94.9059 135.415 94.9092C135.409 94.912 135.404 94.9151 135.397 94.9184C135.313 94.9768 135.224 95.0291 135.132 95.0748C134.665 95.2983 134.114 95.3417 133.586 95.1575C133.058 94.9733 132.653 94.5961 132.427 94.131C132.405 94.0845 132.385 94.0372 132.367 93.9892Z" fill="#FDAF52"/>
<path d="M140.561 112.915C140.354 112.483 140.348 111.959 140.503 111.475C140.684 110.915 141.078 110.429 141.518 110.217C141.761 110.1 141.989 110.079 142.215 110.105C142.285 110.113 142.355 110.129 142.426 110.147C142.655 110.143 142.887 110.179 143.115 110.258C143.452 110.376 143.738 110.576 143.959 110.827C144.083 110.938 144.173 111.073 144.234 111.222C144.246 111.246 144.259 111.27 144.27 111.294C144.496 111.759 144.544 112.312 144.36 112.838C144.256 113.136 144.089 113.395 143.878 113.605C143.802 113.693 143.717 113.768 143.624 113.826C143.617 113.831 143.605 113.837 143.591 113.844C143.507 113.903 143.418 113.955 143.326 114C142.86 114.224 142.308 114.267 141.78 114.083C141.252 113.899 140.848 113.522 140.621 113.057C140.6 113.01 140.579 112.963 140.561 112.915Z" fill="#FDAF52"/>
<path d="M132.579 102.61C132.682 102.129 133.013 101.705 133.451 101.42C133.945 101.1 134.558 100.972 135.033 101.085C135.296 101.147 135.486 101.274 135.645 101.437L135.645 101.437C135.89 101.595 136.104 101.807 136.267 102.07C136.516 102.473 136.602 102.932 136.551 103.369C136.549 103.383 136.547 103.396 136.545 103.409C136.537 103.474 136.525 103.538 136.51 103.602C136.467 103.785 136.398 103.962 136.305 104.128C136.305 104.13 136.304 104.132 136.303 104.134C136.275 104.207 136.227 104.29 136.148 104.367C136.002 104.556 135.82 104.723 135.605 104.855C135.452 104.95 135.291 105.021 135.126 105.071C135.094 105.085 135.062 105.1 135.03 105.112C134.815 105.198 134.595 105.236 134.391 105.211C134.343 105.205 134.188 105.165 134.037 105.096C133.546 104.97 133.104 104.659 132.816 104.193C132.522 103.717 132.446 103.17 132.564 102.667C132.566 102.661 132.567 102.656 132.568 102.651C132.57 102.644 132.572 102.638 132.573 102.632C132.575 102.625 132.577 102.617 132.579 102.61Z" fill="#FDAF52"/>
<path d="M122.784 126.629C122.577 126.197 122.571 125.673 122.726 125.189C122.907 124.629 123.301 124.143 123.741 123.931C123.984 123.814 124.212 123.793 124.438 123.819C124.508 123.827 124.578 123.843 124.649 123.861C124.878 123.857 125.11 123.892 125.338 123.972C125.675 124.09 125.961 124.29 126.182 124.54C126.306 124.651 126.396 124.786 126.457 124.936C126.469 124.96 126.482 124.984 126.493 125.008C126.719 125.473 126.767 126.026 126.583 126.552C126.479 126.85 126.312 127.109 126.101 127.319C126.025 127.407 125.94 127.482 125.847 127.54C125.84 127.545 125.828 127.551 125.814 127.558C125.73 127.616 125.641 127.669 125.549 127.714C125.083 127.938 124.531 127.981 124.003 127.797C123.475 127.613 123.07 127.236 122.844 126.77C122.823 126.724 122.802 126.677 122.784 126.629Z" fill="#FDAF52"/>
<path d="M98.3042 140.069C98.097 139.637 98.0907 139.113 98.2464 138.629C98.4269 138.069 98.8211 137.583 99.261 137.371C99.5039 137.254 99.7316 137.233 99.9579 137.259C100.028 137.267 100.098 137.283 100.169 137.301C100.398 137.297 100.63 137.332 100.858 137.412C101.195 137.53 101.481 137.73 101.702 137.981C101.826 138.091 101.916 138.226 101.977 138.376C101.989 138.4 102.002 138.424 102.013 138.448C102.239 138.913 102.287 139.466 102.103 139.992C101.999 140.29 101.832 140.549 101.621 140.759C101.545 140.847 101.46 140.922 101.367 140.98C101.36 140.985 101.348 140.991 101.334 140.998C101.25 141.056 101.161 141.109 101.069 141.154C100.603 141.378 100.051 141.421 99.5232 141.237C98.9953 141.053 98.5906 140.676 98.3646 140.211C98.3427 140.164 98.3226 140.117 98.3042 140.069Z" fill="#FDAF52"/>
<path d="M131.167 78.6292C130.96 78.1974 130.953 77.6738 131.109 77.1898C131.289 76.6295 131.684 76.1436 132.123 75.9315C132.366 75.8142 132.594 75.793 132.82 75.8191C132.891 75.8272 132.961 75.8434 133.032 75.8611C133.26 75.8576 133.493 75.8929 133.721 75.9724C134.058 76.09 134.343 76.2904 134.565 76.541C134.688 76.6519 134.778 76.7868 134.839 76.9368C134.852 76.9605 134.864 76.9844 134.876 77.0086C135.102 77.4736 135.149 78.0264 134.966 78.5524C134.862 78.8504 134.694 79.1091 134.483 79.3197C134.407 79.4074 134.322 79.4821 134.23 79.5403C134.222 79.545 134.211 79.5512 134.197 79.5583C134.112 79.6168 134.024 79.6691 133.931 79.7148C133.465 79.9382 132.914 79.9817 132.386 79.7975C131.858 79.6133 131.453 79.2361 131.227 78.771C131.205 78.7244 131.185 78.6772 131.167 78.6292Z" fill="#FDAF52"/>
</svg>
