<svg width="18" height="18" viewBox="0 0 18 18" fill="none" xmlns="http://www.w3.org/2000/svg">
<path d="M6.02484 17.5048C5.75484 17.5048 5.47484 17.4548 5.20484 17.3448C4.37484 17.0048 3.84484 16.1648 3.88484 15.2648L3.93484 14.2648C3.94484 14.0848 3.87484 13.9048 3.74484 13.7748C3.61484 13.6448 3.43484 13.5748 3.25484 13.5848L2.25484 13.6348C1.35484 13.6848 0.514837 13.1548 0.164837 12.3148C-0.185163 11.4748 0.0348371 10.5048 0.704837 9.90484L1.44484 9.23484C1.58484 9.11484 1.65484 8.93484 1.65484 8.75484C1.65484 8.57484 1.59484 8.40484 1.46484 8.28484L0.714837 7.60484C0.054837 7.00484 -0.165163 6.03484 0.174837 5.20484C0.524837 4.37484 1.36484 3.83484 2.25484 3.88484L3.25484 3.93484C3.44484 3.93484 3.61484 3.87484 3.74484 3.74484C3.87484 3.61484 3.94484 3.43484 3.93484 3.25484L3.88484 2.25484C3.84484 1.35484 4.37484 0.514837 5.20484 0.174837C6.03484 -0.165163 7.00484 0.0448371 7.61484 0.714837L8.28484 1.45484C8.52484 1.72484 8.99484 1.72484 9.24484 1.45484L9.91484 0.704837C10.5148 0.0348371 11.4848 -0.185163 12.3248 0.164837C13.1648 0.514837 13.6948 1.35484 13.6448 2.25484L13.5948 3.25484C13.5848 3.43484 13.6548 3.61484 13.7848 3.74484C13.9148 3.87484 14.0948 3.94484 14.2648 3.93484L15.2648 3.88484C16.1748 3.83484 17.0048 4.37484 17.3548 5.20484C17.7048 6.04484 17.4848 7.00484 16.8148 7.61484L16.0748 8.28484C15.9448 8.40484 15.8648 8.58484 15.8648 8.76484C15.8648 8.94484 15.9448 9.12484 16.0748 9.24484L16.8148 9.91484C17.4848 10.5248 17.7048 11.4948 17.3548 12.3248C17.0048 13.1648 16.1648 13.6948 15.2648 13.6448L14.2648 13.5948C14.0848 13.5848 13.9048 13.6548 13.7748 13.7848C13.6448 13.9148 13.5748 14.0948 13.5848 14.2748L13.6348 15.2748C13.6748 16.1748 13.1448 17.0148 12.3148 17.3548C11.4848 17.7048 10.5248 17.4848 9.91484 16.8248L9.24484 16.0848C9.00484 15.8148 8.53484 15.8148 8.28484 16.0848L7.61484 16.8048C7.20484 17.2548 6.61484 17.5048 6.02484 17.5048ZM3.29484 12.0848C3.86484 12.0848 4.40484 12.3148 4.81484 12.7148C5.24484 13.1448 5.47484 13.7348 5.43484 14.3448L5.38484 15.3348C5.37484 15.6048 5.53484 15.8548 5.78484 15.9548C6.03484 16.0548 6.32484 15.9948 6.50484 15.7948L7.17484 15.0548C7.98484 14.1648 9.54484 14.1548 10.3548 15.0548L11.0248 15.7948C11.2048 15.9948 11.4948 16.0548 11.7448 15.9548C11.9948 15.8548 12.1548 15.6048 12.1448 15.3348L12.0948 14.3448C12.0648 13.7448 12.2948 13.1448 12.7148 12.7248C13.1448 12.2948 13.7348 12.0648 14.3348 12.0948L15.3348 12.1448C15.6048 12.1648 15.8548 11.9948 15.9648 11.7448C16.0648 11.4948 16.0048 11.2048 15.8048 11.0248L15.0648 10.3548C14.6148 9.94484 14.3548 9.36484 14.3548 8.76484C14.3548 8.16484 14.6148 7.57484 15.0648 7.17484L15.8048 6.50484C16.0048 6.32484 16.0748 6.03484 15.9648 5.78484C15.8648 5.53484 15.6048 5.37484 15.3348 5.38484L14.3348 5.43484C13.7348 5.47484 13.1448 5.23484 12.7148 4.80484C12.2848 4.37484 12.0648 3.78484 12.0948 3.18484L12.1448 2.18484C12.1548 1.91484 11.9948 1.66484 11.7448 1.55484C11.4948 1.45484 11.2048 1.51484 11.0248 1.71484L10.3548 2.45484C9.54484 3.34484 7.98484 3.35484 7.17484 2.45484L6.50484 1.71484C6.32484 1.51484 6.03484 1.45484 5.78484 1.55484C5.53484 1.65484 5.37484 1.91484 5.38484 2.18484L5.43484 3.17484C5.46484 3.77484 5.23484 4.37484 4.80484 4.80484C4.38484 5.23484 3.79484 5.46484 3.18484 5.42484L2.18484 5.37484C1.92484 5.37484 1.66484 5.52484 1.56484 5.77484C1.46484 6.02484 1.52484 6.31484 1.72484 6.49484L2.46484 7.16484C2.91484 7.57484 3.17484 8.15484 3.17484 8.76484C3.17484 9.37484 2.91484 9.95484 2.46484 10.3548L1.72484 11.0248C1.52484 11.2048 1.45484 11.4948 1.56484 11.7448C1.66484 11.9948 1.91484 12.1448 2.19484 12.1448L3.19484 12.0948C3.22484 12.0848 3.26484 12.0848 3.29484 12.0848Z" fill="#09112B"/>
<path d="M8.75 12.5C6.68 12.5 5 10.82 5 8.75C5 6.68 6.68 5 8.75 5C10.82 5 12.5 6.68 12.5 8.75C12.5 10.82 10.82 12.5 8.75 12.5ZM8.75 6.5C7.51 6.5 6.5 7.51 6.5 8.75C6.5 9.99 7.51 11 8.75 11C9.99 11 11 9.99 11 8.75C11 7.51 9.99 6.5 8.75 6.5Z" fill="#09112B"/>
</svg>
