<svg xmlns="http://www.w3.org/2000/svg" width="146" height="190"><g fill="none" fill-rule="evenodd" transform="translate(0 -17)"><path fill="#5457FF" d="M103.322 17.446L54.79 35.423a1.2 1.2 0 0 0-.098 2.21l53.06 25.158a1.2 1.2 0 0 0 1.708-1.21l-4.528-43.135a1.2 1.2 0 0 0-1.61-1z"/><path fill="#963484" d="M.2 111.577l19.409 29.281a1.2 1.2 0 0 0 2.111-.21L38.8 98.704a1.2 1.2 0 0 0-1.505-1.586L.808 109.78a1.2 1.2 0 0 0-.607 1.797z"/><path fill="#28C2FF" d="M144.214 154.563l-15.554-7.234a1.2 1.2 0 0 1-.265-2.007l12.986-10.897a1.2 1.2 0 0 1 1.96.751l2.568 18.13a1.2 1.2 0 0 1-1.695 1.257z"/><path fill="#5457FF" d="M85.993 101.232l-8.548-1.495a.6.6 0 0 0-.597.932l5.618 8.146a.6.6 0 0 0 1.043-.099l2.93-6.651a.6.6 0 0 0-.446-.833z"/><ellipse cx="33.688" cy="203.853" fill="#171933" rx="3.008" ry="3"/><ellipse cx="21.055" cy="190.653" fill="#171933" rx="3.008" ry="3"/><ellipse cx="52.035" cy="198.153" fill="#171933" rx="1.504" ry="1.5"/></g></svg>